<?xml version="1.0" standalone="no"?>
<!DOCTYPE svg PUBLIC "-//W3C//DTD SVG 1.1//EN" "http://www.w3.org/Graphics/SVG/1.1/DTD/svg11.dtd" >
<svg>
<metadata>
Created by FontForge 20120731 at Fri Apr 22 11:42:50 2016
 By Apache
Futura was designed for Bauer company in 1927 by Paul Renner. This is a sans serif face based on geometrical shapes, representative of the aesthetics of the Bauhaus school of the 1920s-30s. Issued by the Bauer Foundry in a wide range of weights and widths, Futura became a very popular choice for text and display setting. Originally Cyrillic version of eight styles was developed at ParaType (ParaGraph) in 1995 by Vladimir Yefimov. Additional Cyrillic styles were developed for ParaType in 2007 by Isabella Chaeva. Simultaneously the old eight styles were partly revised to match the whole family. Now the new Futura is an uniform type system consisted of seven weights with corresponding obliques plus eight condensed styles. All these fonts are coordinated in letterforms, metrics, and weights to better working together.
</metadata>
<defs>
<font id="FuturaNewExtraBold-Obl" horiz-adv-x="500" >
  <font-face 
    font-family="Futura New ExtraBold"
    font-weight="800"
    font-style="italic"
    font-stretch="normal"
    units-per-em="1000"
    panose-1="2 11 10 2 2 2 4 9 2 3"
    ascent="800"
    descent="-200"
    x-height="467"
    cap-height="667"
    bbox="-365 -274 1509 982"
    underline-thickness="50"
    underline-position="-50"
    slope="-12"
    stemh="180"
    stemv="230"
    unicode-range="U+0020-FB02"
  />
<missing-glyph horiz-adv-x="233" 
 />
    <glyph glyph-name="uniF460" unicode="&#x410;`" horiz-adv-x="708" 
d="M428 89h-164l-32 -89h-260l308 667h276l124 -667h-247zM365 362l-45 -121h92l-10 121c-1 11 -2 28 -2 47c0 24 1 31 3 53h-8c-9 -39 -15 -61 -30 -100zM307 779l127 137l117 -73l-157 -119z" />
    <glyph glyph-name="uniF461" unicode="&#x415;`" horiz-adv-x="549" 
d="M121 667h438l-21 -174h-197l-9 -73h180l-20 -165h-180l-9 -76h204l-22 -179h-446zM227 779l127 137l117 -73l-157 -119z" />
    <glyph glyph-name="uniF462" unicode="&#x418;`" horiz-adv-x="784" 
d="M121 667h238l-26 -204c-6 -49 -15 -93 -32 -140l10 -5c22 43 50 88 73 120l166 229h221l-82 -667h-238l21 172c7 59 16 96 32 153l-10 2c-10 -20 -30 -57 -75 -117l-159 -210h-221zM345 779l127 137l117 -73l-157 -119z" />
    <glyph glyph-name="uniF463" unicode="&#x41e;`" horiz-adv-x="808" 
d="M675 591c73 -60 111 -147 111 -252c0 -202 -157 -356 -365 -356c-211 0 -373 148 -373 341c0 202 162 359 368 359c96 0 189 -33 259 -92zM410 193c76 0 132 61 132 142c0 71 -51 127 -118 127c-73 0 -132 -63 -132 -140c0 -74 50 -129 118 -129zM357 779l127 137
l117 -73l-157 -119z" />
    <glyph glyph-name="uniF464" unicode="&#x423;`" horiz-adv-x="714" 
d="M40 667h259l72 -188c9 -24 15 -45 17 -73h8c6 24 15 52 26 75l90 186h263l-389 -667h-266l87 153c16 28 29 48 53 73zM310 779l127 137l117 -73l-157 -119z" />
    <glyph glyph-name="uniF465" unicode="&#x42b;`" horiz-adv-x="1007" 
d="M912 0h-242l82 667h242zM39 0l83 667h242l-31 -254h78c72 0 149 -11 195 -56c25 -24 50 -68 50 -134c0 -90 -42 -146 -83 -175c-62 -44 -155 -48 -208 -48h-326zM301 156h23c36 0 56 3 71 10c22 11 29 28 29 50c0 12 -2 27 -19 37c-10 6 -25 10 -62 10h-29zM456 779
l127 137l117 -73l-157 -119z" />
    <glyph glyph-name="uniF466" unicode="&#x42d;`" horiz-adv-x="670" 
d="M30 38l26 211c11 -12 36 -35 72 -53s66 -23 103 -23c30 0 66 3 96 19c21 11 47 33 60 72h-219l18 146h217c-5 15 -17 43 -51 62c-26 15 -62 21 -93 21c-37 0 -71 -6 -108 -26c-25 -13 -51 -32 -75 -56l28 222c75 38 145 50 205 50c110 0 198 -37 251 -89
c42 -41 88 -117 88 -235c0 -122 -46 -219 -110 -280c-85 -82 -189 -96 -271 -96c-86 0 -164 17 -237 55zM288 779l127 137l117 -73l-157 -119z" />
    <glyph glyph-name="uniF467" unicode="&#x42e;`" horiz-adv-x="1143" 
d="M335 439h81c23 81 68 134 107 166c59 48 139 78 230 78c110 0 213 -43 279 -111c45 -47 89 -122 89 -233c0 -104 -43 -192 -103 -252c-59 -59 -147 -104 -275 -104c-94 0 -167 26 -220 62s-108 97 -123 198h-90l-29 -243h-242l82 667h242zM745 193c34 0 70 15 90 35
c27 26 42 72 42 107c0 30 -12 69 -37 94c-20 20 -49 33 -81 33s-68 -15 -92 -40c-23 -23 -40 -61 -40 -100c0 -34 14 -76 41 -100c21 -19 52 -29 77 -29zM524 779l127 137l117 -73l-157 -119z" />
    <glyph glyph-name="uniF468" unicode="&#x42f;`" horiz-adv-x="707" 
d="M25 0l181 251c-22 4 -51 14 -79 43c-34 35 -47 77 -47 124c0 71 28 136 66 174c71 71 181 75 240 75h308l-82 -667h-242l17 141c1 7 4 32 21 104l-7 1c-7 -38 -25 -81 -35 -99l-83 -147h-258zM417 376l14 117h-41c-15 0 -40 -1 -58 -18c-11 -11 -19 -28 -19 -51
c0 -16 6 -28 20 -37c13 -8 33 -11 50 -11h34zM306 779l127 137l117 -73l-157 -119z" />
    <glyph glyph-name="uniF469" unicode="&#x401;`" horiz-adv-x="549" 
d="M121 667h438l-21 -174h-197l-9 -73h180l-20 -165h-180l-9 -76h204l-22 -179h-446zM345 911l107 -31l-120 -150l-88 26zM80 815c0 46 34 80 80 80c53 0 80 -45 80 -80c0 -43 -37 -80 -80 -80c-35 0 -80 27 -80 80zM451 815c0 35 27 80 80 80c46 0 80 -34 80 -80
c0 -53 -45 -80 -80 -80c-43 0 -80 37 -80 80z" />
    <glyph glyph-name="uniF46A" unicode="&#x430;`" horiz-adv-x="652" 
d="M403 467h230l-58 -467h-229c7 32 10 40 25 83l-7 3c-40 -70 -82 -99 -144 -99c-105 0 -195 100 -195 218c0 148 110 278 234 278c74 0 114 -28 141 -100l8 3c-4 33 -5 45 -5 71v10zM316 164c37 0 65 32 65 74c0 35 -23 61 -55 61c-36 0 -67 -35 -67 -76
c0 -34 24 -59 57 -59zM307 596l116 146l117 -73l-146 -128z" />
    <glyph glyph-name="uniF46B" unicode="&#x435;`" horiz-adv-x="618" 
d="M587 202h-331c-1 -6 -1 -12 -1 -17c0 -38 20 -63 51 -63c24 0 39 12 50 40h222c-18 -53 -31 -74 -65 -104c-54 -47 -124 -71 -205 -71c-166 0 -280 98 -280 242c0 151 124 265 288 265c154 0 275 -107 275 -244c0 -11 -2 -27 -4 -48zM322 360c-32 0 -50 -19 -57 -62h108
c-1 42 -17 62 -51 62zM290 596l116 146l117 -73l-146 -128z" />
    <glyph glyph-name="uniF46C" unicode="&#x438;`" horiz-adv-x="673" 
d="M77 467h228l-20 -146c-4 -33 -11 -60 -25 -91l11 -4c10 23 19 38 33 59l124 182h227l-57 -467h-228l19 140c4 30 9 57 19 92l-10 4c-18 -37 -29 -51 -42 -70l-109 -166h-227zM317 596l116 146l117 -73l-146 -128z" />
    <glyph glyph-name="uniF46D" unicode="&#x43e;`" horiz-adv-x="637" 
d="M329 493c93 0 167 -32 213 -78c41 -40 69 -99 69 -171c0 -44 -11 -113 -71 -174c-51 -52 -122 -83 -216 -83c-109 0 -181 39 -223 80c-53 51 -72 114 -72 169c0 68 28 130 69 172c53 54 139 85 231 85zM318 169c17 0 30 5 41 16c14 14 23 36 23 59c0 22 -9 41 -20 51
c-10 9 -23 15 -38 15s-31 -5 -43 -17c-14 -14 -23 -36 -23 -58c0 -19 9 -39 21 -51c10 -9 23 -15 39 -15zM299 596l116 146l117 -73l-146 -128z" />
    <glyph glyph-name="uniF46E" unicode="&#x443;`" horiz-adv-x="591" 
d="M381 467h249l-363 -696h-248l88 169c30 52 37 63 65 96l-141 431h238l20 -130c6 -37 7 -53 7 -75c0 -14 0 -24 -2 -48l10 -1c11 58 18 87 34 131zM270 596l116 146l117 -73l-146 -128z" />
    <glyph glyph-name="uniF46F" unicode="&#x44b;`" horiz-adv-x="884" 
d="M579 0l57 467h228l-57 -467h-228zM289 311h99c63 0 108 -15 134 -39c21 -19 42 -54 42 -107c0 -52 -21 -89 -43 -112c-39 -39 -100 -53 -174 -53h-327l56 467h232zM265 116h36c16 0 33 3 43 11c8 6 16 17 16 37c0 5 -1 19 -12 27c-9 6 -26 8 -36 8h-37zM423 596l116 146
l117 -73l-146 -128z" />
    <glyph glyph-name="uniF470" unicode="&#x44d;`" horiz-adv-x="537" 
d="M30 29l19 158c15 -17 36 -34 58 -44c19 -9 44 -16 74 -16c17 0 48 2 73 17c19 12 29 27 34 43h-167l13 110h161c-13 25 -32 37 -41 42c-4 2 -26 13 -60 13c-24 0 -50 -5 -75 -17c-28 -13 -49 -31 -56 -38l20 165c61 22 111 30 160 30c118 0 179 -45 203 -69
c28 -28 65 -80 65 -173c0 -97 -38 -157 -74 -192c-65 -63 -148 -70 -212 -70c-69 0 -130 8 -195 41zM249 596l116 146l117 -73l-146 -128z" />
    <glyph glyph-name="uniF471" unicode="&#x44e;`" horiz-adv-x="912" 
d="M276 318h63c14 41 40 89 96 127c55 37 113 48 169 48c111 0 178 -41 215 -78c33 -33 67 -86 67 -163c0 -64 -22 -134 -73 -186c-70 -71 -160 -79 -227 -79c-54 0 -121 7 -175 46c-31 23 -68 63 -83 127h-70l-20 -160h-218l57 467h218zM593 169c17 0 30 5 41 16
c15 14 23 36 23 58s-9 41 -20 52c-10 9 -23 15 -38 15s-31 -5 -43 -17c-14 -14 -23 -36 -23 -58c0 -19 9 -39 21 -51c10 -9 23 -15 39 -15zM437 596l116 146l117 -73l-146 -128z" />
    <glyph glyph-name="uniF472" unicode="&#x44f;`" horiz-adv-x="627" 
d="M10 0l130 158c-27 5 -47 18 -61 32c-27 28 -33 62 -33 91c0 66 26 107 50 131c52 51 125 55 179 55h332l-57 -467h-230l17 138h-6l-92 -138h-229zM351 250l11 95h-31c-17 0 -38 -4 -50 -15c-9 -8 -15 -22 -15 -39c0 -16 7 -25 13 -30c10 -8 28 -11 38 -11h34zM294 596
l116 146l117 -73l-146 -128z" />
    <glyph glyph-name="uniF473" unicode="&#x451;`" horiz-adv-x="618" 
d="M587 202h-331c-1 -6 -1 -12 -1 -17c0 -38 20 -63 51 -63c24 0 39 12 50 40h222c-18 -53 -31 -74 -65 -104c-54 -47 -124 -71 -205 -71c-166 0 -280 98 -280 242c0 151 124 265 288 265c154 0 275 -107 275 -244c0 -11 -2 -27 -4 -48zM322 360c-32 0 -50 -19 -57 -62h108
c-1 42 -17 62 -51 62zM202 602l116 146l96 -63l-146 -128zM49 667c0 43 35 78 78 78c42 0 77 -35 77 -78s-35 -78 -77 -78c-43 0 -78 35 -78 78zM432 667c0 43 35 78 77 78c43 0 78 -35 78 -78s-35 -78 -78 -78c-42 0 -77 35 -77 78z" />
    <glyph glyph-name="fi" unicode="fi" horiz-adv-x="701" 
d="M268 0h-226l36 293l-63 -6l22 180l62 -6l2 21c5 50 20 122 76 178c73 73 178 80 236 80c94 0 161 -23 206 -58c57 -45 71 -102 71 -146c0 -11 -1 -20 -2 -29h-226v4c0 14 -5 26 -12 34c-10 12 -30 19 -51 19s-41 -9 -53 -21c-14 -15 -18 -35 -20 -48l-5 -36l78 8
l-22 -180l-73 6zM626 0h-226l57 467h226z" />
    <glyph glyph-name="fl" unicode="fl" horiz-adv-x="701" 
d="M268 0h-226l36 293l-63 -6l22 180l62 -6l2 21c5 52 21 124 75 178c46 46 123 80 231 80c76 0 155 -19 208 -64c52 -44 71 -100 71 -160c0 -35 -6 -70 -11 -111l-49 -405h-226l55 440c2 17 6 37 6 57c0 14 -2 40 -22 55c-11 8 -26 12 -41 12c-21 0 -39 -7 -52 -21
c-14 -16 -18 -34 -20 -48l-5 -36l78 8l-22 -180l-73 6z" />
    <glyph glyph-name=".notdef" horiz-adv-x="233" 
 />
    <glyph glyph-name="space" unicode=" " horiz-adv-x="233" 
 />
    <glyph glyph-name="exclam" unicode="!" horiz-adv-x="404" 
d="M140 667h242l-49 -405h-242zM188 211c75 0 134 -49 134 -112c0 -62 -59 -111 -131 -111s-133 52 -133 115c0 62 56 108 130 108z" />
    <glyph glyph-name="quotedbl" unicode="&#x22;" horiz-adv-x="416" 
d="M241 667l-58 -268h-99l9 268h148zM428 667l-57 -268h-100l9 268h148z" />
    <glyph glyph-name="numbersign" unicode="#" horiz-adv-x="600" 
d="M484 299h101l-32 -117h-102l-51 -182h-134l52 182h-84l-52 -182h-132l52 182h-102l33 117h101l23 83h-100l32 116h101l48 169h131l-47 -169h84l48 169h133l-48 -169h100l-32 -116h-100zM350 299l24 83h-85l-23 -83h84z" />
    <glyph glyph-name="dollar" unicode="$" horiz-adv-x="707" 
d="M497 773l-12 -96c64 -6 106 -19 173 -49l-77 -177c-48 42 -102 63 -162 63c-55 0 -82 -15 -82 -45c0 -24 5 -27 74 -40c97 -17 137 -30 172 -55c45 -33 68 -82 68 -143c0 -72 -35 -138 -96 -182c-46 -33 -76 -44 -161 -57l-14 -107h-145l14 107c-55 8 -74 13 -114 28
s-57 23 -99 48l79 181c37 -35 54 -46 93 -63c37 -16 78 -25 114 -25c58 0 93 18 93 49c0 26 -18 37 -67 44c-80 10 -135 26 -174 50c-45 29 -75 86 -75 147c0 120 90 206 238 226l12 96h148z" />
    <glyph glyph-name="percent" unicode="%" horiz-adv-x="1059" 
d="M267 683c125 0 217 -70 217 -174c0 -114 -95 -199 -218 -199c-124 0 -210 75 -210 184c0 111 87 189 211 189zM312 507c0 24 -17 40 -35 40c-24 0 -44 -24 -44 -51c0 -23 16 -41 35 -41c25 0 44 23 44 52zM720 667h120l-470 -667h-121zM812 357c125 0 218 -71 218 -175
c0 -114 -97 -199 -219 -199c-124 0 -210 76 -210 184c0 111 87 190 211 190zM857 180c0 25 -16 40 -35 40c-24 0 -44 -23 -44 -51c0 -22 16 -40 35 -40c25 0 44 22 44 51z" />
    <glyph glyph-name="ampersand" unicode="&#x26;" horiz-adv-x="869" 
d="M805 220l-111 -75l143 -145h-293l-35 42c-57 -28 -81 -36 -130 -47c-34 -8 -65 -12 -93 -12c-144 0 -249 92 -249 216c0 64 28 117 79 149c31 18 50 25 104 37c-37 45 -51 78 -51 122c0 112 105 190 256 190c144 0 246 -77 246 -185c0 -77 -52 -135 -156 -175l51 -61
c49 35 60 46 113 109zM390 503c0 -15 5 -27 24 -53c37 18 51 34 51 58c0 21 -15 37 -35 37c-23 0 -40 -17 -40 -42zM389 179l-69 78c-32 -10 -48 -27 -48 -50c0 -25 24 -42 58 -42c19 0 32 3 59 14z" />
    <glyph glyph-name="quotesingle" unicode="'" horiz-adv-x="231" 
d="M243 667l-58 -268h-101l9 268h150z" />
    <glyph glyph-name="parenleft" unicode="(" horiz-adv-x="428" 
d="M318 -160l-191 -70c-38 112 -49 155 -62 237c-8 53 -12 108 -12 151c0 117 21 236 63 342c32 83 55 126 144 266l170 -116c-121 -194 -167 -336 -167 -512c0 -33 3 -79 9 -123c10 -70 18 -101 46 -175z" />
    <glyph glyph-name="parenright" unicode=")" horiz-adv-x="428" 
d="M120 696l191 70c38 -112 49 -155 62 -237c8 -53 12 -108 12 -154c0 -114 -21 -234 -62 -339c-33 -83 -56 -125 -145 -266l-170 116c121 193 167 336 167 508c0 37 -3 83 -9 127c-10 70 -18 101 -46 175z" />
    <glyph glyph-name="asterisk" unicode="*" horiz-adv-x="710" 
d="M253 663l96 -44l4 110h120l-24 -110l107 44l23 -114l-111 -25l63 -83l-105 -70l-46 94l-67 -94l-89 70l83 83l-105 25z" />
    <glyph glyph-name="plus" unicode="+" 
d="M47 280v120h152v153h130v-153h151v-120h-151v-153h-130v153h-152z" />
    <glyph glyph-name="comma" unicode="," horiz-adv-x="344" 
d="M75 183h233l-187 -343h-178z" />
    <glyph glyph-name="hyphen" unicode="-" horiz-adv-x="415" 
d="M356 175h-315l23 180h315z" />
    <glyph glyph-name="period" unicode="." horiz-adv-x="355" 
d="M164 211c72 0 129 -49 129 -111c0 -63 -59 -113 -135 -113c-73 0 -128 46 -128 106c0 64 62 118 134 118z" />
    <glyph glyph-name="slash" unicode="/" horiz-adv-x="639" 
d="M-104 -193l490 922h173l-491 -922h-172z" />
    <glyph glyph-name="zero" unicode="0" horiz-adv-x="707" 
d="M373 683c181 0 316 -139 316 -326c0 -212 -146 -374 -338 -374c-181 0 -308 135 -308 327c0 215 140 373 330 373zM350 183c55 0 99 85 99 192c0 63 -28 105 -69 105c-51 0 -97 -86 -97 -182c0 -71 25 -115 67 -115z" />
    <glyph glyph-name="one" unicode="1" horiz-adv-x="707" 
d="M215 667h355l-82 -667h-246l56 461l-109 -8z" />
    <glyph glyph-name="two" unicode="2" horiz-adv-x="707" 
d="M551 190h89l-23 -190h-614l331 299c43 39 89 81 89 130c0 19 -7 36 -17 45c-8 7 -21 13 -37 13s-37 -6 -51 -30c-9 -16 -15 -39 -15 -57h-244c15 109 57 166 91 200c52 51 120 83 233 83c69 0 150 -12 213 -71c32 -30 69 -83 69 -165c0 -64 -23 -118 -72 -165
c-22 -21 -55 -44 -83 -60c-25 -14 -63 -30 -95 -41l3 -11c17 6 41 13 61 16c19 3 55 4 72 4z" />
    <glyph glyph-name="three" unicode="3" horiz-adv-x="707" 
d="M84 100c-27 39 -35 65 -43 131h246c-1 -7 -1 -12 -1 -16c0 -38 26 -63 63 -63c40 0 72 30 72 68c0 34 -27 60 -64 60c-6 0 -13 0 -23 -2l17 137c9 -2 13 -3 20 -3c34 0 58 22 58 53c0 29 -22 51 -49 51c-29 0 -48 -19 -52 -55h-232c8 49 14 68 33 99c18 28 40 51 67 69
c54 37 117 54 193 54c158 0 273 -83 273 -198c0 -70 -46 -123 -115 -133v-10c66 -12 109 -67 109 -141c0 -130 -121 -218 -300 -218c-121 0 -219 42 -272 117z" />
    <glyph glyph-name="four" unicode="4" horiz-adv-x="707" 
d="M595 309h92l-23 -182h-92l-15 -127h-223l16 127h-332l22 182l312 358h287zM337 309h41l7 56c5 44 15 77 40 132l-10 1c-15 -29 -33 -57 -57 -87l-46 -59c-14 -16 -33 -34 -62 -57l4 -7c29 17 43 21 83 21z" />
    <glyph glyph-name="five" unicode="5" horiz-adv-x="707" 
d="M226 667h447l-23 -188h-274l-18 -62c25 7 51 12 84 12c72 0 125 -23 163 -60c22 -22 55 -65 55 -134c0 -54 -21 -114 -67 -161c-61 -62 -155 -91 -285 -91c-46 0 -103 5 -151 16c-44 10 -79 23 -107 35l50 177c24 -11 60 -25 89 -33c33 -9 67 -13 107 -13
c39 0 66 5 85 15c24 12 35 31 35 46c0 19 -12 42 -48 55c-29 11 -62 12 -92 12c-40 0 -68 -3 -105 -12c-18 -5 -42 -12 -57 -17z" />
    <glyph glyph-name="six" unicode="6" horiz-adv-x="707" 
d="M341 667h339l-186 -148c-14 -11 -22 -18 -24 -19c-9 -7 -20 -13 -30 -18c-6 -3 -12 -5 -20 -8l3 -13c20 6 28 7 44 7c111 0 192 -89 192 -209c0 -159 -134 -276 -317 -276c-180 0 -309 115 -309 275c0 73 29 146 81 205c21 23 45 46 72 69zM343 171c47 0 82 37 82 88
c0 44 -31 75 -75 75c-45 0 -83 -39 -83 -86c0 -46 31 -77 76 -77z" />
    <glyph glyph-name="seven" unicode="7" horiz-adv-x="707" 
d="M131 667h637l-444 -667h-275l260 372c36 52 56 75 88 101l-3 7c-21 -6 -30 -7 -41 -7h-32h-214z" />
    <glyph glyph-name="eight" unicode="8" horiz-adv-x="707" 
d="M539 338l-1 -8c79 -18 116 -60 116 -132c0 -123 -126 -215 -297 -215c-176 0 -310 97 -310 223c0 87 55 143 148 151l2 8c-62 18 -93 57 -93 120c0 114 117 198 276 198c163 0 289 -87 289 -201c0 -43 -16 -79 -47 -106c-23 -20 -40 -28 -83 -38zM384 412
c31 0 55 24 55 54s-24 54 -54 54s-54 -24 -54 -54s24 -54 53 -54zM351 145c38 0 69 30 69 67c0 40 -29 70 -68 70s-70 -30 -70 -68s31 -69 69 -69z" />
    <glyph glyph-name="nine" unicode="9" horiz-adv-x="707" 
d="M387 0h-328l150 121c46 36 75 55 107 69l-5 11c-24 -6 -34 -7 -50 -7c-113 0 -200 92 -200 213c0 160 137 276 325 276c176 0 304 -114 304 -273c0 -64 -24 -136 -63 -185c-19 -24 -44 -49 -75 -77zM372 324c46 0 86 43 86 93c0 44 -32 76 -76 76c-48 0 -86 -39 -86 -88
c0 -47 32 -81 76 -81z" />
    <glyph glyph-name="colon" unicode=":" horiz-adv-x="355" 
d="M197 493c72 0 129 -49 129 -111c0 -64 -59 -114 -135 -114c-73 0 -128 46 -128 107c0 64 62 118 134 118zM164 211c72 0 129 -49 129 -111c0 -63 -59 -113 -135 -113c-73 0 -128 46 -128 106c0 64 62 118 134 118z" />
    <glyph glyph-name="semicolon" unicode=";" horiz-adv-x="344" 
d="M75 183h233l-187 -343h-178zM225 493c72 0 129 -49 129 -111c0 -64 -60 -114 -135 -114c-73 0 -128 46 -128 107c0 64 61 118 134 118z" />
    <glyph glyph-name="less" unicode="&#x3c;" 
d="M33 389l433 220v-128l-296 -147l295 -148l1 -128l-433 222v109z" />
    <glyph glyph-name="equal" unicode="=" 
d="M47 370v113h433v-113h-433zM47 197v113h433v-113h-433z" />
    <glyph glyph-name="greater" unicode="&#x3e;" 
d="M493 279l-433 -221v129l296 147l-295 147l-1 128l433 -221v-109z" />
    <glyph glyph-name="question" unicode="?" horiz-adv-x="618" 
d="M241 267l21 152c13 -5 27 -8 44 -8c25 0 46 5 60 16c9 7 23 22 23 48c0 11 -2 24 -13 34c-9 8 -21 12 -32 12c-15 0 -28 -7 -35 -16c-10 -12 -12 -31 -12 -44h-224c9 71 43 119 70 146c62 63 141 75 206 75c68 0 146 -13 206 -74c41 -42 57 -90 57 -141
c0 -63 -25 -111 -55 -141c-51 -52 -128 -68 -221 -68c-34 0 -63 2 -95 9zM299 212c85 0 130 -63 130 -116c0 -65 -63 -109 -133 -109c-83 0 -131 58 -131 111s48 114 134 114z" />
    <glyph glyph-name="at" unicode="@" horiz-adv-x="732" 
d="M446 352c0 4 -1 27 -13 41c-8 9 -21 16 -35 16c-18 0 -39 -8 -55 -23c-23 -20 -41 -58 -41 -93c0 -17 5 -31 14 -41c8 -9 19 -16 34 -16c16 0 36 8 50 19c26 21 46 66 46 97zM488 454l11 38h89l-59 -190c-6 -18 -10 -31 -10 -44c0 -6 1 -13 7 -18c3 -3 9 -5 17 -5
c12 0 21 5 30 12c48 38 63 116 63 157c0 55 -22 102 -56 135c-23 22 -69 55 -144 55s-156 -33 -210 -85c-52 -50 -91 -131 -91 -213c0 -65 25 -124 62 -160c34 -33 90 -62 177 -62c57 0 122 10 183 34l11 -86c-61 -22 -126 -34 -200 -34c-79 0 -169 15 -238 81
c-50 48 -87 125 -87 221c0 76 24 181 119 273c76 73 175 115 281 115c104 0 171 -42 213 -88c45 -49 65 -107 65 -173c0 -79 -26 -162 -78 -212c-35 -34 -79 -51 -117 -51c-23 0 -48 7 -63 21c-8 8 -15 19 -18 33c-15 -18 -32 -33 -52 -44c-25 -14 -47 -19 -74 -19
c-42 0 -69 18 -85 34c-19 19 -37 52 -37 98c0 55 20 113 67 162c51 52 103 63 138 63c10 0 34 -1 54 -13c13 -8 25 -21 32 -35z" />
    <glyph glyph-name="A" unicode="A" horiz-adv-x="708" 
d="M428 89h-164l-32 -89h-260l308 667h276l124 -667h-247zM365 362l-45 -121h92l-10 121c-1 11 -2 28 -2 47c0 24 1 31 3 53h-8c-9 -39 -15 -61 -30 -100z" />
    <glyph glyph-name="B" unicode="B" horiz-adv-x="681" 
d="M530 348l1 -6c70 -15 109 -67 109 -143c0 -118 -96 -199 -227 -199h-374l82 667h299c107 0 171 -31 204 -98c11 -24 17 -51 17 -72c0 -79 -40 -133 -111 -149zM367 507h-34l-12 -96h21c52 0 75 15 75 52c0 30 -18 44 -50 44zM345 271h-41l-14 -115h16c71 0 102 18 102 69
c0 32 -19 46 -63 46z" />
    <glyph glyph-name="C" unicode="C" horiz-adv-x="582" 
d="M415 683c58 0 115 -10 173 -31l-20 -237c-45 36 -86 52 -133 52c-80 0 -147 -68 -147 -148c0 -68 56 -120 129 -120c50 0 90 18 131 57l-29 -243c-65 -22 -104 -30 -152 -30c-185 0 -320 140 -320 331c0 212 157 369 368 369z" />
    <glyph glyph-name="D" unicode="D" horiz-adv-x="744" 
d="M39 0l82 667h226c235 0 375 -121 375 -323c0 -106 -44 -201 -122 -263c-74 -59 -154 -81 -294 -81h-267zM368 471h-30l-33 -273h34c80 0 144 67 144 152c0 70 -49 121 -115 121z" />
    <glyph glyph-name="E" unicode="E" horiz-adv-x="549" 
d="M121 667h438l-21 -174h-197l-9 -73h180l-20 -165h-180l-9 -76h204l-22 -179h-446z" />
    <glyph glyph-name="F" unicode="F" horiz-adv-x="523" 
d="M121 667h426l-22 -178h-184l-9 -73h172l-22 -176h-172l-29 -240h-242z" />
    <glyph glyph-name="G" unicode="G" horiz-adv-x="807" 
d="M418 388h365v-6c0 -90 -20 -212 -110 -301c-83 -82 -178 -98 -267 -98c-93 0 -181 17 -261 96c-47 46 -98 122 -98 238c0 99 38 191 102 256c43 44 135 111 294 111c142 0 248 -51 319 -169l-227 -89c-11 22 -36 56 -89 56c-41 0 -77 -15 -102 -38
c-32 -30 -55 -80 -55 -137c0 -43 14 -77 38 -102c27 -28 58 -36 94 -36c26 0 85 6 107 73h-130z" />
    <glyph glyph-name="H" unicode="H" horiz-adv-x="760" 
d="M505 667h242l-82 -667h-242l30 243h-143l-29 -243h-242l82 667h242l-28 -228h142z" />
    <glyph glyph-name="I" unicode="I" horiz-adv-x="379" 
d="M121 667h245l-82 -667h-245z" />
    <glyph glyph-name="J" unicode="J" horiz-adv-x="456" 
d="M201 667h242l-55 -447c-7 -58 -16 -123 -66 -174c-51 -52 -120 -63 -177 -63c-95 0 -148 29 -179 52l78 216c6 -15 16 -30 25 -41c11 -13 21 -19 39 -19c10 0 21 2 30 14c3 5 8 15 12 46z" />
    <glyph glyph-name="K" unicode="K" horiz-adv-x="732" 
d="M121 667h242l-22 -173c-4 -32 -11 -75 -21 -116l7 -2c14 36 27 62 42 85l23 37l106 169h282l-260 -338l170 -329h-255l-85 192c-18 41 -25 61 -34 98l-7 -1v-20c0 -21 -2 -54 -5 -77l-23 -192h-242z" />
    <glyph glyph-name="L" unicode="L" horiz-adv-x="530" 
d="M121 667h245l-57 -466l205 6l-25 -207h-450z" />
    <glyph glyph-name="M" unicode="M" horiz-adv-x="948" 
d="M623 667h255l2 -667h-235l13 197c4 71 10 114 23 185l-9 2l-5 -19c-17 -68 -25 -94 -54 -163l-85 -202h-152l-26 211c-2 12 -3 29 -5 50c-2 25 -3 45 -3 60v13c0 18 0 27 2 50h-8l-2 -15c-8 -62 -13 -92 -28 -158l-49 -211h-245l194 667h256l26 -208c3 -24 5 -48 5 -74
c0 -30 -1 -44 -6 -73h10c12 62 26 108 59 190z" />
    <glyph glyph-name="N" unicode="N" horiz-adv-x="812" 
d="M554 667h245l-82 -667h-234l-116 230c-24 49 -39 87 -53 135l-4 12h-8c3 -30 4 -52 4 -80c0 -26 -1 -50 -3 -67l-21 -230h-243l82 667h243l118 -251c15 -32 26 -61 42 -118l6 -22l10 1l-2 22c-3 37 -5 64 -5 92c0 27 1 53 4 79z" />
    <glyph glyph-name="O" unicode="O" horiz-adv-x="808" 
d="M675 591c73 -60 111 -147 111 -252c0 -202 -157 -356 -365 -356c-211 0 -373 148 -373 341c0 202 162 359 368 359c96 0 189 -33 259 -92zM410 193c76 0 132 61 132 142c0 71 -51 127 -118 127c-73 0 -132 -63 -132 -140c0 -74 50 -129 118 -129z" />
    <glyph glyph-name="P" unicode="P" horiz-adv-x="665" 
d="M398 203h-92l-25 -203h-242l82 667h278c91 0 146 -15 192 -51c53 -42 84 -107 84 -177c0 -63 -27 -128 -70 -170c-49 -47 -108 -66 -207 -66zM366 493h-25l-15 -124h22c61 0 92 24 92 71c0 39 -19 53 -74 53z" />
    <glyph glyph-name="Q" unicode="Q" horiz-adv-x="811" 
d="M720 139c-7 -8 -16 -16 -26 -25l87 -131l-203 -65l-44 91c-55 -21 -79 -26 -131 -26c-84 0 -164 27 -228 77c-85 65 -126 152 -126 264c0 206 160 359 374 359c100 0 186 -31 257 -93c77 -68 111 -145 111 -255c0 -86 -22 -147 -71 -196zM373 275l170 18c3 19 5 33 5 44
c0 67 -57 125 -122 125c-74 0 -134 -68 -134 -152c0 -73 52 -130 120 -130c7 0 17 1 30 3z" />
    <glyph glyph-name="R" unicode="R" horiz-adv-x="701" 
d="M607 300c-30 -24 -49 -32 -99 -39l145 -261h-262l-60 161c-10 28 -21 64 -26 89l-7 -1c1 -22 1 -31 1 -49c0 -30 -2 -63 -5 -88l-13 -112h-242l82 667h265c109 0 160 -14 210 -54c49 -41 78 -103 78 -166c0 -58 -25 -113 -67 -147zM360 488h-19l-15 -120h20
c56 0 91 26 91 66c0 37 -24 54 -77 54z" />
    <glyph glyph-name="S" unicode="S" horiz-adv-x="607" 
d="M556 636c10 -5 24 -12 42 -22l-89 -177c-42 38 -94 60 -146 60c-26 0 -46 -15 -46 -35c0 -21 12 -28 73 -43c46 -12 84 -27 108 -44c45 -30 73 -88 73 -149c0 -134 -130 -243 -291 -243c-62 0 -137 18 -202 48c-14 7 -35 17 -62 32l90 180c40 -49 104 -79 167 -79
c34 0 56 15 56 39c0 23 -19 37 -63 47c-46 9 -71 17 -95 30c-63 31 -96 87 -96 164c0 133 122 239 274 239c68 0 140 -16 207 -47z" />
    <glyph glyph-name="T" unicode="T" horiz-adv-x="480" 
d="M60 667h467l-26 -210l-106 7l-57 -464h-245l57 464l-115 -7z" />
    <glyph glyph-name="U" unicode="U" horiz-adv-x="758" 
d="M500 667h245l-45 -369c-18 -142 -34 -183 -93 -237c-59 -53 -131 -78 -226 -78c-97 0 -178 25 -236 72c-53 43 -75 95 -75 175c0 18 1 35 3 53l48 384h245l-45 -369c-3 -24 -5 -41 -5 -49c0 -40 22 -62 60 -62c46 0 68 29 78 102z" />
    <glyph glyph-name="V" unicode="V" horiz-adv-x="694" 
d="M474 667h274l-334 -667h-210l-150 667h253l26 -210c4 -31 6 -64 6 -99c0 -29 -1 -50 -4 -89l10 -1c10 84 26 148 52 211z" />
    <glyph glyph-name="W" unicode="W" horiz-adv-x="1040" 
d="M820 667h274l-320 -667h-204l-30 215c-5 34 -8 76 -8 110c0 11 0 15 1 28l-9 1l-3 -11c-8 -39 -18 -77 -27 -100l-22 -60l-68 -183h-216l-134 667h250l22 -259c2 -29 4 -59 4 -88c0 -18 -1 -28 -2 -53h10l3 19c7 54 21 105 42 164l81 217h199l28 -254c5 -46 7 -78 7 -120
c0 -7 0 -13 -1 -27h10c10 92 15 115 41 189z" />
    <glyph glyph-name="X" unicode="X" horiz-adv-x="740" 
d="M765 667l-253 -321l200 -346h-261l-51 109c-12 25 -18 41 -27 76h-8c-8 -26 -12 -35 -22 -52l-14 -24l-64 -109h-293l278 356l-181 311h273l32 -84c11 -29 17 -47 20 -68h6c7 21 22 54 32 73l41 79h292z" />
    <glyph glyph-name="Y" unicode="Y" horiz-adv-x="684" 
d="M745 667l-281 -384l-35 -283h-240l36 289l-178 378h265l34 -109c8 -25 11 -42 13 -76h9c6 22 13 40 24 63l62 122h291z" />
    <glyph glyph-name="Z" unicode="Z" horiz-adv-x="633" 
d="M435 194l181 4l-24 -198h-607l8 60l233 328c35 48 49 64 72 78l-3 8c-29 -9 -47 -11 -87 -13l-153 -4l26 210h582l-8 -59l-247 -348c-32 -44 -41 -54 -65 -71l4 -8c33 10 40 11 88 13z" />
    <glyph glyph-name="bracketleft" unicode="[" horiz-adv-x="430" 
d="M325 646l-93 -756h130l-10 -83h-132h-198l113 922h330l-10 -83h-130z" />
    <glyph glyph-name="backslash" unicode="\" horiz-adv-x="740" 
d="M-82 -193l631 922h173l-632 -922h-172z" />
    <glyph glyph-name="bracketright" unicode="]" horiz-adv-x="430" 
d="M115 -110l93 756h-130l10 83h330l-113 -922h-200h-130l10 83h130z" />
    <glyph glyph-name="asciicircum" unicode="^" 
d="M263 549l-101 -219h-144l160 337h170l161 -337h-144z" />
    <glyph glyph-name="underscore" unicode="_" 
d="M-30 -196v150h500v-150h-500z" />
    <glyph glyph-name="grave" unicode="`" 
d="M161 669l117 73l115 -146l-86 -55z" />
    <glyph glyph-name="a" unicode="a" horiz-adv-x="652" 
d="M403 467h230l-58 -467h-229c7 32 10 40 25 83l-7 3c-40 -70 -82 -99 -144 -99c-105 0 -195 100 -195 218c0 148 110 278 234 278c74 0 114 -28 141 -100l8 3c-4 33 -5 45 -5 71v10zM316 164c37 0 65 32 65 74c0 35 -23 61 -55 61c-36 0 -67 -35 -67 -76
c0 -34 24 -59 57 -59z" />
    <glyph glyph-name="b" unicode="b" horiz-adv-x="639" 
d="M110 729h231l-28 -228c-5 -37 -14 -73 -28 -112l6 -4c30 67 74 98 137 98c106 0 185 -100 185 -233c0 -147 -98 -263 -223 -263c-65 0 -112 30 -144 94l-7 -2c4 -25 5 -34 5 -60v-19h-224zM324 164c35 0 61 31 61 74c0 37 -23 63 -55 63c-34 0 -62 -32 -62 -73
c0 -36 24 -64 56 -64z" />
    <glyph glyph-name="c" unicode="c" horiz-adv-x="437" 
d="M300 493c46 0 74 -5 139 -26l-29 -196c-25 29 -49 42 -82 42c-44 0 -73 -32 -73 -80c0 -43 26 -69 68 -69c29 0 52 10 78 33l-34 -192c-50 -15 -70 -18 -105 -18c-138 0 -235 96 -235 233c0 163 110 273 273 273z" />
    <glyph glyph-name="d" unicode="d" horiz-adv-x="643" 
d="M426 729h231l-90 -729h-231c8 32 11 43 23 78l-8 4c-28 -63 -76 -95 -140 -95c-107 0 -185 93 -185 220c0 152 100 276 222 276c71 0 116 -33 140 -102l9 2c-3 18 -4 25 -4 35c0 29 3 71 7 101zM311 169c34 0 59 29 62 70v5c0 36 -22 60 -55 60c-35 0 -63 -32 -63 -73
c0 -34 25 -62 56 -62z" />
    <glyph glyph-name="e" unicode="e" horiz-adv-x="618" 
d="M587 202h-331c-1 -6 -1 -12 -1 -17c0 -38 20 -63 51 -63c24 0 39 12 50 40h222c-18 -53 -31 -74 -65 -104c-54 -47 -124 -71 -205 -71c-166 0 -280 98 -280 242c0 151 124 265 288 265c154 0 275 -107 275 -244c0 -11 -2 -27 -4 -48zM322 360c-32 0 -50 -19 -57 -62h108
c-1 42 -17 62 -51 62z" />
    <glyph glyph-name="f" unicode="f" horiz-adv-x="382" 
d="M372 288l-66 6l-36 -294h-231l36 294l-60 -6l23 183l57 -10l10 81c10 81 44 123 61 140c29 29 79 58 165 58c37 0 70 -5 101 -14l-22 -177c-9 4 -21 8 -29 8c-11 0 -24 -6 -31 -13c-11 -11 -16 -31 -19 -55l-4 -28l67 6z" />
    <glyph glyph-name="g" unicode="g" horiz-adv-x="644" 
d="M397 467h228l-52 -421c-13 -110 -38 -163 -97 -207c-57 -44 -135 -68 -221 -68c-65 0 -148 16 -213 41c-7 2 -17 6 -30 12l62 152c59 -36 100 -50 150 -50c49 0 92 22 111 57c11 22 15 36 28 100l-7 2c-30 -65 -67 -88 -136 -88c-111 0 -193 94 -193 221
c0 148 101 265 229 265c70 0 114 -29 138 -95l7 2l-2 27l-1 34zM312 163c38 0 65 29 65 69c0 38 -23 66 -55 66c-37 0 -67 -33 -67 -73c0 -37 24 -62 57 -62z" />
    <glyph glyph-name="h" unicode="h" horiz-adv-x="632" 
d="M110 729h231l-26 -211c-7 -58 -14 -89 -25 -125l9 -3c35 61 86 93 148 93c83 0 147 -65 147 -149c0 -16 -1 -33 -4 -53l-34 -281h-232l28 226c2 13 3 25 3 31c0 23 -10 35 -30 35c-30 0 -41 -17 -48 -74l-26 -218h-231z" />
    <glyph glyph-name="i" unicode="i" horiz-adv-x="332" 
d="M217 747c70 0 129 -51 129 -109c0 -63 -58 -113 -134 -113c-71 0 -127 47 -127 107c0 61 61 115 132 115zM81 467h231l-57 -467h-231z" />
    <glyph glyph-name="j" unicode="j" horiz-adv-x="341" 
d="M90 467h231l-89 -696h-231zM225 747c70 0 130 -51 130 -109c0 -63 -59 -113 -135 -113c-71 0 -127 47 -127 107c0 61 61 115 132 115z" />
    <glyph glyph-name="k" unicode="k" horiz-adv-x="650" 
d="M110 729h231l-34 -279c-5 -40 -18 -118 -29 -175l7 -1c15 39 25 56 61 109l57 84h275l-201 -241l134 -226h-256l-42 91c-23 50 -31 72 -40 114l-9 -1c2 -26 3 -37 3 -57c0 -15 -1 -28 -2 -39l-14 -108h-231z" />
    <glyph glyph-name="l" unicode="l" horiz-adv-x="327" 
d="M110 729h231l-90 -729h-231z" />
    <glyph glyph-name="m" unicode="m" horiz-adv-x="903" 
d="M77 467h225c-6 -29 -7 -35 -21 -77l11 -2c40 69 80 95 148 95c69 0 109 -32 120 -98h8c25 65 74 98 144 98c93 0 153 -59 153 -151c0 -18 -2 -40 -5 -65l-33 -267h-225l29 236c3 22 3 26 3 29c0 20 -11 35 -27 35c-27 0 -36 -15 -43 -79l-28 -221h-225l28 230l4 25v11
c0 20 -10 33 -26 33c-27 0 -37 -16 -44 -72l-28 -227h-225z" />
    <glyph glyph-name="n" unicode="n" horiz-adv-x="633" 
d="M77 467h232c-7 -39 -10 -50 -23 -83l8 -2c47 74 87 102 147 102c88 0 153 -65 153 -152c0 -20 -2 -43 -5 -71l-32 -261h-232l28 226c2 13 3 25 3 31c0 23 -10 35 -30 35c-31 0 -41 -16 -48 -74l-27 -218h-231z" />
    <glyph glyph-name="o" unicode="o" horiz-adv-x="637" 
d="M320 493c175 0 291 -99 291 -249c0 -147 -125 -257 -290 -257c-169 0 -292 105 -292 249c0 148 124 257 291 257zM318 169c37 0 64 32 64 75c0 38 -25 66 -58 66c-36 0 -66 -34 -66 -75c0 -38 25 -66 60 -66z" />
    <glyph glyph-name="p" unicode="p" horiz-adv-x="645" 
d="M82 467h232c-6 -30 -8 -39 -19 -71l9 -4c37 67 71 92 131 92c103 0 185 -104 185 -233c0 -142 -99 -264 -214 -264c-73 0 -125 34 -146 96l-8 -3c2 -27 3 -40 3 -57c0 -24 -2 -49 -5 -77l-22 -175h-232zM331 163c36 0 61 31 61 75c0 37 -23 64 -54 64
c-34 0 -62 -35 -62 -77c0 -37 22 -62 55 -62z" />
    <glyph glyph-name="q" unicode="q" horiz-adv-x="637" 
d="M383 467h236l-86 -696h-231l24 195c5 40 16 81 32 119l-9 4c-27 -66 -78 -102 -142 -102c-104 0 -182 95 -182 222c0 148 103 274 223 274c67 0 110 -31 137 -98l9 3c-8 31 -9 42 -11 79zM308 169c35 0 63 31 63 71c0 38 -22 63 -54 63c-36 0 -63 -31 -63 -71
c0 -37 23 -63 54 -63z" />
    <glyph glyph-name="r" unicode="r" horiz-adv-x="430" 
d="M425 484c8 0 15 -1 29 -4l-28 -230c-25 13 -36 17 -54 17c-57 0 -91 -44 -102 -130l-17 -137h-233l57 467h234c-7 -33 -10 -44 -26 -83l10 -5c43 78 78 105 130 105z" />
    <glyph glyph-name="s" unicode="s" horiz-adv-x="476" 
d="M271 493c63 0 124 -13 198 -42l-57 -141c-34 25 -72 39 -108 39c-26 0 -40 -8 -40 -24c0 -15 8 -22 27 -26l42 -10c70 -15 112 -64 112 -128c0 -102 -95 -174 -230 -174c-55 0 -104 10 -167 34c-11 5 -27 11 -48 20l56 141c50 -33 96 -49 137 -49c23 0 37 9 37 25
c0 17 -13 27 -52 36c-94 22 -127 55 -127 122c0 102 93 177 220 177z" />
    <glyph glyph-name="t" unicode="t" horiz-adv-x="353" 
d="M362 288l-56 6l-36 -294h-231l36 294l-60 -6l23 183l57 -10l21 164h231l-20 -164l57 6z" />
    <glyph glyph-name="u" unicode="u" horiz-adv-x="633" 
d="M383 467h232l-32 -257c-11 -88 -29 -127 -77 -166c-50 -39 -111 -57 -191 -57c-171 0 -269 72 -269 199c0 16 1 34 3 54l28 227h232l-28 -227c-3 -23 -4 -37 -4 -41c0 -20 14 -35 34 -35c28 0 37 14 43 67z" />
    <glyph glyph-name="v" unicode="v" horiz-adv-x="565" 
d="M344 467h260l-271 -467h-195l-119 467h232l11 -138c1 -18 2 -34 2 -51c0 -18 -1 -32 -3 -65h9c7 49 18 95 30 130z" />
    <glyph glyph-name="w" unicode="w" horiz-adv-x="826" 
d="M609 467h256l-247 -467h-188l-11 85c-7 54 -9 77 -9 112c0 8 1 20 1 35l-8 2c-18 -69 -26 -96 -36 -121l-47 -113h-186l-115 467h235l11 -120c2 -18 3 -37 3 -56c0 -22 -1 -37 -3 -77l10 -1c6 34 9 47 14 66c2 4 6 18 13 41l47 147h165l19 -135c4 -32 7 -69 9 -116h9
c4 49 6 64 23 124z" />
    <glyph glyph-name="x" unicode="x" horiz-adv-x="633" 
d="M374 467h282l-211 -234l162 -233h-255l-20 43c-11 24 -15 37 -17 59l-7 1c-5 -15 -8 -20 -25 -48l-35 -55h-278l217 246l-155 221h263l16 -49c5 -15 7 -23 9 -44l9 1c4 14 10 29 18 43z" />
    <glyph glyph-name="y" unicode="y" horiz-adv-x="591" 
d="M381 467h249l-363 -696h-248l88 169c30 52 37 63 65 96l-141 431h238l20 -130c6 -37 7 -53 7 -75c0 -14 0 -24 -2 -48l10 -1c11 58 18 87 34 131z" />
    <glyph glyph-name="z" unicode="z" horiz-adv-x="515" 
d="M62 467h461l-4 -30l-144 -204c-17 -24 -37 -42 -57 -56l4 -11c18 9 29 11 58 11h107l-22 -177h-472l4 35l139 207c26 33 35 43 58 57l-5 9c-20 -11 -38 -15 -64 -15h-84z" />
    <glyph glyph-name="braceleft" unicode="{" horiz-adv-x="503" 
d="M324 420c-11 -95 -26 -120 -78 -153c35 -26 46 -47 46 -91c0 -11 -1 -25 -2 -36l-15 -123l-4 -37c-1 -8 -1 -14 -1 -20c0 -29 15 -37 74 -37c5 0 10 0 20 1l-14 -115l-34 -1l-32 -1h-12c-97 0 -136 31 -136 110c0 10 0 21 4 59l19 155c1 8 2 19 2 28c0 34 -14 51 -46 58
l13 110c32 6 51 21 57 45l6 23l4 35l19 154c13 104 60 145 170 145c4 0 8 -1 12 -1l32 -1l33 -1l-14 -114h-21c-67 0 -79 -8 -85 -57l-2 -12z" />
    <glyph glyph-name="bar" unicode="|" horiz-adv-x="674" 
d="M630 -193h-162l-402 922h163z" />
    <glyph glyph-name="braceright" unicode="}" horiz-adv-x="503" 
d="M208 141c8 68 23 93 75 127c-36 25 -46 46 -46 91c0 11 1 25 2 35l18 149l1 12c1 8 2 15 2 21c0 29 -16 36 -74 36h-20l14 114l34 1l32 1c4 0 7 1 11 1c98 0 137 -32 137 -110c0 -10 -1 -22 -2 -35l-22 -180c-1 -8 -2 -20 -2 -28c0 -35 14 -52 46 -58l-13 -110
c-32 -7 -51 -22 -57 -46l-6 -23l-2 -7l-22 -181c-13 -104 -60 -144 -169 -144h-12l-32 1l-33 1l14 115c10 -1 15 -1 21 -1c66 0 79 9 85 57l2 12z" />
    <glyph glyph-name="asciitilde" unicode="~" 
d="M158 256c-34 0 -48 -12 -73 -61l-71 47l7 17c35 86 76 122 144 122c24 0 53 -7 104 -26c59 -22 65 -23 86 -23c33 0 48 11 72 51l73 -43c-34 -73 -54 -97 -94 -118c-21 -10 -42 -16 -65 -16c-21 0 -40 6 -102 28c-55 19 -65 22 -81 22z" />
    <glyph glyph-name="uni00A0" unicode="&#xa0;" horiz-adv-x="233" 
 />
    <glyph glyph-name="exclamdown" unicode="&#xa1;" horiz-adv-x="411" 
d="M277 -230h-242l50 405h242zM236 226c-75 0 -134 49 -134 112c0 62 59 111 131 111s133 -51 133 -114c0 -62 -56 -109 -130 -109z" />
    <glyph glyph-name="cent" unicode="&#xa2;" horiz-adv-x="707" 
d="M504 670l-10 -84c24 -2 48 -8 71 -19l-28 -193c-14 18 -40 41 -79 41c-23 0 -39 -7 -53 -21c-19 -20 -21 -42 -21 -53c0 -15 7 -35 19 -46s35 -18 52 -18c31 0 60 16 79 34l-34 -191c-23 -10 -45 -16 -66 -18l-12 -92h-104l12 92c-30 6 -67 19 -103 53
c-38 36 -69 92 -69 174c0 75 30 146 77 192c36 35 92 64 160 70l9 79h100z" />
    <glyph glyph-name="sterling" unicode="&#xa3;" horiz-adv-x="707" 
d="M474 162h126c-2 -44 -20 -98 -53 -131c-39 -39 -90 -44 -131 -44c-39 0 -67 4 -105 20l-39 16c-17 7 -34 16 -54 16c-16 0 -31 -6 -40 -15c-6 -6 -11 -15 -14 -24h-113c4 46 21 84 40 111c25 35 55 54 84 65c8 23 6 46 7 67h-120l15 110h83c-20 53 -20 97 -20 105
c0 56 21 110 63 152c45 45 106 72 188 72c66 0 133 -19 174 -59c31 -31 51 -77 51 -136c0 -18 -2 -38 -6 -59h-154c2 8 3 20 3 32c0 20 -4 41 -18 56c-14 14 -30 17 -43 17c-26 0 -43 -10 -53 -20c-14 -14 -22 -34 -22 -58c0 -36 13 -45 18 -102h133l-15 -110h-118
c0 -29 -4 -57 -20 -81c54 -24 78 -37 105 -37c9 0 23 1 33 10c7 6 12 17 15 27z" />
    <glyph glyph-name="currency" unicode="&#xa4;" horiz-adv-x="667" 
d="M109 67l-70 70l103 103c-30 44 -44 89 -44 138c0 50 13 91 44 137l-104 104l71 71l104 -104c47 31 88 44 140 44c50 0 90 -13 137 -43l103 102l70 -70l-102 -102c33 -52 45 -90 45 -140c0 -49 -12 -89 -43 -136l103 -103l-70 -71l-103 103c-46 -31 -91 -45 -142 -45
c-49 0 -89 12 -140 44zM488 377c0 76 -61 137 -136 137s-136 -61 -136 -137c0 -75 61 -136 136 -136s136 61 136 136z" />
    <glyph glyph-name="yen" unicode="&#xa5;" horiz-adv-x="707" 
d="M456 247h206l-13 -108h-206l-17 -139h-240l17 139h-196l13 108h196l6 42l-24 50h-167l14 108h102l-103 220h265l34 -109c7 -25 10 -42 13 -76h8c6 22 13 39 25 63l61 122h291l-160 -220h106l-14 -108h-171l-41 -56z" />
    <glyph glyph-name="brokenbar" unicode="&#xa6;" 
d="M188 337v413h130v-413h-130zM188 -250v413h130v-413h-130z" />
    <glyph glyph-name="section" unicode="&#xa7;" horiz-adv-x="707" 
d="M655 541c0 -6 0 -15 -1 -28h-170v11c0 49 -31 80 -79 80c-38 0 -62 -20 -62 -50c0 -31 20 -50 73 -69l47 -16c71 -25 110 -51 138 -93c19 -29 29 -63 29 -90c0 -64 -41 -125 -108 -152c36 -44 49 -77 49 -131c0 -124 -94 -196 -254 -196c-170 0 -267 74 -275 211h189v-7
c0 -43 34 -75 80 -75c39 0 63 21 63 57s-23 56 -86 76c-93 29 -111 37 -142 67c-35 27 -52 75 -52 121c0 64 32 112 106 151c-37 41 -53 80 -53 132c0 117 102 189 266 189c86 0 136 -15 180 -53c38 -34 62 -86 62 -135zM432 271c0 38 -29 66 -70 66c-45 0 -77 -27 -77 -66
s31 -68 71 -68c42 0 76 30 76 68z" />
    <glyph glyph-name="dieresis" unicode="&#xa8;" 
d="M75 642c0 57 46 103 102 103c57 0 103 -46 103 -103c0 -56 -46 -102 -103 -102c-56 0 -102 46 -102 102zM322 642c0 57 46 103 102 103c57 0 103 -46 103 -103c0 -56 -46 -102 -103 -102c-56 0 -102 46 -102 102z" />
    <glyph glyph-name="copyright" unicode="&#xa9;" horiz-adv-x="760" 
d="M46 334c0 192 156 348 349 348c190 0 345 -157 345 -349s-155 -348 -346 -348c-192 0 -348 156 -348 349zM660 334c0 152 -119 275 -266 275c-148 0 -268 -123 -268 -276c0 -152 120 -276 268 -276c147 0 266 124 266 277zM526 303l-3 -158c-27 -11 -68 -18 -112 -18
c-119 0 -212 89 -212 203c0 117 95 209 215 209c39 0 71 -5 105 -15c1 -1 2 -1 4 -2l3 -160l-10 8c-31 23 -54 32 -79 32c-40 0 -72 -30 -72 -68c0 -39 33 -69 74 -69c28 0 49 7 77 29z" />
    <glyph glyph-name="ordfeminine" unicode="&#xaa;" horiz-adv-x="381" 
d="M249 427h-4c-9 -11 -21 -22 -33 -29c-19 -11 -42 -12 -56 -12c-24 0 -50 5 -72 25c-20 18 -36 50 -36 93c0 44 18 93 49 124c28 28 60 39 98 39c18 0 33 -3 48 -12c11 -7 20 -16 27 -27c-1 3 -1 9 -1 14v5l2 12h141l-33 -266h-140l1 9c1 8 6 19 9 25zM364 267h-339l11 92
h339zM192 520c0 -7 3 -14 7 -18c1 -1 9 -8 24 -8c12 0 22 5 27 11c7 7 10 17 10 26c0 10 -5 17 -9 21c-5 4 -13 7 -22 7c-16 0 -25 -9 -29 -14c-5 -7 -8 -17 -8 -25z" />
    <glyph glyph-name="guillemotleft" unicode="&#xab;" horiz-adv-x="543" 
d="M275 67l-96 -62l-144 222l192 230l85 -71l-142 -161zM486 67l-96 -62l-144 222l192 230l85 -71l-142 -161z" />
    <glyph glyph-name="logicalnot" unicode="&#xac;" 
d="M455 0h-130v150h-303v117h433v-267z" />
    <glyph glyph-name="uni00AD" unicode="&#xad;" horiz-adv-x="415" 
d="M356 175h-315l23 180h315z" />
    <glyph glyph-name="registered" unicode="&#xae;" horiz-adv-x="772" 
d="M426 -22c-193 0 -352 157 -352 353c0 193 157 351 352 351c194 0 353 -156 353 -351c0 -196 -159 -353 -353 -353zM427 610c-148 0 -273 -129 -273 -280c0 -155 125 -280 273 -280c150 0 272 125 272 280c0 153 -122 280 -272 280zM396 158h-138v353h170
c96 0 154 -47 154 -125c0 -48 -21 -74 -69 -92l5 -6l10 -8l87 -122h-163l-56 102v-102zM395 409v-52h15c22 0 32 9 32 25c0 15 -10 27 -27 27h-20z" />
    <glyph glyph-name="macron" unicode="&#xaf;" 
d="M458 546h-340l12 100h340z" />
    <glyph glyph-name="degree" unicode="&#xb0;" horiz-adv-x="499" 
d="M286 363c-52 0 -89 23 -111 45c-21 21 -45 56 -45 108c0 30 8 70 45 106c32 31 71 45 108 45c43 0 83 -18 110 -44c26 -25 45 -63 45 -107c0 -30 -8 -71 -45 -108c-31 -31 -67 -45 -107 -45zM214 515c0 -37 31 -68 70 -68s70 31 70 68s-31 68 -70 68s-70 -31 -70 -68z
" />
    <glyph glyph-name="plusminus" unicode="&#xb1;" 
d="M38 357v120h151v153h130v-153h152v-120h-152v-154h-130v154h-151zM38 50v120h433v-120h-433z" />
    <glyph glyph-name="twosuperior" unicode="&#xb2;" horiz-adv-x="506" 
d="M436 399h38l-15 -128h-389l146 130c40 35 59 51 77 68c15 14 33 31 33 59c0 10 -3 19 -8 25c-4 4 -11 9 -24 9c-20 0 -29 -11 -33 -17c-6 -9 -9 -26 -10 -36h-143c4 59 32 99 59 123c39 36 87 51 142 51c35 0 82 -5 124 -37c41 -32 53 -71 53 -105s-12 -61 -35 -84
c-25 -25 -70 -49 -105 -63l4 -9c37 12 61 14 86 14z" />
    <glyph glyph-name="threesuperior" unicode="&#xb3;" horiz-adv-x="466" 
d="M383 484v-6c14 -5 29 -14 39 -25c15 -16 21 -36 21 -58c0 -27 -8 -60 -36 -87c-39 -39 -88 -45 -137 -45c-53 0 -118 4 -160 43c-25 23 -44 62 -45 107h148c0 -11 1 -24 8 -31c6 -7 16 -11 28 -11c7 0 19 1 28 11c6 6 10 15 10 24c0 8 -3 18 -10 24s-17 9 -28 9
c-4 0 -8 0 -11 -1l10 83c4 -1 7 -2 11 -2c10 0 20 5 24 10s8 14 8 22s-3 17 -9 23c-5 5 -14 7 -21 7c-8 0 -15 -3 -20 -8c-7 -7 -12 -20 -13 -31h-138c10 60 45 92 56 102c42 36 93 39 136 39c37 0 84 -4 121 -33c34 -26 43 -59 43 -87c0 -22 -7 -41 -23 -57
c-10 -10 -23 -18 -40 -22z" />
    <glyph glyph-name="acute" unicode="&#xb4;" 
d="M231 596l116 146l117 -73l-146 -128z" />
    <glyph glyph-name="mu" unicode="&#xb5;" horiz-adv-x="661" 
d="M219 -230h-223l85 697h232l-34 -278c0 -4 -1 -8 -1 -13c0 -9 2 -19 7 -27s15 -17 35 -17c17 0 31 7 40 16c11 11 15 29 17 43l34 276h232l-57 -467h-223l1 9c0 4 2 13 11 51h-6c-5 -17 -16 -39 -25 -49c-7 -8 -20 -17 -41 -17c-17 0 -29 7 -37 18c-7 10 -14 32 -16 48h-6
c2 -14 3 -32 3 -47c0 -8 0 -16 -1 -23z" />
    <glyph glyph-name="paragraph" unicode="&#xb6;" horiz-adv-x="691" 
d="M302 -95h-122l51 409h-5c-58 0 -103 19 -129 46c-21 21 -39 56 -39 109c0 69 27 111 54 137c50 48 127 61 211 61h348l-14 -110h-70l-80 -652h-122l80 652h-83z" />
    <glyph glyph-name="periodcentered" unicode="&#xb7;" horiz-adv-x="275" 
d="M153 452c76 0 136 -52 136 -117c0 -67 -63 -119 -142 -119c-77 0 -135 48 -135 112c0 67 65 124 141 124z" />
    <glyph glyph-name="cedilla" unicode="&#xb8;" 
d="M118 -180l134 135l106 -76l-140 -129z" />
    <glyph glyph-name="onesuperior" unicode="&#xb9;" horiz-adv-x="320" 
d="M96 674h204l-49 -400h-144l34 276l-61 -4z" />
    <glyph glyph-name="ordmasculine" unicode="&#xba;" horiz-adv-x="396" 
d="M260 667c32 0 78 -4 116 -35c31 -25 42 -56 42 -91c0 -46 -20 -79 -42 -100c-29 -29 -78 -53 -154 -53c-31 0 -83 5 -122 40c-23 21 -38 48 -38 84c0 37 14 73 40 100c24 25 71 55 158 55zM41 359h360l-12 -92h-361zM206 522c0 -11 4 -17 7 -20c5 -5 14 -8 24 -8
c12 0 22 5 27 11c7 7 10 17 10 26c0 10 -5 17 -9 21c-5 4 -13 7 -22 7c-11 0 -19 -4 -25 -9c-7 -6 -12 -16 -12 -28z" />
    <glyph glyph-name="guillemotright" unicode="&#xbb;" horiz-adv-x="544" 
d="M65 395l96 62l141 -222l-192 -230l-84 71l141 159zM278 395l96 62l141 -222l-192 -230l-84 71l141 159z" />
    <glyph glyph-name="onequarter" unicode="&#xbc;" horiz-adv-x="917" 
d="M72 667h204l-49 -400h-144l34 276l-61 -4zM568 667h130l-470 -667h-131zM637 186h43l6 51c2 14 2 24 8 43l-5 3c-21 -26 -27 -33 -32 -38c-35 -36 -41 -45 -58 -59l1 -4c13 3 23 4 37 4zM799 81l-7 -81h-146l14 81l-206 -5l13 106l193 218h181l-26 -214l52 5l-14 -114z
" />
    <glyph glyph-name="onehalf" unicode="&#xbd;" horiz-adv-x="920" 
d="M72 667h204l-49 -400h-144l34 276l-61 -4zM820 128h38l-15 -128h-389l146 130c40 35 59 51 77 68c15 14 33 31 33 59c0 10 -3 19 -8 25c-4 4 -11 9 -24 9c-20 0 -29 -11 -33 -17c-6 -9 -9 -26 -10 -36h-143c4 59 32 99 59 123c39 36 87 51 142 51c35 0 82 -5 124 -37
c41 -32 53 -71 53 -105s-12 -61 -35 -84c-25 -25 -70 -49 -105 -63l4 -9c37 12 61 14 86 14zM568 667h130l-470 -667h-131z" />
    <glyph glyph-name="threequarters" unicode="&#xbe;" horiz-adv-x="1036" 
d="M374 483v-6c14 -5 29 -14 39 -25c15 -16 21 -36 21 -58c0 -27 -8 -60 -36 -87c-43 -43 -100 -45 -143 -45c-46 0 -111 3 -154 43c-25 23 -44 62 -45 107h148c0 -11 1 -24 8 -31c6 -7 16 -11 28 -11c7 0 19 1 28 11c6 6 10 15 10 24c0 8 -3 18 -10 24s-17 9 -28 9
c-4 0 -8 0 -11 -1l10 83c4 -1 7 -2 11 -2c10 0 20 5 24 10s8 14 8 22s-3 17 -9 23c-5 5 -14 7 -21 7c-8 0 -15 -3 -20 -8c-7 -7 -12 -20 -13 -31h-138c10 60 45 92 56 102c38 32 82 39 130 39c43 0 90 -5 127 -33c34 -26 43 -59 43 -87c0 -22 -7 -41 -23 -57
c-10 -10 -23 -18 -40 -22zM703 667h130l-470 -667h-131zM756 186h43l6 51c2 14 2 24 8 43l-5 3c-21 -26 -27 -33 -32 -38c-35 -36 -41 -45 -58 -59l1 -4c13 3 23 4 37 4zM918 81l-7 -81h-146l14 81l-206 -5l13 106l193 218h181l-26 -214l52 5l-14 -114z" />
    <glyph glyph-name="questiondown" unicode="&#xbf;" horiz-adv-x="623" 
d="M391 179l-21 -151c-15 5 -30 8 -48 8s-44 -3 -64 -23c-13 -13 -20 -32 -20 -50c0 -14 5 -25 12 -32c10 -10 24 -12 34 -12c12 0 25 3 35 16c8 11 11 28 11 41h229c-11 -93 -65 -143 -90 -163c-62 -48 -139 -55 -196 -55c-54 0 -140 7 -201 66c-26 25 -57 71 -57 146
c0 80 37 135 92 171c62 41 129 45 198 45c30 0 53 0 86 -7zM334 226c-82 0 -131 57 -131 113c0 53 47 110 132 110c84 0 132 -58 132 -111c0 -55 -52 -112 -133 -112z" />
    <glyph glyph-name="Agrave" unicode="&#xc0;" horiz-adv-x="708" 
d="M428 89h-164l-32 -89h-260l308 667h276l124 -667h-247zM365 362l-45 -121h92l-10 121c-1 11 -2 28 -2 47c0 24 1 31 3 53h-8c-9 -39 -15 -61 -30 -100zM280 843l117 73l126 -137l-86 -55z" />
    <glyph glyph-name="Aacute" unicode="&#xc1;" horiz-adv-x="708" 
d="M428 89h-164l-32 -89h-260l308 667h276l124 -667h-247zM365 362l-45 -121h92l-10 121c-1 11 -2 28 -2 47c0 24 1 31 3 53h-8c-9 -39 -15 -61 -30 -100zM326 779l127 137l117 -73l-157 -119z" />
    <glyph glyph-name="Acircumflex" unicode="&#xc2;" horiz-adv-x="708" 
d="M428 89h-164l-32 -89h-260l308 667h276l124 -667h-247zM365 362l-45 -121h92l-10 121c-1 11 -2 28 -2 47c0 24 1 31 3 53h-8c-9 -39 -15 -61 -30 -100zM295 716l-55 101l187 101l161 -115l-66 -87l-98 70z" />
    <glyph glyph-name="Atilde" unicode="&#xc3;" horiz-adv-x="708" 
d="M428 89h-164l-32 -89h-260l308 667h276l124 -667h-247zM365 362l-45 -121h92l-10 121c-1 11 -2 28 -2 47c0 24 1 31 3 53h-8c-9 -39 -15 -61 -30 -100zM463 829c16 0 23 6 34 28l83 -42c-46 -69 -71 -88 -112 -88c-17 0 -28 3 -58 13l-34 12c-14 4 -21 6 -28 6
c-20 0 -30 -8 -39 -31l-90 28c44 74 82 102 139 102c20 0 30 -2 70 -18c18 -7 27 -10 35 -10z" />
    <glyph glyph-name="Adieresis" unicode="&#xc4;" horiz-adv-x="708" 
d="M428 89h-164l-32 -89h-260l308 667h276l124 -667h-247zM365 362l-45 -121h92l-10 121c-1 11 -2 28 -2 47c0 24 1 31 3 53h-8c-9 -39 -15 -61 -30 -100zM203 833c0 56 44 100 100 100s100 -44 100 -100s-44 -100 -100 -100s-100 44 -100 100zM450 833c0 56 44 100 100 100
s100 -44 100 -100s-44 -100 -100 -100s-100 44 -100 100z" />
    <glyph glyph-name="Aring" unicode="&#xc5;" horiz-adv-x="708" 
d="M428 89h-164l-32 -89h-260l308 667h276l124 -667h-247zM365 362l-45 -121h92l-10 121c-1 11 -2 28 -2 47c0 24 1 31 3 53h-8c-9 -39 -15 -61 -30 -100zM564 826c0 -33 -16 -63 -40 -81c-31 -24 -73 -28 -104 -28c-48 0 -81 10 -103 27c-25 19 -41 50 -41 82
c0 29 13 59 40 80c31 24 73 28 104 28c30 0 74 -4 104 -28c24 -19 40 -50 40 -80zM420 860c-20 0 -30 -5 -35 -8c-11 -7 -15 -17 -15 -28c0 -12 5 -19 15 -25s22 -8 35 -8c8 0 24 1 36 8c10 6 14 14 14 27c0 10 -4 19 -14 26c-10 6 -25 8 -36 8z" />
    <glyph glyph-name="AE" unicode="&#xc6;" horiz-adv-x="920" 
d="M289 667h478l31 -175h-203l12 -71h204l29 -170h-203l13 -70h203l32 -181h-446l-4 88h-165l-32 -88h-259zM375 370l-48 -131h93l-12 131c-1 9 -1 20 -1 32c0 22 1 33 4 57l-11 2c-7 -39 -11 -53 -25 -91z" />
    <glyph glyph-name="Ccedilla" unicode="&#xc7;" horiz-adv-x="582" 
d="M415 683c58 0 115 -10 173 -31l-20 -237c-45 36 -86 52 -133 52c-80 0 -147 -68 -147 -148c0 -68 56 -120 129 -120c50 0 90 18 131 57l-29 -243c-65 -22 -104 -30 -152 -30c-185 0 -320 140 -320 331c0 212 157 369 368 369zM198 -190l152 147l116 -82l-158 -143z" />
    <glyph glyph-name="Egrave" unicode="&#xc8;" horiz-adv-x="549" 
d="M121 667h438l-21 -174h-197l-9 -73h180l-20 -165h-180l-9 -76h204l-22 -179h-446zM200 843l117 73l126 -137l-86 -55z" />
    <glyph glyph-name="Eacute" unicode="&#xc9;" horiz-adv-x="549" 
d="M121 667h438l-21 -174h-197l-9 -73h180l-20 -165h-180l-9 -76h204l-22 -179h-446zM266 779l127 137l117 -73l-157 -119z" />
    <glyph glyph-name="Ecircumflex" unicode="&#xca;" horiz-adv-x="549" 
d="M121 667h438l-21 -174h-197l-9 -73h180l-20 -165h-180l-9 -76h204l-22 -179h-446zM225 716l-55 101l187 101l161 -115l-66 -87l-98 70z" />
    <glyph glyph-name="Edieresis" unicode="&#xcb;" horiz-adv-x="549" 
d="M121 667h438l-21 -174h-197l-9 -73h180l-20 -165h-180l-9 -76h204l-22 -179h-446zM138 833c0 56 44 100 100 100s100 -44 100 -100s-44 -100 -100 -100s-100 44 -100 100zM385 833c0 56 44 100 100 100s100 -44 100 -100s-44 -100 -100 -100s-100 44 -100 100z" />
    <glyph glyph-name="Igrave" unicode="&#xcc;" horiz-adv-x="379" 
d="M121 667h245l-82 -667h-245zM110 843l117 73l126 -137l-86 -55z" />
    <glyph glyph-name="Iacute" unicode="&#xcd;" horiz-adv-x="379" 
d="M121 667h245l-82 -667h-245zM166 779l127 137l117 -73l-157 -119z" />
    <glyph glyph-name="Icircumflex" unicode="&#xce;" horiz-adv-x="379" 
d="M121 667h245l-82 -667h-245zM130 716l-55 101l187 101l161 -115l-66 -87l-98 70z" />
    <glyph glyph-name="Idieresis" unicode="&#xcf;" horiz-adv-x="379" 
d="M121 667h245l-82 -667h-245zM38 833c0 56 44 100 100 100s100 -44 100 -100s-44 -100 -100 -100s-100 44 -100 100zM285 833c0 56 44 100 100 100s100 -44 100 -100s-44 -100 -100 -100s-100 44 -100 100z" />
    <glyph glyph-name="Eth" unicode="&#xd0;" horiz-adv-x="770" 
d="M65 0l34 280h-84l14 120h85l33 267h226c235 0 375 -121 375 -323c0 -106 -44 -201 -122 -263c-74 -59 -154 -81 -294 -81h-267zM394 471h-30l-10 -71h84l-14 -120h-83l-10 -82h34c80 0 144 67 144 152c0 70 -49 121 -115 121z" />
    <glyph glyph-name="Ntilde" unicode="&#xd1;" horiz-adv-x="812" 
d="M554 667h245l-82 -667h-234l-116 230c-24 49 -39 87 -53 135l-4 12h-8c3 -30 4 -52 4 -80c0 -26 -1 -50 -3 -67l-21 -230h-243l82 667h243l118 -251c15 -32 26 -61 42 -118l6 -22l10 1l-2 22c-3 37 -5 64 -5 92c0 27 1 53 4 79zM501 829c16 0 23 6 34 28l83 -42
c-46 -69 -71 -88 -112 -88c-17 0 -28 3 -58 13l-34 12c-14 4 -21 6 -28 6c-20 0 -30 -8 -39 -31l-90 28c44 74 82 102 139 102c20 0 30 -2 70 -18c18 -7 27 -10 35 -10z" />
    <glyph glyph-name="Ograve" unicode="&#xd2;" horiz-adv-x="808" 
d="M675 591c73 -60 111 -147 111 -252c0 -202 -157 -356 -365 -356c-211 0 -373 148 -373 341c0 202 162 359 368 359c96 0 189 -33 259 -92zM410 193c76 0 132 61 132 142c0 71 -51 127 -118 127c-73 0 -132 -63 -132 -140c0 -74 50 -129 118 -129zM280 843l117 73
l126 -137l-86 -55z" />
    <glyph glyph-name="Oacute" unicode="&#xd3;" horiz-adv-x="808" 
d="M675 591c73 -60 111 -147 111 -252c0 -202 -157 -356 -365 -356c-211 0 -373 148 -373 341c0 202 162 359 368 359c96 0 189 -33 259 -92zM410 193c76 0 132 61 132 142c0 71 -51 127 -118 127c-73 0 -132 -63 -132 -140c0 -74 50 -129 118 -129zM346 779l127 137
l117 -73l-157 -119z" />
    <glyph glyph-name="Ocircumflex" unicode="&#xd4;" horiz-adv-x="808" 
d="M675 591c73 -60 111 -147 111 -252c0 -202 -157 -356 -365 -356c-211 0 -373 148 -373 341c0 202 162 359 368 359c96 0 189 -33 259 -92zM410 193c76 0 132 61 132 142c0 71 -51 127 -118 127c-73 0 -132 -63 -132 -140c0 -74 50 -129 118 -129zM305 716l-55 101
l187 101l161 -115l-66 -87l-98 70z" />
    <glyph glyph-name="Otilde" unicode="&#xd5;" horiz-adv-x="808" 
d="M675 591c73 -60 111 -147 111 -252c0 -202 -157 -356 -365 -356c-211 0 -373 148 -373 341c0 202 162 359 368 359c96 0 189 -33 259 -92zM410 193c76 0 132 61 132 142c0 71 -51 127 -118 127c-73 0 -132 -63 -132 -140c0 -74 50 -129 118 -129zM473 829
c16 0 23 6 34 28l83 -42c-46 -69 -71 -88 -112 -88c-17 0 -28 3 -58 13l-34 12c-14 4 -21 6 -28 6c-20 0 -30 -8 -39 -31l-90 28c44 74 82 102 139 102c20 0 30 -2 70 -18c18 -7 27 -10 35 -10z" />
    <glyph glyph-name="Odieresis" unicode="&#xd6;" horiz-adv-x="808" 
d="M675 591c73 -60 111 -147 111 -252c0 -202 -157 -356 -365 -356c-211 0 -373 148 -373 341c0 202 162 359 368 359c96 0 189 -33 259 -92zM410 193c76 0 132 61 132 142c0 71 -51 127 -118 127c-73 0 -132 -63 -132 -140c0 -74 50 -129 118 -129zM208 833
c0 56 44 100 100 100s100 -44 100 -100s-44 -100 -100 -100s-100 44 -100 100zM455 833c0 56 44 100 100 100s100 -44 100 -100s-44 -100 -100 -100s-100 44 -100 100z" />
    <glyph glyph-name="multiply" unicode="&#xd7;" horiz-adv-x="495" 
d="M132 173l-85 85l125 124l-125 125l92 92l125 -125l124 124l84 -85l-123 -124l126 -126l-92 -92l-126 126z" />
    <glyph glyph-name="Oslash" unicode="&#xd8;" horiz-adv-x="848" 
d="M3 34l120 107c-40 57 -55 115 -55 183c0 97 32 181 105 253c67 66 152 106 263 106c90 0 161 -23 223 -64l124 107l88 -95l-118 -104c35 -55 53 -115 53 -188c0 -104 -43 -192 -103 -252c-49 -49 -132 -104 -262 -104c-96 0 -166 24 -227 67l-119 -111zM430 193
c34 0 70 15 90 35c27 26 42 72 42 107c0 30 -12 69 -37 94c-20 20 -49 33 -81 33s-68 -15 -92 -40c-23 -23 -40 -61 -40 -100c0 -34 14 -76 41 -100c21 -19 52 -29 77 -29z" />
    <glyph glyph-name="Ugrave" unicode="&#xd9;" horiz-adv-x="758" 
d="M500 667h245l-45 -369c-18 -142 -34 -183 -93 -237c-59 -53 -131 -78 -226 -78c-97 0 -178 25 -236 72c-53 43 -75 95 -75 175c0 18 1 35 3 53l48 384h245l-45 -369c-3 -24 -5 -41 -5 -49c0 -40 22 -62 60 -62c46 0 68 29 78 102zM270 843l117 73l126 -137l-86 -55z" />
    <glyph glyph-name="Uacute" unicode="&#xda;" horiz-adv-x="758" 
d="M500 667h245l-45 -369c-18 -142 -34 -183 -93 -237c-59 -53 -131 -78 -226 -78c-97 0 -178 25 -236 72c-53 43 -75 95 -75 175c0 18 1 35 3 53l48 384h245l-45 -369c-3 -24 -5 -41 -5 -49c0 -40 22 -62 60 -62c46 0 68 29 78 102zM366 779l127 137l117 -73l-157 -119z
" />
    <glyph glyph-name="Ucircumflex" unicode="&#xdb;" horiz-adv-x="758" 
d="M500 667h245l-45 -369c-18 -142 -34 -183 -93 -237c-59 -53 -131 -78 -226 -78c-97 0 -178 25 -236 72c-53 43 -75 95 -75 175c0 18 1 35 3 53l48 384h245l-45 -369c-3 -24 -5 -41 -5 -49c0 -40 22 -62 60 -62c46 0 68 29 78 102zM320 716l-55 101l187 101l161 -115
l-66 -87l-98 70z" />
    <glyph glyph-name="Udieresis" unicode="&#xdc;" horiz-adv-x="758" 
d="M500 667h245l-45 -369c-18 -142 -34 -183 -93 -237c-59 -53 -131 -78 -226 -78c-97 0 -178 25 -236 72c-53 43 -75 95 -75 175c0 18 1 35 3 53l48 384h245l-45 -369c-3 -24 -5 -41 -5 -49c0 -40 22 -62 60 -62c46 0 68 29 78 102zM213 833c0 56 44 100 100 100
s100 -44 100 -100s-44 -100 -100 -100s-100 44 -100 100zM460 833c0 56 44 100 100 100s100 -44 100 -100s-44 -100 -100 -100s-100 44 -100 100z" />
    <glyph glyph-name="Yacute" unicode="&#xdd;" horiz-adv-x="684" 
d="M745 667l-281 -384l-35 -283h-240l36 289l-178 378h265l34 -109c8 -25 11 -42 13 -76h9c6 22 13 40 24 63l62 122h291zM326 779l127 137l117 -73l-157 -119z" />
    <glyph glyph-name="Thorn" unicode="&#xde;" horiz-adv-x="655" 
d="M388 116h-92l-15 -116h-242l82 667h242l-11 -87h37c64 0 150 -6 214 -70c40 -40 62 -97 62 -156c0 -71 -30 -134 -70 -172c-65 -63 -152 -66 -207 -66zM355 406h-25l-15 -124h22c23 0 56 4 75 23c14 14 17 33 17 50c0 13 -2 26 -14 37c-15 13 -40 14 -60 14z" />
    <glyph glyph-name="germandbls" unicode="&#xdf;" horiz-adv-x="648" 
d="M612 541c0 -64 -32 -116 -99 -150c74 -28 108 -79 108 -159c0 -98 -41 -174 -113 -206c-46 -20 -87 -27 -167 -27c-13 0 -32 1 -56 1l15 122c9 -1 17 -1 24 -1c52 0 73 42 73 145c0 46 -16 62 -71 70l16 127c13 -2 23 -3 29 -3c30 0 50 18 50 44c0 29 -21 49 -49 49
c-42 0 -55 -22 -66 -106l-55 -447h-231l59 480c13 106 31 153 73 192c49 45 119 68 207 68c155 0 253 -76 253 -199z" />
    <glyph glyph-name="agrave" unicode="&#xe0;" horiz-adv-x="652" 
d="M403 467h230l-58 -467h-229c7 32 10 40 25 83l-7 3c-40 -70 -82 -99 -144 -99c-105 0 -195 100 -195 218c0 148 110 278 234 278c74 0 114 -28 141 -100l8 3c-4 33 -5 45 -5 71v10zM316 164c37 0 65 32 65 74c0 35 -23 61 -55 61c-36 0 -67 -35 -67 -76
c0 -34 24 -59 57 -59zM231 669l117 73l115 -146l-86 -55z" />
    <glyph glyph-name="aacute" unicode="&#xe1;" horiz-adv-x="652" 
d="M403 467h230l-58 -467h-229c7 32 10 40 25 83l-7 3c-40 -70 -82 -99 -144 -99c-105 0 -195 100 -195 218c0 148 110 278 234 278c74 0 114 -28 141 -100l8 3c-4 33 -5 45 -5 71v10zM316 164c37 0 65 32 65 74c0 35 -23 61 -55 61c-36 0 -67 -35 -67 -76
c0 -34 24 -59 57 -59zM281 596l116 146l117 -73l-146 -128z" />
    <glyph glyph-name="acircumflex" unicode="&#xe2;" horiz-adv-x="652" 
d="M403 467h230l-58 -467h-229c7 32 10 40 25 83l-7 3c-40 -70 -82 -99 -144 -99c-105 0 -195 100 -195 218c0 148 110 278 234 278c74 0 114 -28 141 -100l8 3c-4 33 -5 45 -5 71v10zM316 164c37 0 65 32 65 74c0 35 -23 61 -55 61c-36 0 -67 -35 -67 -76
c0 -34 24 -59 57 -59zM256 533l-55 101l187 101l161 -115l-66 -87l-98 70z" />
    <glyph glyph-name="atilde" unicode="&#xe3;" horiz-adv-x="652" 
d="M403 467h230l-58 -467h-229c7 32 10 40 25 83l-7 3c-40 -70 -82 -99 -144 -99c-105 0 -195 100 -195 218c0 148 110 278 234 278c74 0 114 -28 141 -100l8 3c-4 33 -5 45 -5 71v10zM316 164c37 0 65 32 65 74c0 35 -23 61 -55 61c-36 0 -67 -35 -67 -76
c0 -34 24 -59 57 -59zM444 673l74 -38c-34 -64 -67 -91 -109 -91c-19 0 -28 3 -57 17c-16 8 -27 11 -37 11c-19 0 -32 -9 -46 -32l-77 40c51 66 79 87 117 87c14 0 31 -4 52 -13l23 -10c8 -3 15 -5 20 -5c12 0 22 7 34 25z" />
    <glyph glyph-name="adieresis" unicode="&#xe4;" horiz-adv-x="652" 
d="M403 467h230l-58 -467h-229c7 32 10 40 25 83l-7 3c-40 -70 -82 -99 -144 -99c-105 0 -195 100 -195 218c0 148 110 278 234 278c74 0 114 -28 141 -100l8 3c-4 33 -5 45 -5 71v10zM316 164c37 0 65 32 65 74c0 35 -23 61 -55 61c-36 0 -67 -35 -67 -76
c0 -34 24 -59 57 -59zM145 642c0 57 46 103 102 103c57 0 103 -46 103 -103c0 -56 -46 -102 -103 -102c-56 0 -102 46 -102 102zM392 642c0 57 46 103 102 103c57 0 103 -46 103 -103c0 -56 -46 -102 -103 -102c-56 0 -102 46 -102 102z" />
    <glyph glyph-name="aring" unicode="&#xe5;" horiz-adv-x="652" 
d="M403 467h230l-58 -467h-229c7 32 10 40 25 83l-7 3c-40 -70 -82 -99 -144 -99c-105 0 -195 100 -195 218c0 148 110 278 234 278c74 0 114 -28 141 -100l8 3c-4 33 -5 45 -5 71v10zM316 164c37 0 65 32 65 74c0 35 -23 61 -55 61c-36 0 -67 -35 -67 -76
c0 -34 24 -59 57 -59zM510 645c0 -33 -16 -63 -40 -81c-31 -24 -73 -28 -104 -28c-48 0 -81 10 -103 27c-25 19 -41 50 -41 82c0 29 13 59 40 80c31 24 73 28 104 28c30 0 74 -4 104 -28c24 -19 40 -50 40 -80zM366 679c-20 0 -30 -5 -35 -8c-11 -7 -15 -17 -15 -28
c0 -12 5 -19 15 -25s22 -8 35 -8c8 0 24 1 36 8c10 6 14 14 14 27c0 10 -4 19 -14 26c-10 6 -25 8 -36 8z" />
    <glyph glyph-name="ae" unicode="&#xe6;" horiz-adv-x="945" 
d="M913 203h-331c-1 -5 -1 -11 -1 -16c0 -37 21 -62 52 -62c11 0 26 4 34 11c5 5 13 19 16 27h222c-14 -45 -40 -90 -95 -127c-53 -36 -111 -49 -172 -49c-76 0 -150 17 -208 73c-23 -24 -53 -46 -83 -57c-19 -7 -53 -16 -110 -16c-48 0 -110 6 -158 43
c-44 34 -60 81 -60 124c0 50 23 84 44 104c26 25 72 51 153 51c28 0 54 -2 85 -14c25 -10 45 -22 63 -41c2 10 3 22 3 31c0 33 -13 51 -38 66c-28 17 -62 19 -89 19c-66 0 -129 -21 -178 -46l17 133c21 9 90 36 180 36c107 0 158 -31 191 -67c26 25 80 67 194 67
c99 0 163 -37 203 -78c44 -46 70 -108 70 -171c0 -14 -1 -27 -4 -41zM295 97c18 0 40 4 55 14c18 12 23 28 23 40c0 18 -10 31 -20 38c-16 11 -42 14 -60 14c-11 0 -39 -1 -56 -13c-11 -8 -20 -23 -20 -40c0 -12 4 -27 21 -39c18 -13 41 -14 57 -14zM592 299h108
c0 30 -15 62 -50 62c-33 0 -55 -26 -58 -62z" />
    <glyph glyph-name="ccedilla" unicode="&#xe7;" horiz-adv-x="437" 
d="M300 493c46 0 74 -5 139 -26l-29 -196c-25 29 -49 42 -82 42c-44 0 -73 -32 -73 -80c0 -43 26 -69 68 -69c29 0 52 10 78 33l-34 -192c-50 -15 -70 -18 -105 -18c-138 0 -235 96 -235 233c0 163 110 273 273 273zM118 -180l134 135l106 -76l-140 -129z" />
    <glyph glyph-name="egrave" unicode="&#xe8;" horiz-adv-x="618" 
d="M587 202h-331c-1 -6 -1 -12 -1 -17c0 -38 20 -63 51 -63c24 0 39 12 50 40h222c-18 -53 -31 -74 -65 -104c-54 -47 -124 -71 -205 -71c-166 0 -280 98 -280 242c0 151 124 265 288 265c154 0 275 -107 275 -244c0 -11 -2 -27 -4 -48zM322 360c-32 0 -50 -19 -57 -62h108
c-1 42 -17 62 -51 62zM191 669l117 73l115 -146l-86 -55z" />
    <glyph glyph-name="eacute" unicode="&#xe9;" horiz-adv-x="618" 
d="M587 202h-331c-1 -6 -1 -12 -1 -17c0 -38 20 -63 51 -63c24 0 39 12 50 40h222c-18 -53 -31 -74 -65 -104c-54 -47 -124 -71 -205 -71c-166 0 -280 98 -280 242c0 151 124 265 288 265c154 0 275 -107 275 -244c0 -11 -2 -27 -4 -48zM322 360c-32 0 -50 -19 -57 -62h108
c-1 42 -17 62 -51 62zM241 596l116 146l117 -73l-146 -128z" />
    <glyph glyph-name="ecircumflex" unicode="&#xea;" horiz-adv-x="618" 
d="M587 202h-331c-1 -6 -1 -12 -1 -17c0 -38 20 -63 51 -63c24 0 39 12 50 40h222c-18 -53 -31 -74 -65 -104c-54 -47 -124 -71 -205 -71c-166 0 -280 98 -280 242c0 151 124 265 288 265c154 0 275 -107 275 -244c0 -11 -2 -27 -4 -48zM322 360c-32 0 -50 -19 -57 -62h108
c-1 42 -17 62 -51 62zM200 533l-55 101l187 101l161 -115l-66 -87l-98 70z" />
    <glyph glyph-name="edieresis" unicode="&#xeb;" horiz-adv-x="618" 
d="M587 202h-331c-1 -6 -1 -12 -1 -17c0 -38 20 -63 51 -63c24 0 39 12 50 40h222c-18 -53 -31 -74 -65 -104c-54 -47 -124 -71 -205 -71c-166 0 -280 98 -280 242c0 151 124 265 288 265c154 0 275 -107 275 -244c0 -11 -2 -27 -4 -48zM322 360c-32 0 -50 -19 -57 -62h108
c-1 42 -17 62 -51 62zM95 642c0 57 46 103 102 103c57 0 103 -46 103 -103c0 -56 -46 -102 -103 -102c-56 0 -102 46 -102 102zM342 642c0 57 46 103 102 103c57 0 103 -46 103 -103c0 -56 -46 -102 -103 -102c-56 0 -102 46 -102 102z" />
    <glyph glyph-name="igrave" unicode="&#xec;" horiz-adv-x="332" 
d="M81 467h231l-57 -467h-231zM91 669l117 73l115 -146l-86 -55z" />
    <glyph glyph-name="iacute" unicode="&#xed;" horiz-adv-x="332" 
d="M81 467h231l-57 -467h-231zM111 596l116 146l117 -73l-146 -128z" />
    <glyph glyph-name="icircumflex" unicode="&#xee;" horiz-adv-x="332" 
d="M81 467h231l-57 -467h-231zM86 533l-55 101l187 101l161 -115l-66 -87l-98 70z" />
    <glyph glyph-name="idieresis" unicode="&#xef;" horiz-adv-x="332" 
d="M81 467h231l-57 -467h-231zM-9 642c0 57 46 103 102 103c57 0 103 -46 103 -103c0 -56 -46 -102 -103 -102c-56 0 -102 46 -102 102zM238 642c0 57 46 103 102 103c57 0 103 -46 103 -103c0 -56 -46 -102 -103 -102c-56 0 -102 46 -102 102z" />
    <glyph glyph-name="eth" unicode="&#xf0;" horiz-adv-x="647" 
d="M163 633l29 111c127 -10 204 -45 244 -67l131 56l33 -94l-86 -36c34 -27 58 -58 77 -103c24 -56 30 -106 30 -160c0 -95 -20 -200 -88 -272c-67 -71 -144 -81 -214 -81c-60 0 -136 8 -200 55c-66 48 -90 116 -90 178c0 56 22 115 70 161c42 40 107 73 204 73
c56 0 104 -11 155 -46c-9 59 -38 103 -85 134l-199 -78l-30 96l137 52c-35 14 -75 21 -118 21zM315 163c16 0 32 6 42 15c13 12 22 34 22 51s-7 38 -20 51c-8 8 -20 15 -39 15c-16 0 -30 -5 -42 -17c-15 -15 -23 -36 -23 -55c0 -16 7 -35 20 -46c10 -8 25 -14 40 -14z" />
    <glyph glyph-name="ntilde" unicode="&#xf1;" horiz-adv-x="633" 
d="M77 467h232c-7 -39 -10 -50 -23 -83l8 -2c47 74 87 102 147 102c88 0 153 -65 153 -152c0 -20 -2 -43 -5 -71l-32 -261h-232l28 226c2 13 3 25 3 31c0 23 -10 35 -30 35c-31 0 -41 -16 -48 -74l-27 -218h-231zM439 673l74 -38c-34 -64 -67 -91 -109 -91
c-19 0 -28 3 -57 17c-16 8 -27 11 -37 11c-19 0 -32 -9 -46 -32l-77 40c51 66 79 87 117 87c14 0 31 -4 52 -13l23 -10c8 -3 15 -5 20 -5c12 0 22 7 34 25z" />
    <glyph glyph-name="ograve" unicode="&#xf2;" horiz-adv-x="637" 
d="M320 493c175 0 291 -99 291 -249c0 -147 -125 -257 -290 -257c-169 0 -292 105 -292 249c0 148 124 257 291 257zM318 169c37 0 64 32 64 75c0 38 -25 66 -58 66c-36 0 -66 -34 -66 -75c0 -38 25 -66 60 -66zM216 669l117 73l115 -146l-86 -55z" />
    <glyph glyph-name="oacute" unicode="&#xf3;" horiz-adv-x="637" 
d="M320 493c175 0 291 -99 291 -249c0 -147 -125 -257 -290 -257c-169 0 -292 105 -292 249c0 148 124 257 291 257zM318 169c37 0 64 32 64 75c0 38 -25 66 -58 66c-36 0 -66 -34 -66 -75c0 -38 25 -66 60 -66zM241 596l116 146l117 -73l-146 -128z" />
    <glyph glyph-name="ocircumflex" unicode="&#xf4;" horiz-adv-x="637" 
d="M320 493c175 0 291 -99 291 -249c0 -147 -125 -257 -290 -257c-169 0 -292 105 -292 249c0 148 124 257 291 257zM318 169c37 0 64 32 64 75c0 38 -25 66 -58 66c-36 0 -66 -34 -66 -75c0 -38 25 -66 60 -66zM210 533l-55 101l187 101l161 -115l-66 -87l-98 70z" />
    <glyph glyph-name="otilde" unicode="&#xf5;" horiz-adv-x="637" 
d="M320 493c175 0 291 -99 291 -249c0 -147 -125 -257 -290 -257c-169 0 -292 105 -292 249c0 148 124 257 291 257zM318 169c37 0 64 32 64 75c0 38 -25 66 -58 66c-36 0 -66 -34 -66 -75c0 -38 25 -66 60 -66zM419 673l74 -38c-34 -64 -67 -91 -109 -91
c-19 0 -28 3 -57 17c-16 8 -27 11 -37 11c-19 0 -32 -9 -46 -32l-77 40c51 66 79 87 117 87c14 0 31 -4 52 -13l23 -10c8 -3 15 -5 20 -5c12 0 22 7 34 25z" />
    <glyph glyph-name="odieresis" unicode="&#xf6;" horiz-adv-x="637" 
d="M320 493c175 0 291 -99 291 -249c0 -147 -125 -257 -290 -257c-169 0 -292 105 -292 249c0 148 124 257 291 257zM318 169c37 0 64 32 64 75c0 38 -25 66 -58 66c-36 0 -66 -34 -66 -75c0 -38 25 -66 60 -66zM110 642c0 57 46 103 102 103c57 0 103 -46 103 -103
c0 -56 -46 -102 -103 -102c-56 0 -102 46 -102 102zM357 642c0 57 46 103 102 103c57 0 103 -46 103 -103c0 -56 -46 -102 -103 -102c-56 0 -102 46 -102 102z" />
    <glyph glyph-name="divide" unicode="&#xf7;" 
d="M189 510c0 41 33 74 74 74c42 0 75 -33 75 -74s-34 -75 -75 -74c-40 0 -74 33 -74 74zM189 170c0 41 33 74 74 74c42 0 75 -33 75 -74s-34 -75 -75 -74c-40 0 -74 33 -74 74zM47 280v120h433v-120h-433z" />
    <glyph glyph-name="oslash" unicode="&#xf8;" horiz-adv-x="643" 
d="M649 459l-80 -71c33 -44 45 -89 45 -144c0 -64 -21 -122 -71 -172c-52 -52 -124 -85 -223 -85c-55 0 -104 9 -157 37l-93 -82l-72 79l82 74c-27 34 -48 77 -48 140c0 81 35 139 73 176c51 50 130 82 224 82c63 0 112 -14 156 -36l92 82zM321 169c17 0 32 7 42 17
c13 13 22 34 22 58s-9 40 -18 49c-11 12 -24 17 -39 17c-17 0 -33 -7 -44 -18c-15 -14 -23 -37 -23 -56s8 -38 19 -50c12 -13 28 -17 41 -17z" />
    <glyph glyph-name="ugrave" unicode="&#xf9;" horiz-adv-x="633" 
d="M383 467h232l-32 -257c-11 -88 -29 -127 -77 -166c-50 -39 -111 -57 -191 -57c-171 0 -269 72 -269 199c0 16 1 34 3 54l28 227h232l-28 -227c-3 -23 -4 -37 -4 -41c0 -20 14 -35 34 -35c28 0 37 14 43 67zM221 669l117 73l115 -146l-86 -55z" />
    <glyph glyph-name="uacute" unicode="&#xfa;" horiz-adv-x="633" 
d="M383 467h232l-32 -257c-11 -88 -29 -127 -77 -166c-50 -39 -111 -57 -191 -57c-171 0 -269 72 -269 199c0 16 1 34 3 54l28 227h232l-28 -227c-3 -23 -4 -37 -4 -41c0 -20 14 -35 34 -35c28 0 37 14 43 67zM271 596l116 146l117 -73l-146 -128z" />
    <glyph glyph-name="ucircumflex" unicode="&#xfb;" horiz-adv-x="633" 
d="M383 467h232l-32 -257c-11 -88 -29 -127 -77 -166c-50 -39 -111 -57 -191 -57c-171 0 -269 72 -269 199c0 16 1 34 3 54l28 227h232l-28 -227c-3 -23 -4 -37 -4 -41c0 -20 14 -35 34 -35c28 0 37 14 43 67zM240 533l-55 101l187 101l161 -115l-66 -87l-98 70z" />
    <glyph glyph-name="udieresis" unicode="&#xfc;" horiz-adv-x="633" 
d="M383 467h232l-32 -257c-11 -88 -29 -127 -77 -166c-50 -39 -111 -57 -191 -57c-171 0 -269 72 -269 199c0 16 1 34 3 54l28 227h232l-28 -227c-3 -23 -4 -37 -4 -41c0 -20 14 -35 34 -35c28 0 37 14 43 67zM130 642c0 57 46 103 102 103c57 0 103 -46 103 -103
c0 -56 -46 -102 -103 -102c-56 0 -102 46 -102 102zM377 642c0 57 46 103 102 103c57 0 103 -46 103 -103c0 -56 -46 -102 -103 -102c-56 0 -102 46 -102 102z" />
    <glyph glyph-name="yacute" unicode="&#xfd;" horiz-adv-x="591" 
d="M381 467h249l-363 -696h-248l88 169c30 52 37 63 65 96l-141 431h238l20 -130c6 -37 7 -53 7 -75c0 -14 0 -24 -2 -48l10 -1c11 58 18 87 34 131zM241 596l116 146l117 -73l-146 -128z" />
    <glyph glyph-name="thorn" unicode="&#xfe;" horiz-adv-x="645" 
d="M115 729h232l-30 -236c-9 -56 -11 -65 -22 -97l9 -4c37 67 71 92 131 92c103 0 185 -104 185 -233c0 -142 -99 -264 -214 -264c-73 0 -125 34 -146 96l-8 -3c2 -27 3 -40 3 -57c0 -24 -2 -49 -5 -77l-22 -175h-232zM331 163c36 0 61 31 61 75c0 37 -23 64 -54 64
c-34 0 -62 -35 -62 -77c0 -37 22 -62 55 -62z" />
    <glyph glyph-name="ydieresis" unicode="&#xff;" horiz-adv-x="591" 
d="M381 467h249l-363 -696h-248l88 169c30 52 37 63 65 96l-141 431h238l20 -130c6 -37 7 -53 7 -75c0 -14 0 -24 -2 -48l10 -1c11 58 18 87 34 131zM100 642c0 57 46 103 102 103c57 0 103 -46 103 -103c0 -56 -46 -102 -103 -102c-56 0 -102 46 -102 102zM347 642
c0 57 46 103 102 103c57 0 103 -46 103 -103c0 -56 -46 -102 -103 -102c-56 0 -102 46 -102 102z" />
    <glyph glyph-name="Amacron" unicode="&#x100;" horiz-adv-x="708" 
d="M428 89h-164l-32 -89h-260l308 667h276l124 -667h-247zM365 362l-45 -121h92l-10 121c-1 11 -2 28 -2 47c0 24 1 31 3 53h-8c-9 -39 -15 -61 -30 -100zM600 746h-364l12 104h364z" />
    <glyph glyph-name="amacron" unicode="&#x101;" horiz-adv-x="652" 
d="M403 467h230l-58 -467h-229c7 32 10 40 25 83l-7 3c-40 -70 -82 -99 -144 -99c-105 0 -195 100 -195 218c0 148 110 278 234 278c74 0 114 -28 141 -100l8 3c-4 33 -5 45 -5 71v10zM316 164c37 0 65 32 65 74c0 35 -23 61 -55 61c-36 0 -67 -35 -67 -76
c0 -34 24 -59 57 -59zM543 546h-340l12 100h340z" />
    <glyph glyph-name="Abreve" unicode="&#x102;" horiz-adv-x="708" 
d="M428 89h-164l-32 -89h-260l308 667h276l124 -667h-247zM365 362l-45 -121h92l-10 121c-1 11 -2 28 -2 47c0 24 1 31 3 53h-8c-9 -39 -15 -61 -30 -100zM502 875h102c-7 -39 -26 -76 -53 -103c-40 -39 -89 -49 -133 -49c-32 0 -75 4 -112 31c-43 31 -55 80 -56 121h102
c2 -13 8 -30 19 -40c9 -9 26 -16 52 -16c14 0 34 2 51 15c12 9 23 24 28 41z" />
    <glyph glyph-name="abreve" unicode="&#x103;" horiz-adv-x="652" 
d="M403 467h230l-58 -467h-229c7 32 10 40 25 83l-7 3c-40 -70 -82 -99 -144 -99c-105 0 -195 100 -195 218c0 148 110 278 234 278c74 0 114 -28 141 -100l8 3c-4 33 -5 45 -5 71v10zM316 164c37 0 65 32 65 74c0 35 -23 61 -55 61c-36 0 -67 -35 -67 -76
c0 -34 24 -59 57 -59zM458 691h102c-7 -39 -26 -76 -53 -103c-39 -39 -88 -49 -134 -49c-31 0 -74 4 -111 31c-43 31 -55 80 -56 121h102c2 -13 8 -30 19 -40c9 -9 26 -16 52 -16c14 0 34 2 51 15c12 9 23 24 28 41z" />
    <glyph glyph-name="Aogonek" unicode="&#x104;" horiz-adv-x="708" 
d="M428 89h-164l-32 -89h-260l308 667h276l124 -667h-157c-13 -9 -29 -23 -40 -34c-8 -9 -20 -24 -20 -43c0 -12 6 -19 10 -23c8 -8 18 -9 28 -9c14 0 38 2 63 25l-33 -95c-33 -18 -67 -23 -95 -23c-12 0 -50 1 -73 22c-15 13 -24 35 -24 59c0 36 20 62 39 80
c14 13 37 30 55 41zM402 362c-1 15 -2 34 -2 52c0 15 1 29 2 40l1 8h-8c-7 -44 -17 -66 -30 -100l-45 -121h92z" />
    <glyph glyph-name="aogonek" unicode="&#x105;" horiz-adv-x="652" 
d="M403 467h230l-58 -467h-60c-10 -8 -27 -21 -36 -31c-8 -9 -18 -22 -18 -40c0 -8 2 -14 9 -20c8 -7 18 -8 27 -8c14 0 32 3 55 23l-29 -87c-32 -18 -69 -21 -87 -21c-29 0 -54 8 -69 23c-11 10 -19 26 -19 49c0 36 17 58 35 75c12 11 34 27 50 37h-87c3 16 8 37 22 75l3 8
l-7 3c-11 -23 -31 -52 -51 -68c-18 -15 -47 -31 -90 -31c-33 0 -84 9 -132 57c-38 38 -66 92 -66 164c0 79 36 161 87 211c43 42 100 64 155 64c24 0 62 -5 93 -34c19 -17 33 -43 40 -66l8 3c-4 29 -5 50 -5 71v10zM316 164c17 0 33 7 44 19c14 15 21 36 21 55
c0 21 -9 38 -20 48c-8 7 -19 13 -35 13c-14 0 -29 -5 -42 -18c-17 -16 -25 -39 -25 -58c0 -15 6 -31 16 -42c9 -10 25 -17 41 -17z" />
    <glyph glyph-name="Cacute" unicode="&#x106;" horiz-adv-x="582" 
d="M415 683c58 0 115 -10 173 -31l-20 -237c-45 36 -86 52 -133 52c-80 0 -147 -68 -147 -148c0 -68 56 -120 129 -120c50 0 90 18 131 57l-29 -243c-65 -22 -104 -30 -152 -30c-185 0 -320 140 -320 331c0 212 157 369 368 369zM326 779l127 137l117 -73l-157 -119z" />
    <glyph glyph-name="cacute" unicode="&#x107;" horiz-adv-x="437" 
d="M300 493c46 0 74 -5 139 -26l-29 -196c-25 29 -49 42 -82 42c-44 0 -73 -32 -73 -80c0 -43 26 -69 68 -69c29 0 52 10 78 33l-34 -192c-50 -15 -70 -18 -105 -18c-138 0 -235 96 -235 233c0 163 110 273 273 273zM231 596l116 146l117 -73l-146 -128z" />
    <glyph glyph-name="Ccircumflex" unicode="&#x108;" horiz-adv-x="582" 
d="M415 683c58 0 115 -10 173 -31l-20 -237c-45 36 -86 52 -133 52c-80 0 -147 -68 -147 -148c0 -68 56 -120 129 -120c50 0 90 18 131 57l-29 -243c-65 -22 -104 -30 -152 -30c-185 0 -320 140 -320 331c0 212 157 369 368 369zM320 716l-55 101l187 101l161 -115l-66 -87
l-98 70z" />
    <glyph glyph-name="ccircumflex" unicode="&#x109;" horiz-adv-x="437" 
d="M300 493c46 0 74 -5 139 -26l-29 -196c-25 29 -49 42 -82 42c-44 0 -73 -32 -73 -80c0 -43 26 -69 68 -69c29 0 52 10 78 33l-34 -192c-50 -15 -70 -18 -105 -18c-138 0 -235 96 -235 233c0 163 110 273 273 273zM200 533l-55 101l187 101l161 -115l-66 -87l-98 70z" />
    <glyph glyph-name="Cdotaccent" unicode="&#x10a;" horiz-adv-x="582" 
d="M415 683c58 0 115 -10 173 -31l-20 -237c-45 36 -86 52 -133 52c-80 0 -147 -68 -147 -148c0 -68 56 -120 129 -120c50 0 90 18 131 57l-29 -243c-65 -22 -104 -30 -152 -30c-185 0 -320 140 -320 331c0 212 157 369 368 369zM305 825c0 57 46 103 103 103
c56 0 102 -46 102 -103c0 -56 -46 -102 -102 -102c-57 0 -103 46 -103 102z" />
    <glyph glyph-name="cdotaccent" unicode="&#x10b;" horiz-adv-x="437" 
d="M300 493c46 0 74 -5 139 -26l-29 -196c-25 29 -49 42 -82 42c-44 0 -73 -32 -73 -80c0 -43 26 -69 68 -69c29 0 52 10 78 33l-34 -192c-50 -15 -70 -18 -105 -18c-138 0 -235 96 -235 233c0 163 110 273 273 273zM188 642c0 57 46 103 103 103c56 0 102 -46 102 -103
c0 -56 -46 -102 -102 -102c-57 0 -103 46 -103 102z" />
    <glyph glyph-name="Ccaron" unicode="&#x10c;" horiz-adv-x="582" 
d="M415 683c58 0 115 -10 173 -31l-20 -237c-45 36 -86 52 -133 52c-80 0 -147 -68 -147 -148c0 -68 56 -120 129 -120c50 0 90 18 131 57l-29 -243c-65 -22 -104 -30 -152 -30c-185 0 -320 140 -320 331c0 212 157 369 368 369zM548 918l55 -101l-187 -101l-161 115l67 87
l97 -70z" />
    <glyph glyph-name="ccaron" unicode="&#x10d;" horiz-adv-x="437" 
d="M300 493c46 0 74 -5 139 -26l-29 -196c-25 29 -49 42 -82 42c-44 0 -73 -32 -73 -80c0 -43 26 -69 68 -69c29 0 52 10 78 33l-34 -192c-50 -15 -70 -18 -105 -18c-138 0 -235 96 -235 233c0 163 110 273 273 273zM438 735l55 -101l-187 -101l-161 115l67 87l97 -70z" />
    <glyph glyph-name="Dcaron" unicode="&#x10e;" horiz-adv-x="744" 
d="M39 0l82 667h226c235 0 375 -121 375 -323c0 -106 -44 -201 -122 -263c-74 -59 -154 -81 -294 -81h-267zM368 471h-30l-33 -273h34c80 0 144 67 144 152c0 70 -49 121 -115 121zM498 918l55 -101l-187 -101l-161 115l67 87l97 -70z" />
    <glyph glyph-name="dcaron" unicode="&#x10f;" horiz-adv-x="876" 
d="M426 729h231l-90 -729h-231c8 32 11 43 23 78l-8 4c-28 -63 -76 -95 -140 -95c-107 0 -185 93 -185 220c0 152 100 276 222 276c71 0 116 -33 140 -102l9 2c-3 18 -4 25 -4 35c0 29 3 71 7 101zM311 169c34 0 59 29 62 70v5c0 36 -22 60 -55 60c-35 0 -63 -32 -63 -73
c0 -34 25 -62 56 -62zM946 667l-126 -218h-152l85 218h193z" />
    <glyph glyph-name="Dcroat" unicode="&#x110;" horiz-adv-x="770" 
d="M65 0l34 280h-84l14 120h85l33 267h226c235 0 375 -121 375 -323c0 -106 -44 -201 -122 -263c-74 -59 -154 -81 -294 -81h-267zM394 471h-30l-10 -71h84l-14 -120h-83l-10 -82h34c80 0 144 67 144 152c0 70 -49 121 -115 121z" />
    <glyph glyph-name="dcroat" unicode="&#x111;" horiz-adv-x="660" 
d="M426 729h231l-11 -87h84l-14 -120h-85l-64 -522h-231c8 32 11 43 23 78l-8 4c-28 -63 -76 -95 -140 -95c-107 0 -185 93 -185 220c0 152 100 276 222 276c71 0 116 -33 140 -102l9 2c-3 18 -4 25 -4 35c0 29 3 71 7 101v3h-166l15 120h166zM311 169c34 0 59 29 62 70v5
c0 36 -22 60 -55 60c-35 0 -63 -32 -63 -73c0 -34 25 -62 56 -62z" />
    <glyph glyph-name="Emacron" unicode="&#x112;" horiz-adv-x="549" 
d="M121 667h438l-21 -174h-197l-9 -73h180l-20 -165h-180l-9 -76h204l-22 -179h-446zM520 746h-364l12 104h364z" />
    <glyph glyph-name="emacron" unicode="&#x113;" horiz-adv-x="618" 
d="M587 202h-331c-1 -6 -1 -12 -1 -17c0 -38 20 -63 51 -63c24 0 39 12 50 40h222c-18 -53 -31 -74 -65 -104c-54 -47 -124 -71 -205 -71c-166 0 -280 98 -280 242c0 151 124 265 288 265c154 0 275 -107 275 -244c0 -11 -2 -27 -4 -48zM322 360c-32 0 -50 -19 -57 -62h108
c-1 42 -17 62 -51 62zM498 546h-340l12 100h340z" />
    <glyph glyph-name="Edotaccent" unicode="&#x116;" horiz-adv-x="549" 
d="M121 667h438l-21 -174h-197l-9 -73h180l-20 -165h-180l-9 -76h204l-22 -179h-446zM248 825c0 57 46 103 103 103c56 0 102 -46 102 -103c0 -56 -46 -102 -102 -102c-57 0 -103 46 -103 102z" />
    <glyph glyph-name="edotaccent" unicode="&#x117;" horiz-adv-x="618" 
d="M587 202h-331c-1 -6 -1 -12 -1 -17c0 -38 20 -63 51 -63c24 0 39 12 50 40h222c-18 -53 -31 -74 -65 -104c-54 -47 -124 -71 -205 -71c-166 0 -280 98 -280 242c0 151 124 265 288 265c154 0 275 -107 275 -244c0 -11 -2 -27 -4 -48zM322 360c-32 0 -50 -19 -57 -62h108
c-1 42 -17 62 -51 62zM218 642c0 57 46 103 103 103c56 0 102 -46 102 -103c0 -56 -46 -102 -102 -102c-57 0 -103 46 -103 102z" />
    <glyph glyph-name="Eogonek" unicode="&#x118;" horiz-adv-x="549" 
d="M121 667h438l-21 -174h-197l-9 -73h180l-20 -165h-180l-9 -76h204l-22 -179h-60c-13 -9 -29 -23 -40 -34c-8 -9 -20 -24 -20 -43c0 -12 6 -19 10 -23c8 -8 18 -9 28 -9c14 0 38 2 63 25l-33 -95c-33 -18 -67 -23 -95 -23c-12 0 -50 1 -73 22c-15 13 -24 35 -24 59
c0 36 20 62 39 80c14 13 37 30 55 41h-296z" />
    <glyph glyph-name="eogonek" unicode="&#x119;" horiz-adv-x="618" 
d="M587 202h-331c-1 -5 -1 -11 -1 -16c0 -21 6 -41 18 -52c8 -8 21 -12 33 -12c14 0 28 6 35 14c6 6 12 20 15 26h222c-6 -26 -20 -62 -53 -96c-21 -22 -47 -40 -77 -57c-26 -15 -46 -25 -68 -45c-11 -10 -22 -23 -22 -41c0 -8 2 -15 9 -20c8 -7 18 -8 27 -8
c14 0 32 3 55 23l-29 -87c-32 -18 -69 -21 -87 -21c-29 0 -54 8 -69 23c-11 10 -19 26 -19 49c0 36 17 58 35 75c12 11 29 23 40 30c-134 0 -201 52 -225 76c-38 37 -67 95 -67 164c0 68 27 135 74 183c48 49 123 84 214 84c102 0 169 -44 208 -83c46 -47 67 -105 67 -152
c0 -15 -2 -25 -4 -57zM265 298h108c0 9 -1 36 -16 50c-12 11 -28 12 -35 12c-14 0 -27 -4 -37 -14c-5 -5 -16 -18 -20 -48z" />
    <glyph glyph-name="Ecaron" unicode="&#x11a;" horiz-adv-x="549" 
d="M121 667h438l-21 -174h-197l-9 -73h180l-20 -165h-180l-9 -76h204l-22 -179h-446zM473 918l55 -101l-187 -101l-161 115l67 87l97 -70z" />
    <glyph glyph-name="ecaron" unicode="&#x11b;" horiz-adv-x="618" 
d="M587 202h-331c-1 -6 -1 -12 -1 -17c0 -38 20 -63 51 -63c24 0 39 12 50 40h222c-18 -53 -31 -74 -65 -104c-54 -47 -124 -71 -205 -71c-166 0 -280 98 -280 242c0 151 124 265 288 265c154 0 275 -107 275 -244c0 -11 -2 -27 -4 -48zM322 360c-32 0 -50 -19 -57 -62h108
c-1 42 -17 62 -51 62zM448 735l55 -101l-187 -101l-161 115l67 87l97 -70z" />
    <glyph glyph-name="Gcircumflex" unicode="&#x11c;" horiz-adv-x="807" 
d="M418 388h365v-6c0 -90 -20 -212 -110 -301c-83 -82 -178 -98 -267 -98c-93 0 -181 17 -261 96c-47 46 -98 122 -98 238c0 99 38 191 102 256c43 44 135 111 294 111c142 0 248 -51 319 -169l-227 -89c-11 22 -36 56 -89 56c-41 0 -77 -15 -102 -38
c-32 -30 -55 -80 -55 -137c0 -43 14 -77 38 -102c27 -28 58 -36 94 -36c26 0 85 6 107 73h-130zM320 716l-55 101l187 101l161 -115l-66 -87l-98 70z" />
    <glyph glyph-name="gcircumflex" unicode="&#x11d;" horiz-adv-x="644" 
d="M397 467h228l-52 -421c-13 -110 -38 -163 -97 -207c-57 -44 -135 -68 -221 -68c-65 0 -148 16 -213 41c-7 2 -17 6 -30 12l62 152c59 -36 100 -50 150 -50c49 0 92 22 111 57c11 22 15 36 28 100l-7 2c-30 -65 -67 -88 -136 -88c-111 0 -193 94 -193 221
c0 148 101 265 229 265c70 0 114 -29 138 -95l7 2l-2 27l-1 34zM312 163c38 0 65 29 65 69c0 38 -23 66 -55 66c-37 0 -67 -33 -67 -73c0 -37 24 -62 57 -62zM252 533l-55 101l187 101l161 -115l-66 -87l-98 70z" />
    <glyph glyph-name="Gbreve" unicode="&#x11e;" horiz-adv-x="807" 
d="M418 388h365v-6c0 -90 -20 -212 -110 -301c-83 -82 -178 -98 -267 -98c-93 0 -181 17 -261 96c-47 46 -98 122 -98 238c0 99 38 191 102 256c43 44 135 111 294 111c142 0 248 -51 319 -169l-227 -89c-11 22 -36 56 -89 56c-41 0 -77 -15 -102 -38
c-32 -30 -55 -80 -55 -137c0 -43 14 -77 38 -102c27 -28 58 -36 94 -36c26 0 85 6 107 73h-130zM527 875h102c-7 -39 -26 -76 -53 -103c-40 -39 -89 -49 -133 -49c-32 0 -75 4 -112 31c-43 31 -55 80 -56 121h102c2 -13 8 -30 19 -40c9 -9 26 -16 52 -16c14 0 34 2 51 15
c12 9 23 24 28 41z" />
    <glyph glyph-name="gbreve" unicode="&#x11f;" horiz-adv-x="644" 
d="M397 467h228l-52 -421c-13 -110 -38 -163 -97 -207c-57 -44 -135 -68 -221 -68c-65 0 -148 16 -213 41c-7 2 -17 6 -30 12l62 152c59 -36 100 -50 150 -50c49 0 92 22 111 57c11 22 15 36 28 100l-7 2c-30 -65 -67 -88 -136 -88c-111 0 -193 94 -193 221
c0 148 101 265 229 265c70 0 114 -29 138 -95l7 2l-2 27l-1 34zM312 163c38 0 65 29 65 69c0 38 -23 66 -55 66c-37 0 -67 -33 -67 -73c0 -37 24 -62 57 -62zM442 691h102c-7 -39 -26 -76 -53 -103c-39 -39 -88 -49 -134 -49c-31 0 -74 4 -111 31c-43 31 -55 80 -56 121h102
c2 -13 8 -30 19 -40c9 -9 26 -16 52 -16c14 0 34 2 51 15c12 9 23 24 28 41z" />
    <glyph glyph-name="Gdotaccent" unicode="&#x120;" horiz-adv-x="807" 
d="M418 388h365v-6c0 -90 -20 -212 -110 -301c-83 -82 -178 -98 -267 -98c-93 0 -181 17 -261 96c-47 46 -98 122 -98 238c0 99 38 191 102 256c43 44 135 111 294 111c142 0 248 -51 319 -169l-227 -89c-11 22 -36 56 -89 56c-41 0 -77 -15 -102 -38
c-32 -30 -55 -80 -55 -137c0 -43 14 -77 38 -102c27 -28 58 -36 94 -36c26 0 85 6 107 73h-130zM380 842c0 57 46 103 103 103c56 0 102 -46 102 -103c0 -56 -46 -102 -102 -102c-57 0 -103 46 -103 102z" />
    <glyph glyph-name="gdotaccent" unicode="&#x121;" horiz-adv-x="644" 
d="M397 467h228l-52 -421c-13 -110 -38 -163 -97 -207c-57 -44 -135 -68 -221 -68c-65 0 -148 16 -213 41c-7 2 -17 6 -30 12l62 152c59 -36 100 -50 150 -50c49 0 92 22 111 57c11 22 15 36 28 100l-7 2c-30 -65 -67 -88 -136 -88c-111 0 -193 94 -193 221
c0 148 101 265 229 265c70 0 114 -29 138 -95l7 2l-2 27l-1 34zM312 163c38 0 65 29 65 69c0 38 -23 66 -55 66c-37 0 -67 -33 -67 -73c0 -37 24 -62 57 -62zM217 642c0 57 46 103 103 103c56 0 102 -46 102 -103c0 -56 -46 -102 -102 -102c-57 0 -103 46 -103 102z" />
    <glyph glyph-name="Gcommaaccent" unicode="&#x122;" horiz-adv-x="807" 
d="M418 388h365v-6c0 -90 -20 -212 -110 -301c-83 -82 -178 -98 -267 -98c-93 0 -181 17 -261 96c-47 46 -98 122 -98 238c0 99 38 191 102 256c43 44 135 111 294 111c142 0 248 -51 319 -169l-227 -89c-11 22 -36 56 -89 56c-41 0 -77 -15 -102 -38
c-32 -30 -55 -80 -55 -137c0 -43 14 -77 38 -102c27 -28 58 -36 94 -36c26 0 85 6 107 73h-130zM527 -62l-125 -212h-155l84 212h196z" />
    <glyph glyph-name="gcommaaccent" unicode="&#x123;" horiz-adv-x="644" 
d="M397 467h228l-52 -421c-13 -110 -38 -163 -97 -207c-57 -44 -135 -68 -221 -68c-65 0 -148 16 -213 41c-7 2 -17 6 -30 12l62 152c59 -36 100 -50 150 -50c49 0 92 22 111 57c11 22 15 36 28 100l-7 2c-30 -65 -67 -88 -136 -88c-111 0 -193 94 -193 221
c0 148 101 265 229 265c70 0 114 -29 138 -95l7 2l-2 27l-1 34zM312 163c38 0 65 29 65 69c0 38 -23 66 -55 66c-37 0 -67 -33 -67 -73c0 -37 24 -62 57 -62zM232 531l125 212h155l-84 -212h-196z" />
    <glyph glyph-name="Hcircumflex" unicode="&#x124;" horiz-adv-x="760" 
d="M505 667h242l-82 -667h-242l30 243h-143l-29 -243h-242l82 667h242l-28 -228h142zM310 716l-55 101l187 101l161 -115l-66 -87l-98 70z" />
    <glyph glyph-name="hcircumflex" unicode="&#x125;" horiz-adv-x="632" 
d="M110 729h231l-26 -211c-7 -58 -14 -89 -25 -125l9 -3c35 61 86 93 148 93c83 0 147 -65 147 -149c0 -16 -1 -33 -4 -53l-34 -281h-232l28 226c2 13 3 25 3 31c0 23 -10 35 -30 35c-30 0 -41 -17 -48 -74l-26 -218h-231zM115 773l-55 101l187 101l161 -115l-66 -87l-98 70
z" />
    <glyph glyph-name="Hbar" unicode="&#x126;" horiz-adv-x="760" 
d="M281 0h-242l59 482h-60l18 142h60l5 43h242l-5 -43h142l5 43h242l-5 -43h60l-18 -142h-60l-59 -482h-242l30 242h-143zM484 482h-144l-9 -74h144z" />
    <glyph glyph-name="hbar" unicode="&#x127;" horiz-adv-x="657" 
d="M125 642l10 87h231l-10 -87h165l-14 -120h-166l-1 -4c-7 -58 -14 -89 -25 -125l9 -3c35 61 86 93 148 93c83 0 147 -65 147 -149c0 -16 -1 -33 -4 -53l-34 -281h-232l28 226c2 13 3 25 3 31c0 23 -10 35 -30 35c-30 0 -41 -17 -48 -74l-26 -218h-231l65 522h-85l15 120
h85z" />
    <glyph glyph-name="Imacron" unicode="&#x12a;" horiz-adv-x="379" 
d="M121 667h245l-82 -667h-245zM425 746h-364l12 104h364z" />
    <glyph glyph-name="imacron" unicode="&#x12b;" horiz-adv-x="332" 
d="M81 467h231l-57 -467h-231zM368 546h-340l12 100h340z" />
    <glyph glyph-name="Iogonek" unicode="&#x12e;" horiz-adv-x="379" 
d="M121 667h245l-82 -667c-13 -9 -29 -23 -40 -34c-8 -9 -20 -24 -20 -43c0 -12 6 -19 10 -23c8 -8 18 -9 28 -9c14 0 38 2 63 25l-33 -95c-33 -18 -67 -23 -95 -23c-12 0 -50 1 -73 22c-15 13 -24 35 -24 59c0 36 20 62 39 80c14 13 37 30 55 41h-155z" />
    <glyph glyph-name="iogonek" unicode="&#x12f;" horiz-adv-x="332" 
d="M217 747c69 0 129 -50 129 -109c0 -52 -50 -113 -134 -113c-78 0 -127 53 -127 107c0 63 62 115 132 115zM81 467h231l-57 -467c-10 -8 -27 -21 -36 -31c-8 -9 -18 -22 -18 -40c0 -8 2 -14 9 -20c8 -7 18 -8 27 -8c14 0 32 3 55 23l-29 -87c-32 -18 -69 -21 -87 -21
c-29 0 -54 8 -69 23c-11 10 -19 26 -19 49c0 36 17 58 35 75c12 11 34 27 50 37h-149z" />
    <glyph glyph-name="Idotaccent" unicode="&#x130;" horiz-adv-x="379" 
d="M121 667h245l-82 -667h-245zM143 825c0 57 46 103 103 103c56 0 102 -46 102 -103c0 -56 -46 -102 -102 -102c-57 0 -103 46 -103 102z" />
    <glyph glyph-name="dotlessi" unicode="&#x131;" horiz-adv-x="332" 
d="M81 467h231l-57 -467h-231z" />
    <glyph glyph-name="Jcircumflex" unicode="&#x134;" horiz-adv-x="456" 
d="M201 667h242l-55 -447c-7 -58 -16 -123 -66 -174c-51 -52 -120 -63 -177 -63c-95 0 -148 29 -179 52l78 216c6 -15 16 -30 25 -41c11 -13 21 -19 39 -19c10 0 21 2 30 14c3 5 8 15 12 46zM210 716l-55 101l187 101l161 -115l-66 -87l-98 70z" />
    <glyph glyph-name="jcircumflex" unicode="&#x135;" horiz-adv-x="337" 
d="M86 467h231l-85 -696h-231zM90 533l-55 101l187 101l161 -115l-66 -87l-98 70z" />
    <glyph glyph-name="Kcommaaccent" unicode="&#x136;" horiz-adv-x="732" 
d="M121 667h242l-22 -173c-4 -32 -11 -75 -21 -116l7 -2c14 36 27 62 42 85l23 37l106 169h282l-260 -338l170 -329h-255l-85 192c-18 41 -25 61 -34 98l-7 -1v-20c0 -21 -2 -54 -5 -77l-23 -192h-242zM447 -62l-125 -212h-155l84 212h196z" />
    <glyph glyph-name="kcommaaccent" unicode="&#x137;" horiz-adv-x="650" 
d="M110 729h231l-34 -279c-5 -40 -18 -118 -29 -175l7 -1c15 39 25 56 61 109l57 84h275l-201 -241l134 -226h-256l-42 91c-23 50 -31 72 -40 114l-9 -1c2 -26 3 -37 3 -57c0 -15 -1 -28 -2 -39l-14 -108h-231zM407 -62l-125 -212h-155l84 212h196z" />
    <glyph glyph-name="Lacute" unicode="&#x139;" horiz-adv-x="530" 
d="M121 667h245l-57 -466l205 6l-25 -207h-450zM186 779l127 137l117 -73l-157 -119z" />
    <glyph glyph-name="lacute" unicode="&#x13a;" horiz-adv-x="327" 
d="M110 729h231l-90 -729h-231zM141 836l116 146l117 -73l-146 -128z" />
    <glyph glyph-name="Lcommaaccent" unicode="&#x13b;" horiz-adv-x="530" 
d="M121 667h245l-57 -466l205 6l-25 -207h-450zM387 -62l-125 -212h-155l84 212h196z" />
    <glyph glyph-name="lcommaaccent" unicode="&#x13c;" horiz-adv-x="327" 
d="M110 729h231l-90 -729h-231zM247 -62l-125 -212h-155l84 212h196z" />
    <glyph glyph-name="Lcaron" unicode="&#x13d;" horiz-adv-x="596" 
d="M121 667h245l-57 -466l205 6l-25 -207h-450zM666 667l-126 -218h-152l85 218h193z" />
    <glyph glyph-name="lcaron" unicode="&#x13e;" horiz-adv-x="566" 
d="M110 729h231l-90 -729h-231zM636 667l-126 -218h-152l85 218h193z" />
    <glyph glyph-name="Ldot" unicode="&#x13f;" horiz-adv-x="560" 
d="M121 667h245l-57 -466l205 6l-25 -207h-450zM389 370c0 57 46 103 103 103c56 0 102 -46 102 -103c0 -56 -46 -102 -102 -102c-57 0 -103 46 -103 102z" />
    <glyph glyph-name="ldot" unicode="&#x140;" horiz-adv-x="540" 
d="M110 729h231l-90 -729h-231zM349 354c0 57 46 103 103 103c56 0 102 -46 102 -103c0 -56 -46 -102 -102 -102c-57 0 -103 46 -103 102z" />
    <glyph glyph-name="Lslash" unicode="&#x141;" horiz-adv-x="563" 
d="M521 0h-446l28 230l-93 -55l20 162l93 55l34 275h242l-23 -184l123 73l-20 -162l-123 -73l-13 -106h204z" />
    <glyph glyph-name="lslash" unicode="&#x142;" horiz-adv-x="460" 
d="M406 729l-27 -213l111 68l-18 -142l-110 -68l-46 -374h-231l35 279l-110 -68l16 142l111 68l38 308h231z" />
    <glyph glyph-name="Nacute" unicode="&#x143;" horiz-adv-x="812" 
d="M554 667h245l-82 -667h-234l-116 230c-24 49 -39 87 -53 135l-4 12h-8c3 -30 4 -52 4 -80c0 -26 -1 -50 -3 -67l-21 -230h-243l82 667h243l118 -251c15 -32 26 -61 42 -118l6 -22l10 1l-2 22c-3 37 -5 64 -5 92c0 27 1 53 4 79zM386 779l127 137l117 -73l-157 -119z" />
    <glyph glyph-name="nacute" unicode="&#x144;" horiz-adv-x="633" 
d="M77 467h232c-7 -39 -10 -50 -23 -83l8 -2c47 74 87 102 147 102c88 0 153 -65 153 -152c0 -20 -2 -43 -5 -71l-32 -261h-232l28 226c2 13 3 25 3 31c0 23 -10 35 -30 35c-31 0 -41 -16 -48 -74l-27 -218h-231zM281 596l116 146l117 -73l-146 -128z" />
    <glyph glyph-name="Ncommaaccent" unicode="&#x145;" horiz-adv-x="812" 
d="M554 667h245l-82 -667h-234l-116 230c-24 49 -39 87 -53 135l-4 12h-8c3 -30 4 -52 4 -80c0 -26 -1 -50 -3 -67l-21 -230h-243l82 667h243l118 -251c15 -32 26 -61 42 -118l6 -22l10 1l-2 22c-3 37 -5 64 -5 92c0 27 1 53 4 79zM487 -62l-125 -212h-155l84 212h196z" />
    <glyph glyph-name="ncommaaccent" unicode="&#x146;" horiz-adv-x="633" 
d="M77 467h232c-7 -39 -10 -50 -23 -83l8 -2c47 74 87 102 147 102c88 0 153 -65 153 -152c0 -20 -2 -43 -5 -71l-32 -261h-232l28 226c2 13 3 25 3 31c0 23 -10 35 -30 35c-31 0 -41 -16 -48 -74l-27 -218h-231zM397 -62l-125 -212h-155l84 212h196z" />
    <glyph glyph-name="Ncaron" unicode="&#x147;" horiz-adv-x="812" 
d="M554 667h245l-82 -667h-234l-116 230c-24 49 -39 87 -53 135l-4 12h-8c3 -30 4 -52 4 -80c0 -26 -1 -50 -3 -67l-21 -230h-243l82 667h243l118 -251c15 -32 26 -61 42 -118l6 -22l10 1l-2 22c-3 37 -5 64 -5 92c0 27 1 53 4 79zM583 918l55 -101l-187 -101l-161 115
l67 87l97 -70z" />
    <glyph glyph-name="ncaron" unicode="&#x148;" horiz-adv-x="633" 
d="M77 467h232c-7 -39 -10 -50 -23 -83l8 -2c47 74 87 102 147 102c88 0 153 -65 153 -152c0 -20 -2 -43 -5 -71l-32 -261h-232l28 226c2 13 3 25 3 31c0 23 -10 35 -30 35c-31 0 -41 -16 -48 -74l-27 -218h-231zM478 735l55 -101l-187 -101l-161 115l67 87l97 -70z" />
    <glyph glyph-name="Omacron" unicode="&#x14c;" horiz-adv-x="808" 
d="M675 591c73 -60 111 -147 111 -252c0 -202 -157 -356 -365 -356c-211 0 -373 148 -373 341c0 202 162 359 368 359c96 0 189 -33 259 -92zM410 193c76 0 132 61 132 142c0 71 -51 127 -118 127c-73 0 -132 -63 -132 -140c0 -74 50 -129 118 -129zM600 746h-364l12 104
h364z" />
    <glyph glyph-name="omacron" unicode="&#x14d;" horiz-adv-x="637" 
d="M320 493c175 0 291 -99 291 -249c0 -147 -125 -257 -290 -257c-169 0 -292 105 -292 249c0 148 124 257 291 257zM318 169c37 0 64 32 64 75c0 38 -25 66 -58 66c-36 0 -66 -34 -66 -75c0 -38 25 -66 60 -66zM503 546h-340l12 100h340z" />
    <glyph glyph-name="Obreve" unicode="&#x14e;" horiz-adv-x="808" 
d="M675 591c73 -60 111 -147 111 -252c0 -202 -157 -356 -365 -356c-211 0 -373 148 -373 341c0 202 162 359 368 359c96 0 189 -33 259 -92zM410 193c76 0 132 61 132 142c0 71 -51 127 -118 127c-73 0 -132 -63 -132 -140c0 -74 50 -129 118 -129zM512 875h102
c-7 -39 -26 -76 -53 -103c-40 -39 -89 -49 -133 -49c-32 0 -75 4 -112 31c-43 31 -55 80 -56 121h102c2 -13 8 -30 19 -40c9 -9 26 -16 52 -16c14 0 34 2 51 15c12 9 23 24 28 41z" />
    <glyph glyph-name="obreve" unicode="&#x14f;" horiz-adv-x="637" 
d="M320 493c175 0 291 -99 291 -249c0 -147 -125 -257 -290 -257c-169 0 -292 105 -292 249c0 148 124 257 291 257zM318 169c37 0 64 32 64 75c0 38 -25 66 -58 66c-36 0 -66 -34 -66 -75c0 -38 25 -66 60 -66zM422 691h102c-7 -39 -26 -76 -53 -103
c-39 -39 -88 -49 -134 -49c-31 0 -74 4 -111 31c-43 31 -55 80 -56 121h102c2 -13 8 -30 19 -40c9 -9 26 -16 52 -16c14 0 34 2 51 15c12 9 23 24 28 41z" />
    <glyph glyph-name="Ohungarumlaut" unicode="&#x150;" horiz-adv-x="808" 
d="M675 591c73 -60 111 -147 111 -252c0 -202 -157 -356 -365 -356c-211 0 -373 148 -373 341c0 202 162 359 368 359c96 0 189 -33 259 -92zM410 193c76 0 132 61 132 142c0 71 -51 127 -118 127c-73 0 -132 -63 -132 -140c0 -74 50 -129 118 -129zM460 779l111 137
l111 -73l-143 -119zM242 779l111 137l111 -73l-143 -119z" />
    <glyph glyph-name="ohungarumlaut" unicode="&#x151;" horiz-adv-x="637" 
d="M320 493c175 0 291 -99 291 -249c0 -147 -125 -257 -290 -257c-169 0 -292 105 -292 249c0 148 124 257 291 257zM318 169c37 0 64 32 64 75c0 38 -25 66 -58 66c-36 0 -66 -34 -66 -75c0 -38 25 -66 60 -66zM145 596l100 146l112 -73l-133 -128zM349 596l100 146
l111 -73l-132 -128z" />
    <glyph glyph-name="OE" unicode="&#x152;" horiz-adv-x="984" 
d="M561 667h433l-21 -174h-195l-9 -73h178l-20 -165h-179l-9 -76h203l-22 -179h-441l10 83c-41 -47 -62 -64 -103 -82c-28 -12 -56 -18 -83 -18c-139 0 -255 154 -255 338c0 199 141 362 313 362c58 0 110 -23 152 -69c11 -12 23 -27 36 -43zM412 201c69 0 120 60 120 143
c0 77 -47 131 -114 131c-72 0 -126 -61 -126 -141c0 -77 50 -133 120 -133z" />
    <glyph glyph-name="oe" unicode="&#x153;" horiz-adv-x="945" 
d="M913 199h-330c0 -26 4 -46 17 -59c11 -11 22 -13 34 -13c11 0 20 2 29 11c5 5 10 12 12 23h229c-11 -47 -37 -96 -95 -133c-54 -35 -110 -41 -156 -41c-28 0 -80 3 -123 24c-26 13 -53 35 -74 67c-23 -29 -54 -55 -81 -68c-30 -15 -73 -23 -109 -23
c-75 0 -128 29 -164 65c-44 44 -73 110 -73 178c0 69 30 140 79 189c43 43 107 74 188 74c44 0 81 -12 108 -28c29 -17 54 -43 71 -68c19 27 42 49 73 67c40 23 75 29 117 29c73 0 133 -21 182 -73c41 -44 69 -110 69 -181c0 -13 -1 -27 -3 -40zM309 171c10 0 24 3 39 18
c14 15 23 34 23 59c0 18 -5 34 -15 44c-9 9 -24 15 -37 15s-28 -6 -38 -15c-16 -14 -24 -39 -24 -61c0 -16 4 -31 16 -44c10 -10 23 -16 36 -16zM593 300h109c-2 16 -10 36 -20 46c-7 7 -18 13 -34 13c-9 0 -25 -3 -38 -18c-10 -12 -16 -28 -17 -41z" />
    <glyph glyph-name="Racute" unicode="&#x154;" horiz-adv-x="701" 
d="M607 300c-30 -24 -49 -32 -99 -39l145 -261h-262l-60 161c-10 28 -21 64 -26 89l-7 -1c1 -22 1 -31 1 -49c0 -30 -2 -63 -5 -88l-13 -112h-242l82 667h265c109 0 160 -14 210 -54c49 -41 78 -103 78 -166c0 -58 -25 -113 -67 -147zM360 488h-19l-15 -120h20
c56 0 91 26 91 66c0 37 -24 54 -77 54zM276 779l127 137l117 -73l-157 -119z" />
    <glyph glyph-name="racute" unicode="&#x155;" horiz-adv-x="430" 
d="M425 484c8 0 15 -1 29 -4l-28 -230c-25 13 -36 17 -54 17c-57 0 -91 -44 -102 -130l-17 -137h-233l57 467h234c-7 -33 -10 -44 -26 -83l10 -5c43 78 78 105 130 105zM176 596l116 146l117 -73l-146 -128z" />
    <glyph glyph-name="Rcommaaccent" unicode="&#x156;" horiz-adv-x="701" 
d="M607 300c-30 -24 -49 -32 -99 -39l145 -261h-262l-60 161c-10 28 -21 64 -26 89l-7 -1c1 -22 1 -31 1 -49c0 -30 -2 -63 -5 -88l-13 -112h-242l82 667h265c109 0 160 -14 210 -54c49 -41 78 -103 78 -166c0 -58 -25 -113 -67 -147zM360 488h-19l-15 -120h20
c56 0 91 26 91 66c0 37 -24 54 -77 54zM447 -62l-125 -212h-155l84 212h196z" />
    <glyph glyph-name="rcommaaccent" unicode="&#x157;" horiz-adv-x="430" 
d="M425 484c8 0 15 -1 29 -4l-28 -230c-25 13 -36 17 -54 17c-57 0 -91 -44 -102 -130l-17 -137h-233l57 467h234c-7 -33 -10 -44 -26 -83l10 -5c43 78 78 105 130 105zM327 -62l-125 -212h-155l84 212h196z" />
    <glyph glyph-name="Rcaron" unicode="&#x158;" horiz-adv-x="701" 
d="M607 300c-30 -24 -49 -32 -99 -39l145 -261h-262l-60 161c-10 28 -21 64 -26 89l-7 -1c1 -22 1 -31 1 -49c0 -30 -2 -63 -5 -88l-13 -112h-242l82 667h265c109 0 160 -14 210 -54c49 -41 78 -103 78 -166c0 -58 -25 -113 -67 -147zM360 488h-19l-15 -120h20
c56 0 91 26 91 66c0 37 -24 54 -77 54zM518 918l55 -101l-187 -101l-161 115l67 87l97 -70z" />
    <glyph glyph-name="rcaron" unicode="&#x159;" horiz-adv-x="430" 
d="M425 484c8 0 15 -1 29 -4l-28 -230c-25 13 -36 17 -54 17c-57 0 -91 -44 -102 -130l-17 -137h-233l57 467h234c-7 -33 -10 -44 -26 -83l10 -5c43 78 78 105 130 105zM398 735l55 -101l-187 -101l-161 115l67 87l97 -70z" />
    <glyph glyph-name="Sacute" unicode="&#x15a;" horiz-adv-x="607" 
d="M556 636c10 -5 24 -12 42 -22l-89 -177c-42 38 -94 60 -146 60c-26 0 -46 -15 -46 -35c0 -21 12 -28 73 -43c46 -12 84 -27 108 -44c45 -30 73 -88 73 -149c0 -134 -130 -243 -291 -243c-62 0 -137 18 -202 48c-14 7 -35 17 -62 32l90 180c40 -49 104 -79 167 -79
c34 0 56 15 56 39c0 23 -19 37 -63 47c-46 9 -71 17 -95 30c-63 31 -96 87 -96 164c0 133 122 239 274 239c68 0 140 -16 207 -47zM256 779l127 137l117 -73l-157 -119z" />
    <glyph glyph-name="sacute" unicode="&#x15b;" horiz-adv-x="476" 
d="M271 493c63 0 124 -13 198 -42l-57 -141c-34 25 -72 39 -108 39c-26 0 -40 -8 -40 -24c0 -15 8 -22 27 -26l42 -10c70 -15 112 -64 112 -128c0 -102 -95 -174 -230 -174c-55 0 -104 10 -167 34c-11 5 -27 11 -48 20l56 141c50 -33 96 -49 137 -49c23 0 37 9 37 25
c0 17 -13 27 -52 36c-94 22 -127 55 -127 122c0 102 93 177 220 177zM191 596l116 146l117 -73l-146 -128z" />
    <glyph glyph-name="Scircumflex" unicode="&#x15c;" horiz-adv-x="607" 
d="M556 636c10 -5 24 -12 42 -22l-89 -177c-42 38 -94 60 -146 60c-26 0 -46 -15 -46 -35c0 -21 12 -28 73 -43c46 -12 84 -27 108 -44c45 -30 73 -88 73 -149c0 -134 -130 -243 -291 -243c-62 0 -137 18 -202 48c-14 7 -35 17 -62 32l90 180c40 -49 104 -79 167 -79
c34 0 56 15 56 39c0 23 -19 37 -63 47c-46 9 -71 17 -95 30c-63 31 -96 87 -96 164c0 133 122 239 274 239c68 0 140 -16 207 -47zM250 716l-55 101l187 101l161 -115l-66 -87l-98 70z" />
    <glyph glyph-name="scircumflex" unicode="&#x15d;" horiz-adv-x="476" 
d="M271 493c63 0 124 -13 198 -42l-57 -141c-34 25 -72 39 -108 39c-26 0 -40 -8 -40 -24c0 -15 8 -22 27 -26l42 -10c70 -15 112 -64 112 -128c0 -102 -95 -174 -230 -174c-55 0 -104 10 -167 34c-11 5 -27 11 -48 20l56 141c50 -33 96 -49 137 -49c23 0 37 9 37 25
c0 17 -13 27 -52 36c-94 22 -127 55 -127 122c0 102 93 177 220 177zM160 533l-55 101l187 101l161 -115l-66 -87l-98 70z" />
    <glyph glyph-name="Scedilla" unicode="&#x15e;" horiz-adv-x="607" 
d="M556 636c10 -5 24 -12 42 -22l-89 -177c-42 38 -94 60 -146 60c-26 0 -46 -15 -46 -35c0 -21 12 -28 73 -43c46 -12 84 -27 108 -44c45 -30 73 -88 73 -149c0 -134 -130 -243 -291 -243c-62 0 -137 18 -202 48c-14 7 -35 17 -62 32l90 180c40 -49 104 -79 167 -79
c34 0 56 15 56 39c0 23 -19 37 -63 47c-46 9 -71 17 -95 30c-63 31 -96 87 -96 164c0 133 122 239 274 239c68 0 140 -16 207 -47zM118 -190l152 147l116 -82l-158 -143z" />
    <glyph glyph-name="scedilla" unicode="&#x15f;" horiz-adv-x="476" 
d="M271 493c63 0 124 -13 198 -42l-57 -141c-34 25 -72 39 -108 39c-26 0 -40 -8 -40 -24c0 -15 8 -22 27 -26l42 -10c70 -15 112 -64 112 -128c0 -102 -95 -174 -230 -174c-55 0 -104 10 -167 34c-11 5 -27 11 -48 20l56 141c50 -33 96 -49 137 -49c23 0 37 9 37 25
c0 17 -13 27 -52 36c-94 22 -127 55 -127 122c0 102 93 177 220 177zM78 -180l134 135l106 -76l-140 -129z" />
    <glyph glyph-name="Scaron" unicode="&#x160;" horiz-adv-x="607" 
d="M556 636c10 -5 24 -12 42 -22l-89 -177c-42 38 -94 60 -146 60c-26 0 -46 -15 -46 -35c0 -21 12 -28 73 -43c46 -12 84 -27 108 -44c45 -30 73 -88 73 -149c0 -134 -130 -243 -291 -243c-62 0 -137 18 -202 48c-14 7 -35 17 -62 32l90 180c40 -49 104 -79 167 -79
c34 0 56 15 56 39c0 23 -19 37 -63 47c-46 9 -71 17 -95 30c-63 31 -96 87 -96 164c0 133 122 239 274 239c68 0 140 -16 207 -47zM488 918l55 -101l-187 -101l-161 115l67 87l97 -70z" />
    <glyph glyph-name="scaron" unicode="&#x161;" horiz-adv-x="476" 
d="M271 493c63 0 124 -13 198 -42l-57 -141c-34 25 -72 39 -108 39c-26 0 -40 -8 -40 -24c0 -15 8 -22 27 -26l42 -10c70 -15 112 -64 112 -128c0 -102 -95 -174 -230 -174c-55 0 -104 10 -167 34c-11 5 -27 11 -48 20l56 141c50 -33 96 -49 137 -49c23 0 37 9 37 25
c0 17 -13 27 -52 36c-94 22 -127 55 -127 122c0 102 93 177 220 177zM406 735l55 -101l-187 -101l-161 115l67 87l97 -70z" />
    <glyph glyph-name="Tcommaaccent" unicode="&#x162;" horiz-adv-x="480" 
d="M60 667h467l-26 -210l-106 7l-57 -464h-245l57 464l-115 -7zM319 -62l-125 -212h-155l84 212h196z" />
    <glyph glyph-name="tcommaaccent" unicode="&#x163;" horiz-adv-x="353" 
d="M362 288l-56 6l-36 -294h-231l36 294l-60 -6l23 183l57 -10l21 164h231l-20 -164l57 6zM277 -62l-125 -212h-155l84 212h196z" />
    <glyph glyph-name="Tcaron" unicode="&#x164;" horiz-adv-x="480" 
d="M60 667h467l-26 -210l-106 7l-57 -464h-245l57 464l-115 -7zM428 918l55 -101l-187 -101l-161 115l67 87l97 -70z" />
    <glyph glyph-name="tcaron" unicode="&#x165;" horiz-adv-x="586" 
d="M362 288l-56 6l-36 -294h-231l36 294l-60 -6l23 183l57 -10l21 164h231l-20 -164l57 6zM656 727l-126 -218h-152l85 218h193z" />
    <glyph glyph-name="Utilde" unicode="&#x168;" horiz-adv-x="758" 
d="M500 667h245l-45 -369c-18 -142 -34 -183 -93 -237c-59 -53 -131 -78 -226 -78c-97 0 -178 25 -236 72c-53 43 -75 95 -75 175c0 18 1 35 3 53l48 384h245l-45 -369c-3 -24 -5 -41 -5 -49c0 -40 22 -62 60 -62c46 0 68 29 78 102zM474 829c16 0 23 6 34 28l83 -42
c-46 -69 -71 -88 -112 -88c-17 0 -28 3 -58 13l-34 12c-14 4 -21 6 -28 6c-20 0 -30 -8 -39 -31l-90 28c44 74 82 102 139 102c20 0 30 -2 70 -18c18 -7 27 -10 35 -10z" />
    <glyph glyph-name="utilde" unicode="&#x169;" horiz-adv-x="633" 
d="M383 467h232l-32 -257c-11 -88 -29 -127 -77 -166c-50 -39 -111 -57 -191 -57c-171 0 -269 72 -269 199c0 16 1 34 3 54l28 227h232l-28 -227c-3 -23 -4 -37 -4 -41c0 -20 14 -35 34 -35c28 0 37 14 43 67zM455 673l74 -38c-34 -64 -67 -91 -109 -91c-19 0 -28 3 -57 17
c-16 8 -27 11 -37 11c-19 0 -32 -9 -46 -32l-77 40c51 66 79 87 117 87c14 0 31 -4 52 -13l23 -10c8 -3 15 -5 20 -5c12 0 22 7 34 25z" />
    <glyph glyph-name="Umacron" unicode="&#x16a;" horiz-adv-x="758" 
d="M500 667h245l-45 -369c-18 -142 -34 -183 -93 -237c-59 -53 -131 -78 -226 -78c-97 0 -178 25 -236 72c-53 43 -75 95 -75 175c0 18 1 35 3 53l48 384h245l-45 -369c-3 -24 -5 -41 -5 -49c0 -40 22 -62 60 -62c46 0 68 29 78 102zM615 746h-364l12 104h364z" />
    <glyph glyph-name="umacron" unicode="&#x16b;" horiz-adv-x="633" 
d="M383 467h232l-32 -257c-11 -88 -29 -127 -77 -166c-50 -39 -111 -57 -191 -57c-171 0 -269 72 -269 199c0 16 1 34 3 54l28 227h232l-28 -227c-3 -23 -4 -37 -4 -41c0 -20 14 -35 34 -35c28 0 37 14 43 67zM518 546h-340l12 100h340z" />
    <glyph glyph-name="Ubreve" unicode="&#x16c;" horiz-adv-x="758" 
d="M500 667h245l-45 -369c-18 -142 -34 -183 -93 -237c-59 -53 -131 -78 -226 -78c-97 0 -178 25 -236 72c-53 43 -75 95 -75 175c0 18 1 35 3 53l48 384h245l-45 -369c-3 -24 -5 -41 -5 -49c0 -40 22 -62 60 -62c46 0 68 29 78 102zM522 875h102c-7 -39 -26 -76 -53 -103
c-40 -39 -89 -49 -133 -49c-32 0 -75 4 -112 31c-43 31 -55 80 -56 121h102c2 -13 8 -30 19 -40c9 -9 26 -16 52 -16c14 0 34 2 51 15c12 9 23 24 28 41z" />
    <glyph glyph-name="ubreve" unicode="&#x16d;" horiz-adv-x="633" 
d="M383 467h232l-32 -257c-11 -88 -29 -127 -77 -166c-50 -39 -111 -57 -191 -57c-171 0 -269 72 -269 199c0 16 1 34 3 54l28 227h232l-28 -227c-3 -23 -4 -37 -4 -41c0 -20 14 -35 34 -35c28 0 37 14 43 67zM442 691h102c-7 -39 -26 -76 -53 -103
c-39 -39 -88 -49 -134 -49c-31 0 -74 4 -111 31c-43 31 -55 80 -56 121h102c2 -13 8 -30 19 -40c9 -9 26 -16 52 -16c14 0 34 2 51 15c12 9 23 24 28 41z" />
    <glyph glyph-name="Uring" unicode="&#x16e;" horiz-adv-x="758" 
d="M500 667h245l-45 -369c-18 -142 -34 -183 -93 -237c-59 -53 -131 -78 -226 -78c-97 0 -178 25 -236 72c-53 43 -75 95 -75 175c0 18 1 35 3 53l48 384h245l-45 -369c-3 -24 -5 -41 -5 -49c0 -40 22 -62 60 -62c46 0 68 29 78 102zM579 826c0 -33 -16 -63 -40 -81
c-31 -24 -73 -28 -104 -28c-48 0 -81 10 -103 27c-25 19 -41 50 -41 82c0 29 13 59 40 80c31 24 73 28 104 28c30 0 74 -4 104 -28c24 -19 40 -50 40 -80zM435 860c-20 0 -30 -5 -35 -8c-11 -7 -15 -17 -15 -28c0 -12 5 -19 15 -25s22 -8 35 -8c8 0 24 1 36 8
c10 6 14 14 14 27c0 10 -4 19 -14 26c-10 6 -25 8 -36 8z" />
    <glyph glyph-name="uring" unicode="&#x16f;" horiz-adv-x="633" 
d="M383 467h232l-32 -257c-11 -88 -29 -127 -77 -166c-50 -39 -111 -57 -191 -57c-171 0 -269 72 -269 199c0 16 1 34 3 54l28 227h232l-28 -227c-3 -23 -4 -37 -4 -41c0 -20 14 -35 34 -35c28 0 37 14 43 67zM494 645c0 -33 -16 -63 -40 -81c-31 -24 -73 -28 -104 -28
c-48 0 -81 10 -103 27c-25 19 -41 50 -41 82c0 29 13 59 40 80c31 24 73 28 104 28c30 0 74 -4 104 -28c24 -19 40 -50 40 -80zM350 679c-20 0 -30 -5 -35 -8c-11 -7 -15 -17 -15 -28c0 -12 5 -19 15 -25s22 -8 35 -8c8 0 24 1 36 8c10 6 14 14 14 27c0 10 -4 19 -14 26
c-10 6 -25 8 -36 8z" />
    <glyph glyph-name="Uhungarumlaut" unicode="&#x170;" horiz-adv-x="758" 
d="M500 667h245l-45 -369c-18 -142 -34 -183 -93 -237c-59 -53 -131 -78 -226 -78c-97 0 -178 25 -236 72c-53 43 -75 95 -75 175c0 18 1 35 3 53l48 384h245l-45 -369c-3 -24 -5 -41 -5 -49c0 -40 22 -62 60 -62c46 0 68 29 78 102zM480 779l111 137l111 -73l-143 -119z
M262 779l111 137l111 -73l-143 -119z" />
    <glyph glyph-name="uhungarumlaut" unicode="&#x171;" horiz-adv-x="633" 
d="M383 467h232l-32 -257c-11 -88 -29 -127 -77 -166c-50 -39 -111 -57 -191 -57c-171 0 -269 72 -269 199c0 16 1 34 3 54l28 227h232l-28 -227c-3 -23 -4 -37 -4 -41c0 -20 14 -35 34 -35c28 0 37 14 43 67zM160 596l100 146l112 -73l-133 -128zM364 596l100 146l111 -73
l-132 -128z" />
    <glyph glyph-name="Uogonek" unicode="&#x172;" horiz-adv-x="758" 
d="M500 667h245l-48 -392c-8 -68 -15 -139 -67 -198c-26 -29 -60 -50 -86 -64c-30 -16 -50 -24 -76 -42c-12 -8 -34 -25 -34 -48c0 -8 3 -17 10 -23c8 -8 18 -9 28 -9c14 0 38 2 63 25l-33 -95c-33 -18 -67 -23 -95 -23c-12 0 -50 1 -73 22c-15 13 -24 35 -24 59
c0 37 20 61 39 80c10 10 18 17 29 24c-62 0 -177 11 -250 87c-44 47 -59 100 -59 158c0 18 3 44 5 63l47 376h245l-45 -369c-3 -27 -5 -39 -5 -49c0 -25 9 -39 17 -47c13 -13 30 -15 43 -15c15 0 33 3 48 18c21 21 28 66 30 84z" />
    <glyph glyph-name="uogonek" unicode="&#x173;" horiz-adv-x="633" 
d="M383 467h232l-32 -257c-5 -44 -12 -92 -49 -138c-24 -29 -53 -48 -85 -66c-23 -13 -47 -25 -66 -42c-11 -9 -22 -23 -22 -41c0 -8 2 -15 9 -20c8 -7 18 -8 27 -8c14 0 32 3 55 23l-29 -87c-32 -18 -69 -21 -87 -21c-29 0 -54 8 -69 23c-11 10 -19 26 -19 49
c0 36 17 58 35 75c12 11 29 23 40 30c-126 0 -190 31 -228 71c-38 41 -49 86 -49 132c0 19 3 42 5 61l26 216h232l-27 -216c-2 -19 -5 -37 -5 -46c0 -13 3 -26 11 -33c6 -5 15 -8 23 -8c11 0 20 3 26 8c10 9 13 25 17 59z" />
    <glyph glyph-name="Ydieresis" unicode="&#x178;" horiz-adv-x="684" 
d="M745 667l-281 -384l-35 -283h-240l36 289l-178 378h265l34 -109c8 -25 11 -42 13 -76h9c6 22 13 40 24 63l62 122h291zM178 833c0 56 44 100 100 100s100 -44 100 -100s-44 -100 -100 -100s-100 44 -100 100zM425 833c0 56 44 100 100 100s100 -44 100 -100
s-44 -100 -100 -100s-100 44 -100 100z" />
    <glyph glyph-name="Zacute" unicode="&#x179;" horiz-adv-x="633" 
d="M435 194l181 4l-24 -198h-607l8 60l233 328c35 48 49 64 72 78l-3 8c-29 -9 -47 -11 -87 -13l-153 -4l26 210h582l-8 -59l-247 -348c-32 -44 -41 -54 -65 -71l4 -8c33 10 40 11 88 13zM286 779l127 137l117 -73l-157 -119z" />
    <glyph glyph-name="zacute" unicode="&#x17a;" horiz-adv-x="515" 
d="M62 467h461l-4 -30l-144 -204c-17 -24 -37 -42 -57 -56l4 -11c18 9 29 11 58 11h107l-22 -177h-472l4 35l139 207c26 33 35 43 58 57l-5 9c-20 -11 -38 -15 -64 -15h-84zM201 596l116 146l117 -73l-146 -128z" />
    <glyph glyph-name="Zdotaccent" unicode="&#x17b;" horiz-adv-x="633" 
d="M435 194l181 4l-24 -198h-607l8 60l233 328c35 48 49 64 72 78l-3 8c-29 -9 -47 -11 -87 -13l-153 -4l26 210h582l-8 -59l-247 -348c-32 -44 -41 -54 -65 -71l4 -8c33 10 40 11 88 13zM264 825c0 57 46 103 103 103c56 0 102 -46 102 -103c0 -56 -46 -102 -102 -102
c-57 0 -103 46 -103 102z" />
    <glyph glyph-name="zdotaccent" unicode="&#x17c;" horiz-adv-x="515" 
d="M62 467h461l-4 -30l-144 -204c-17 -24 -37 -42 -57 -56l4 -11c18 9 29 11 58 11h107l-22 -177h-472l4 35l139 207c26 33 35 43 58 57l-5 9c-20 -11 -38 -15 -64 -15h-84zM193 642c0 57 46 103 103 103c56 0 102 -46 102 -103c0 -56 -46 -102 -102 -102
c-57 0 -103 46 -103 102z" />
    <glyph glyph-name="Zcaron" unicode="&#x17d;" horiz-adv-x="633" 
d="M435 194l181 4l-24 -198h-607l8 60l233 328c35 48 49 64 72 78l-3 8c-29 -9 -47 -11 -87 -13l-153 -4l26 210h582l-8 -59l-247 -348c-32 -44 -41 -54 -65 -71l4 -8c33 10 40 11 88 13zM494 918l55 -101l-187 -101l-161 115l67 87l97 -70z" />
    <glyph glyph-name="zcaron" unicode="&#x17e;" horiz-adv-x="515" 
d="M62 467h461l-4 -30l-144 -204c-17 -24 -37 -42 -57 -56l4 -11c18 9 29 11 58 11h107l-22 -177h-472l4 35l139 207c26 33 35 43 58 57l-5 9c-20 -11 -38 -15 -64 -15h-84zM425 735l55 -101l-187 -101l-161 115l67 87l97 -70z" />
    <glyph glyph-name="uni018F" unicode="&#x18f;" horiz-adv-x="782" 
d="M287 431l-220 37c37 79 92 131 141 161c70 43 146 54 209 54c129 0 207 -47 252 -93c57 -58 91 -145 91 -238c0 -106 -37 -206 -103 -273c-83 -84 -183 -96 -266 -96c-86 0 -176 15 -250 92c-96 99 -98 237 -90 311h466c-1 27 -12 65 -35 88c-15 15 -42 29 -80 29
c-23 0 -53 -6 -74 -21c-18 -12 -33 -32 -41 -51zM502 258h-245c2 -29 15 -54 31 -69c18 -16 46 -26 81 -26c25 0 61 6 85 23c20 14 40 40 48 72z" />
    <glyph glyph-name="florin" unicode="&#x192;" horiz-adv-x="707" 
d="M465 321l-69 -292c-12 -53 -32 -117 -77 -160c-58 -55 -145 -62 -204 -62c-28 0 -46 1 -69 6l40 169h12c16 0 46 0 66 14c21 15 29 44 32 57l66 268h-60l31 124h60l27 110c12 47 25 94 68 133c40 37 90 52 147 52c50 0 85 -13 107 -22l-40 -167c-15 9 -27 12 -39 12
c-15 0 -26 -5 -33 -12c-8 -7 -13 -21 -16 -32l-18 -74h69l-31 -124h-69z" />
    <glyph glyph-name="uni01CF" unicode="&#x1cf;" horiz-adv-x="379" 
d="M121 667h245l-82 -667h-245zM378 918l55 -101l-187 -101l-161 115l67 87l97 -70z" />
    <glyph glyph-name="uni01D0" unicode="&#x1d0;" horiz-adv-x="332" 
d="M81 467h231l-57 -467h-231zM334 735l55 -101l-187 -101l-161 115l67 87l97 -70z" />
    <glyph glyph-name="uni01DD" unicode="&#x1dd;" horiz-adv-x="612" 
d="M31 275h331c4 22 4 59 -12 77c-6 7 -18 14 -38 14c-15 0 -28 -4 -39 -14c-8 -8 -17 -21 -21 -32l-196 38c28 48 65 79 101 99c39 22 92 37 159 37c102 0 164 -37 201 -73c33 -32 69 -86 69 -171c0 -78 -30 -146 -78 -193c-60 -59 -130 -71 -201 -71
c-66 0 -149 12 -208 69c-48 46 -79 126 -68 220zM348 174h-107c-1 -16 4 -36 15 -47c6 -6 17 -13 34 -13c19 0 31 7 37 13c11 10 19 30 21 47z" />
    <glyph glyph-name="Gcaron" unicode="&#x1e6;" horiz-adv-x="807" 
d="M418 388h365v-6c0 -90 -20 -212 -110 -301c-83 -82 -178 -98 -267 -98c-93 0 -181 17 -261 96c-47 46 -98 122 -98 238c0 99 38 191 102 256c43 44 135 111 294 111c142 0 248 -51 319 -169l-227 -89c-11 22 -36 56 -89 56c-41 0 -77 -15 -102 -38
c-32 -30 -55 -80 -55 -137c0 -43 14 -77 38 -102c27 -28 58 -36 94 -36c26 0 85 6 107 73h-130zM572 918l55 -101l-187 -101l-161 115l67 87l97 -70z" />
    <glyph glyph-name="gcaron" unicode="&#x1e7;" horiz-adv-x="644" 
d="M397 467h228l-52 -421c-13 -110 -38 -163 -97 -207c-57 -44 -135 -68 -221 -68c-65 0 -148 16 -213 41c-7 2 -17 6 -30 12l62 152c59 -36 100 -50 150 -50c49 0 92 22 111 57c11 22 15 36 28 100l-7 2c-30 -65 -67 -88 -136 -88c-111 0 -193 94 -193 221
c0 148 101 265 229 265c70 0 114 -29 138 -95l7 2l-2 27l-1 34zM312 163c38 0 65 29 65 69c0 38 -23 66 -55 66c-37 0 -67 -33 -67 -73c0 -37 24 -62 57 -62zM483 735l55 -101l-187 -101l-161 115l67 87l97 -70z" />
    <glyph glyph-name="AEacute" unicode="&#x1fc;" horiz-adv-x="920" 
d="M289 667h478l31 -175h-203l12 -71h204l29 -170h-203l13 -70h203l32 -181h-446l-4 88h-165l-32 -88h-259zM375 370l-48 -131h93l-12 131c-1 9 -1 20 -1 32c0 22 1 33 4 57l-11 2c-7 -39 -11 -53 -25 -91zM436 779l127 137l117 -73l-157 -119z" />
    <glyph glyph-name="aeacute" unicode="&#x1fd;" horiz-adv-x="945" 
d="M913 203h-331c-1 -5 -1 -11 -1 -16c0 -37 21 -62 52 -62c11 0 26 4 34 11c5 5 13 19 16 27h222c-14 -45 -40 -90 -95 -127c-53 -36 -111 -49 -172 -49c-76 0 -150 17 -208 73c-23 -24 -53 -46 -83 -57c-19 -7 -53 -16 -110 -16c-48 0 -110 6 -158 43
c-44 34 -60 81 -60 124c0 50 23 84 44 104c26 25 72 51 153 51c28 0 54 -2 85 -14c25 -10 45 -22 63 -41c2 10 3 22 3 31c0 33 -13 51 -38 66c-28 17 -62 19 -89 19c-66 0 -129 -21 -178 -46l17 133c21 9 90 36 180 36c107 0 158 -31 191 -67c26 25 80 67 194 67
c99 0 163 -37 203 -78c44 -46 70 -108 70 -171c0 -14 -1 -27 -4 -41zM295 97c18 0 40 4 55 14c18 12 23 28 23 40c0 18 -10 31 -20 38c-16 11 -42 14 -60 14c-11 0 -39 -1 -56 -13c-11 -8 -20 -23 -20 -40c0 -12 4 -27 21 -39c18 -13 41 -14 57 -14zM592 299h108
c0 30 -15 62 -50 62c-33 0 -55 -26 -58 -62zM453 596l116 146l117 -73l-146 -128z" />
    <glyph glyph-name="Scommaaccent" unicode="&#x218;" horiz-adv-x="607" 
d="M556 636c10 -5 24 -12 42 -22l-89 -177c-42 38 -94 60 -146 60c-26 0 -46 -15 -46 -35c0 -21 12 -28 73 -43c46 -12 84 -27 108 -44c45 -30 73 -88 73 -149c0 -134 -130 -243 -291 -243c-62 0 -137 18 -202 48c-14 7 -35 17 -62 32l90 180c40 -49 104 -79 167 -79
c34 0 56 15 56 39c0 23 -19 37 -63 47c-46 9 -71 17 -95 30c-63 31 -96 87 -96 164c0 133 122 239 274 239c68 0 140 -16 207 -47zM407 -62l-125 -212h-155l84 212h196z" />
    <glyph glyph-name="scommaaccent" unicode="&#x219;" horiz-adv-x="476" 
d="M271 493c63 0 124 -13 198 -42l-57 -141c-34 25 -72 39 -108 39c-26 0 -40 -8 -40 -24c0 -15 8 -22 27 -26l42 -10c70 -15 112 -64 112 -128c0 -102 -95 -174 -230 -174c-55 0 -104 10 -167 34c-11 5 -27 11 -48 20l56 141c50 -33 96 -49 137 -49c23 0 37 9 37 25
c0 17 -13 27 -52 36c-94 22 -127 55 -127 122c0 102 93 177 220 177zM347 -62l-125 -212h-155l84 212h196z" />
    <glyph glyph-name="uni021A" unicode="&#x21a;" horiz-adv-x="480" 
d="M60 667h467l-26 -210l-106 7l-57 -464h-245l57 464l-115 -7zM319 -62l-125 -212h-155l84 212h196z" />
    <glyph glyph-name="uni021B" unicode="&#x21b;" horiz-adv-x="353" 
d="M362 288l-56 6l-36 -294h-231l36 294l-60 -6l23 183l57 -10l21 164h231l-20 -164l57 6zM277 -62l-125 -212h-155l84 212h196z" />
    <glyph glyph-name="uni0228" unicode="&#x228;" horiz-adv-x="549" 
d="M121 667h438l-21 -174h-197l-9 -73h180l-20 -165h-180l-9 -76h204l-22 -179h-446zM133 -190l152 147l116 -82l-158 -143z" />
    <glyph glyph-name="uni0229" unicode="&#x229;" horiz-adv-x="618" 
d="M587 202h-331c-1 -6 -1 -12 -1 -17c0 -38 20 -63 51 -63c24 0 39 12 50 40h222c-18 -53 -31 -74 -65 -104c-54 -47 -124 -71 -205 -71c-166 0 -280 98 -280 242c0 151 124 265 288 265c154 0 275 -107 275 -244c0 -11 -2 -27 -4 -48zM322 360c-32 0 -50 -19 -57 -62h108
c-1 42 -17 62 -51 62zM185 -180l134 135l106 -76l-140 -129z" />
    <glyph glyph-name="uni0237" unicode="&#x237;" horiz-adv-x="337" 
d="M86 467h231l-85 -696h-231z" />
    <glyph glyph-name="uni0259" unicode="&#x259;" horiz-adv-x="612" 
d="M31 275h331c4 22 4 59 -12 77c-6 7 -18 14 -38 14c-15 0 -28 -4 -39 -14c-8 -8 -17 -21 -21 -32l-196 38c28 48 65 79 101 99c39 22 92 37 159 37c102 0 164 -37 201 -73c33 -32 69 -86 69 -171c0 -78 -30 -146 -78 -193c-60 -59 -130 -71 -201 -71
c-66 0 -149 12 -208 69c-48 46 -79 126 -68 220zM348 174h-107c-1 -16 4 -36 15 -47c6 -6 17 -13 34 -13c19 0 31 7 37 13c11 10 19 30 21 47z" />
    <glyph glyph-name="afii57929" unicode="&#x2bc;" 
d="M426 667l-126 -218h-152l85 218h193z" />
    <glyph glyph-name="circumflex" unicode="&#x2c6;" 
d="M180 533l-55 101l187 101l161 -115l-66 -87l-98 70z" />
    <glyph glyph-name="caron" unicode="&#x2c7;" 
d="M418 735l55 -101l-187 -101l-161 115l67 87l97 -70z" />
    <glyph glyph-name="uni02C9" unicode="&#x2c9;" 
d="M458 546h-340l12 100h340z" />
    <glyph glyph-name="breve" unicode="&#x2d8;" 
d="M382 691h102c-7 -39 -26 -76 -53 -103c-39 -39 -88 -49 -134 -49c-31 0 -74 4 -111 31c-43 31 -55 80 -56 121h102c2 -13 8 -30 19 -40c9 -9 26 -16 52 -16c14 0 34 2 51 15c12 9 23 24 28 41z" />
    <glyph glyph-name="dotaccent" unicode="&#x2d9;" 
d="M198 642c0 57 46 103 103 103c56 0 102 -46 102 -103c0 -56 -46 -102 -102 -102c-57 0 -103 46 -103 102z" />
    <glyph glyph-name="ring" unicode="&#x2da;" 
d="M434 645c0 -33 -16 -63 -40 -81c-31 -24 -73 -28 -104 -28c-48 0 -81 10 -103 27c-25 19 -41 50 -41 82c0 29 13 59 40 80c31 24 73 28 104 28c30 0 74 -4 104 -28c24 -19 40 -50 40 -80zM290 679c-20 0 -30 -5 -35 -8c-11 -7 -15 -17 -15 -28c0 -12 5 -19 15 -25
s22 -8 35 -8c8 0 24 1 36 8c10 6 14 14 14 27c0 10 -4 19 -14 26c-10 6 -25 8 -36 8z" />
    <glyph glyph-name="ogonek" unicode="&#x2db;" 
d="M318 0c-10 -8 -27 -21 -36 -31c-8 -9 -18 -22 -18 -40c0 -8 2 -14 9 -20c8 -7 18 -8 27 -8c14 0 32 3 55 23l-29 -87c-32 -18 -69 -21 -87 -21c-29 0 -54 8 -69 23c-11 10 -19 26 -19 49c0 36 17 58 35 75c12 11 34 27 50 37h82z" />
    <glyph glyph-name="tilde" unicode="&#x2dc;" 
d="M389 673l74 -38c-34 -64 -67 -91 -109 -91c-19 0 -28 3 -57 17c-16 8 -27 11 -37 11c-19 0 -32 -9 -46 -32l-77 40c51 66 79 87 117 87c14 0 31 -4 52 -13l23 -10c8 -3 15 -5 20 -5c12 0 22 7 34 25z" />
    <glyph glyph-name="hungarumlaut" unicode="&#x2dd;" 
d="M110 596l100 146l112 -73l-133 -128zM314 596l100 146l111 -73l-132 -128z" />
    <glyph glyph-name="acutecomb" unicode="&#x301;" horiz-adv-x="2" 
d="M-141 641l-149 -108l-75 70l127 120z" />
    <glyph glyph-name="uni0313" unicode="&#x313;" 
d="M426 667l-126 -218h-152l85 218h193z" />
    <glyph glyph-name="uni0315" unicode="&#x315;" 
d="M426 667l-126 -218h-152l85 218h193z" />
    <glyph glyph-name="uni0326" unicode="&#x326;" 
d="M367 -62l-125 -212h-155l84 212h196z" />
    <glyph glyph-name="uni037E" unicode="&#x37e;" horiz-adv-x="344" 
d="M75 183h233l-187 -343h-178zM225 493c72 0 129 -49 129 -111c0 -64 -60 -114 -135 -114c-73 0 -128 46 -128 107c0 64 61 118 134 118z" />
    <glyph glyph-name="anoteleia" unicode="&#x387;" horiz-adv-x="275" 
d="M153 452c76 0 136 -52 136 -117c0 -67 -63 -119 -142 -119c-77 0 -135 48 -135 112c0 67 65 124 141 124z" />
    <glyph glyph-name="uni0394" unicode="&#x394;" horiz-adv-x="667" 
d="M622 0h-634l245 667h141zM304 508l-130 -390h260z" />
    <glyph glyph-name="uni03A9" unicode="&#x3a9;" horiz-adv-x="667" 
d="M294 0h-271v117h136c-52 33 -76 56 -99 94c-24 42 -37 95 -37 155c0 183 129 317 305 317s305 -134 305 -317c0 -82 -23 -147 -68 -196c-19 -21 -33 -31 -68 -53h136v-117h-270v104c50 28 76 53 98 92c23 40 36 98 36 156c0 125 -71 214 -169 214s-169 -90 -169 -214
c0 -84 23 -153 69 -200c20 -20 32 -30 66 -48v-104z" />
    <glyph glyph-name="uni03BC" unicode="&#x3bc;" horiz-adv-x="661" 
d="M219 -230h-223l85 697h232l-34 -278c0 -4 -1 -8 -1 -13c0 -9 2 -19 7 -27s15 -17 35 -17c17 0 31 7 40 16c11 11 15 29 17 43l34 276h232l-57 -467h-223l1 9c0 4 2 13 11 51h-6c-5 -17 -16 -39 -25 -49c-7 -8 -20 -17 -41 -17c-17 0 -29 7 -37 18c-7 10 -14 32 -16 48h-6
c2 -14 3 -32 3 -47c0 -8 0 -16 -1 -23z" />
    <glyph glyph-name="pi" unicode="&#x3c0;" horiz-adv-x="766" 
d="M352 -1h-226v313h-78v154h690v-154h-78v-313h-226v313h-82v-313z" />
    <glyph glyph-name="afii10023" unicode="&#x401;" horiz-adv-x="549" 
d="M121 667h438l-21 -174h-197l-9 -73h180l-20 -165h-180l-9 -76h204l-22 -179h-446zM131 809c0 56 44 100 100 100s100 -44 100 -100s-44 -100 -100 -100s-100 44 -100 100zM378 809c0 56 44 100 100 100s100 -44 100 -100s-44 -100 -100 -100s-100 44 -100 100z" />
    <glyph glyph-name="afii10051" unicode="&#x402;" horiz-adv-x="785" 
d="M104 0l56 464l-120 -6l25 209h586l-25 -209l-224 6l-10 -88c44 16 87 23 130 23c76 0 138 -21 176 -56c29 -26 57 -70 57 -142c0 -84 -36 -134 -61 -158c-56 -54 -132 -59 -185 -59c-41 0 -74 3 -115 16l49 143c8 -8 17 -12 30 -12c9 0 24 1 35 13c12 13 13 31 13 43
c0 11 -1 24 -15 36c-16 14 -38 16 -53 16c-39 0 -72 -12 -80 -15l-27 -224h-242z" />
    <glyph glyph-name="afii10052" unicode="&#x403;" horiz-adv-x="535" 
d="M121 667h438l-22 -178h-196l-60 -489h-242zM266 779l127 137l117 -73l-157 -119z" />
    <glyph glyph-name="afii10053" unicode="&#x404;" horiz-adv-x="681" 
d="M625 247l-26 -217c-70 -36 -137 -47 -206 -47c-77 0 -177 13 -257 93c-57 57 -89 134 -89 234c0 120 46 215 107 274c86 83 195 99 279 99c127 0 201 -35 238 -56l-27 -221c-21 26 -50 50 -76 64c-22 11 -55 23 -101 23c-30 0 -61 -6 -90 -23c-19 -12 -41 -30 -56 -60
h217l-18 -146h-217c5 -21 17 -48 48 -67c26 -16 65 -24 98 -24c34 0 71 7 101 21c26 12 54 33 75 53z" />
    <glyph glyph-name="afii10054" unicode="&#x405;" horiz-adv-x="607" 
d="M556 636c10 -5 24 -12 42 -22l-89 -177c-42 38 -94 60 -146 60c-26 0 -46 -15 -46 -35c0 -21 12 -28 73 -43c46 -12 84 -27 108 -44c45 -30 73 -88 73 -149c0 -134 -130 -243 -291 -243c-62 0 -137 18 -202 48c-14 7 -35 17 -62 32l90 180c40 -49 104 -79 167 -79
c34 0 56 15 56 39c0 23 -19 37 -63 47c-46 9 -71 17 -95 30c-63 31 -96 87 -96 164c0 133 122 239 274 239c68 0 140 -16 207 -47z" />
    <glyph glyph-name="afii10055" unicode="&#x406;" horiz-adv-x="379" 
d="M121 667h245l-82 -667h-245z" />
    <glyph glyph-name="afii10056" unicode="&#x407;" horiz-adv-x="400" 
d="M293 0h-242l82 667h242zM382 902c29 0 47 -12 57 -22c10 -11 22 -29 22 -60c0 -33 -12 -60 -30 -77c-12 -11 -32 -23 -61 -23s-47 12 -57 22c-10 11 -22 29 -22 60c0 33 12 60 30 77c12 11 32 23 61 23zM176 902c29 0 47 -12 57 -22c10 -11 22 -29 22 -60
c0 -33 -12 -60 -30 -77c-12 -11 -32 -23 -61 -23s-47 12 -57 22c-10 11 -22 29 -22 60c0 33 12 60 30 77c12 11 32 23 61 23z" />
    <glyph glyph-name="afii10057" unicode="&#x408;" horiz-adv-x="456" 
d="M201 667h242l-57 -467c-11 -85 -26 -119 -68 -155c-45 -39 -108 -62 -173 -62c-61 0 -117 17 -179 52l78 216c18 -39 42 -60 67 -60s33 13 39 60z" />
    <glyph glyph-name="afii10058" unicode="&#x409;" horiz-adv-x="1118" 
d="M759 413h84c72 0 149 -11 195 -56c25 -25 50 -68 50 -132c0 -94 -43 -147 -83 -176c-64 -45 -152 -49 -208 -49h-328l59 471h-136l-27 -215c-13 -104 -54 -164 -85 -195c-66 -66 -148 -72 -206 -72c-33 0 -62 2 -94 8l22 194c13 -5 23 -6 39 -6c22 0 51 3 74 26
c27 27 34 75 37 97l44 359h594zM727 156h23c36 0 56 3 71 10c22 11 29 28 29 50c0 12 -2 27 -19 37c-10 6 -25 10 -62 10h-29z" />
    <glyph glyph-name="afii10059" unicode="&#x40a;" horiz-adv-x="1072" 
d="M744 667l-31 -254h84c72 0 149 -11 195 -56c25 -25 50 -68 50 -132c0 -94 -43 -147 -83 -176c-64 -45 -152 -49 -208 -49h-328l32 257h-144l-30 -257h-242l82 667h242l-31 -254h142l32 254h238zM681 156h23c36 0 56 3 71 10c23 11 28 28 28 44c0 15 -3 28 -19 37
c-12 7 -30 10 -62 10h-28z" />
    <glyph glyph-name="afii10060" unicode="&#x40b;" horiz-adv-x="783" 
d="M723 0h-240l15 131c2 13 4 26 4 40c0 13 -3 27 -17 37c-7 5 -21 13 -53 13c-19 0 -42 -2 -61 -6l-26 -215h-242l57 464l-120 -6l25 209h586l-25 -209l-224 6l-10 -78c41 10 75 12 116 12c84 0 135 -15 169 -36c53 -33 71 -81 71 -137c0 -31 -4 -55 -7 -79z" />
    <glyph glyph-name="afii10061" unicode="&#x40c;" horiz-adv-x="732" 
d="M121 667h242l-22 -173c-4 -32 -11 -75 -21 -116l7 -2c14 36 27 62 42 85l23 37l106 169h282l-260 -338l170 -329h-255l-85 192c-18 41 -25 61 -34 98l-7 -1v-20c0 -21 -2 -54 -5 -77l-23 -192h-242zM346 779l127 137l117 -73l-157 -119z" />
    <glyph glyph-name="afii10062" unicode="&#x40e;" horiz-adv-x="714" 
d="M40 667h259l72 -188c9 -24 15 -45 17 -73h8c6 24 15 52 26 75l90 186h263l-389 -667h-266l87 153c16 28 29 48 53 73zM506 904l138 -50c-18 -44 -50 -80 -83 -99c-49 -28 -121 -30 -142 -30c-79 0 -121 21 -137 30c-13 8 -57 36 -80 99l144 50c2 -17 10 -37 23 -48
c12 -10 32 -15 51 -15c6 0 33 0 53 13c15 10 28 30 33 50z" />
    <glyph glyph-name="afii10145" unicode="&#x40f;" horiz-adv-x="761" 
d="M39 0l82 667h242l-58 -471h142l58 471h243l-82 -667h-212l-19 -149h-206l20 149h-210z" />
    <glyph glyph-name="afii10017" unicode="&#x410;" horiz-adv-x="708" 
d="M428 89h-164l-32 -89h-260l308 667h276l124 -667h-247zM365 362l-45 -121h92l-10 121c-1 11 -2 28 -2 47c0 24 1 31 3 53h-8c-9 -39 -15 -61 -30 -100z" />
    <glyph glyph-name="afii10018" unicode="&#x411;" horiz-adv-x="677" 
d="M121 667h518l-20 -178h-287l-10 -76h80c101 0 161 -24 195 -56c25 -24 50 -66 50 -134c0 -82 -31 -138 -83 -174c-64 -45 -149 -49 -208 -49h-317zM291 156h23c36 0 56 3 71 10c22 11 29 28 29 51c0 12 -3 26 -19 36c-10 6 -25 10 -62 10h-29z" />
    <glyph glyph-name="afii10019" unicode="&#x412;" horiz-adv-x="681" 
d="M530 348l1 -6c70 -15 109 -67 109 -143c0 -118 -96 -199 -227 -199h-374l82 667h299c107 0 171 -31 204 -98c11 -24 17 -51 17 -72c0 -79 -40 -133 -111 -149zM367 507h-34l-12 -96h21c52 0 75 15 75 52c0 30 -18 44 -50 44zM345 271h-41l-14 -115h16c71 0 102 18 102 69
c0 32 -19 46 -63 46z" />
    <glyph glyph-name="afii10020" unicode="&#x413;" horiz-adv-x="535" 
d="M121 667h438l-22 -178h-196l-60 -489h-242z" />
    <glyph glyph-name="afii10021" unicode="&#x414;" horiz-adv-x="825" 
d="M201 667h577l-58 -471h80l-40 -329h-204l16 133h-382l-16 -133h-204l40 329c43 -1 79 15 101 36c38 37 50 107 58 173zM396 474l-16 -126c-4 -35 -11 -68 -27 -97c-18 -32 -41 -48 -56 -56v-3h185l34 282h-120z" />
    <glyph glyph-name="afii10022" unicode="&#x415;" horiz-adv-x="549" 
d="M121 667h438l-21 -174h-197l-9 -73h180l-20 -165h-180l-9 -76h204l-22 -179h-446z" />
    <glyph glyph-name="afii10024" unicode="&#x416;" horiz-adv-x="1063" 
d="M388 0l23 192c0 3 3 23 17 97l-8 1c-14 -31 -33 -66 -55 -98l-133 -192h-247l248 356l-150 311h250l75 -197c15 -39 21 -91 21 -94l10 2c3 47 2 39 3 57c1 28 3 36 6 59l22 173h230l-23 -173c-4 -31 -6 -59 -21 -116l10 -2c12 38 31 72 39 85l129 206h259l-242 -320
l163 -347h-243l-85 192c-10 23 -23 52 -31 98l-10 -1c0 -25 -3 -76 -5 -97l-22 -192h-230z" />
    <glyph glyph-name="afii10025" unicode="&#x417;" horiz-adv-x="653" 
d="M144 437l-56 178c124 60 215 68 265 68c66 0 135 -15 183 -49c55 -38 77 -93 77 -144c0 -44 -19 -82 -42 -105c-15 -15 -40 -29 -64 -37l-1 -6c23 -6 48 -19 66 -37c30 -30 37 -67 37 -95c0 -51 -17 -127 -97 -178c-52 -33 -125 -49 -199 -49c-63 0 -126 10 -177 27
c-41 14 -87 36 -120 55l85 180c22 -25 46 -44 76 -58c29 -14 58 -22 93 -22c18 0 42 2 57 9c18 8 28 24 28 39c0 9 -4 24 -25 32c-13 5 -39 7 -56 7h-85l20 162h67c44 0 62 7 67 9c24 10 27 27 27 35c0 7 -4 21 -22 30c-13 6 -31 9 -49 9c-31 0 -61 -9 -87 -20
c-23 -10 -47 -25 -68 -40z" />
    <glyph glyph-name="afii10026" unicode="&#x418;" horiz-adv-x="784" 
d="M121 667h238l-26 -204c-6 -49 -15 -93 -32 -140l10 -5c22 43 50 88 73 120l166 229h221l-82 -667h-238l21 172c7 59 16 96 32 153l-10 2c-10 -20 -30 -57 -75 -117l-159 -210h-221z" />
    <glyph glyph-name="afii10027" unicode="&#x419;" horiz-adv-x="784" 
d="M121 667h238l-26 -204c-6 -49 -15 -93 -32 -140l10 -5c22 43 50 88 73 120l166 229h221l-82 -667h-238l21 172c7 59 16 96 32 153l-10 2c-10 -20 -30 -57 -75 -117l-159 -210h-221zM554 904l138 -50c-18 -44 -50 -80 -83 -99c-49 -28 -121 -30 -142 -30
c-79 0 -121 21 -137 30c-13 8 -57 36 -80 99l144 50c2 -17 10 -37 23 -48c12 -10 32 -15 51 -15c6 0 33 0 53 13c15 10 28 30 33 50z" />
    <glyph glyph-name="afii10028" unicode="&#x41a;" horiz-adv-x="732" 
d="M121 667h242l-22 -173c-4 -32 -11 -75 -21 -116l7 -2c14 36 27 62 42 85l23 37l106 169h282l-260 -338l170 -329h-255l-85 192c-18 41 -25 61 -34 98l-7 -1v-20c0 -21 -2 -54 -5 -77l-23 -192h-242z" />
    <glyph glyph-name="afii10029" unicode="&#x41b;" horiz-adv-x="797" 
d="M186 667h598l-82 -667h-242l58 471h-136l-27 -215c-13 -104 -54 -164 -85 -195c-66 -66 -148 -72 -206 -72c-33 0 -62 2 -94 8l22 194c13 -5 23 -6 39 -6c22 0 51 3 74 26c27 27 34 75 37 97z" />
    <glyph glyph-name="afii10030" unicode="&#x41c;" horiz-adv-x="948" 
d="M623 667h255l2 -667h-235l13 197c4 71 10 114 23 185l-9 2l-5 -19c-17 -68 -25 -94 -54 -163l-85 -202h-152l-26 211c-2 12 -3 29 -5 50c-2 25 -3 45 -3 60v13c0 18 0 27 2 50h-8l-2 -15c-8 -62 -13 -92 -28 -158l-49 -211h-245l194 667h256l26 -208c3 -24 5 -48 5 -74
c0 -30 -1 -44 -6 -73h10c12 62 26 108 59 190z" />
    <glyph glyph-name="afii10031" unicode="&#x41d;" horiz-adv-x="760" 
d="M505 667h242l-82 -667h-242l30 243h-143l-29 -243h-242l82 667h242l-28 -228h142z" />
    <glyph glyph-name="afii10032" unicode="&#x41e;" horiz-adv-x="808" 
d="M675 591c73 -60 111 -147 111 -252c0 -202 -157 -356 -365 -356c-211 0 -373 148 -373 341c0 202 162 359 368 359c96 0 189 -33 259 -92zM410 193c76 0 132 61 132 142c0 71 -51 127 -118 127c-73 0 -132 -63 -132 -140c0 -74 50 -129 118 -129z" />
    <glyph glyph-name="afii10033" unicode="&#x41f;" horiz-adv-x="760" 
d="M665 0h-242l58 471h-143l-57 -471h-242l82 667h626z" />
    <glyph glyph-name="afii10034" unicode="&#x420;" horiz-adv-x="665" 
d="M398 203h-92l-25 -203h-242l82 667h278c91 0 146 -15 192 -51c53 -42 84 -107 84 -177c0 -63 -27 -128 -70 -170c-49 -47 -108 -66 -207 -66zM366 493h-25l-15 -124h22c61 0 92 24 92 71c0 39 -19 53 -74 53z" />
    <glyph glyph-name="afii10035" unicode="&#x421;" horiz-adv-x="582" 
d="M415 683c58 0 115 -10 173 -31l-20 -237c-45 36 -86 52 -133 52c-80 0 -147 -68 -147 -148c0 -68 56 -120 129 -120c50 0 90 18 131 57l-29 -243c-65 -22 -104 -30 -152 -30c-185 0 -320 140 -320 331c0 212 157 369 368 369z" />
    <glyph glyph-name="afii10036" unicode="&#x422;" horiz-adv-x="480" 
d="M60 667h467l-26 -210l-106 7l-57 -464h-245l57 464l-115 -7z" />
    <glyph glyph-name="afii10037" unicode="&#x423;" horiz-adv-x="714" 
d="M40 667h259l72 -188c9 -24 15 -45 17 -73h8c6 24 15 52 26 75l90 186h263l-389 -667h-266l87 153c16 28 29 48 53 73z" />
    <glyph glyph-name="afii10038" unicode="&#x424;" horiz-adv-x="938" 
d="M316 0l13 98c-63 0 -153 10 -220 73c-45 42 -69 97 -69 169c0 77 27 153 73 205c49 55 134 101 282 101l12 98h240l-12 -98c80 0 164 -24 216 -72c29 -26 73 -84 73 -187c0 -77 -26 -156 -74 -204c-47 -47 -133 -85 -282 -85l-12 -98h-240zM592 464l-23 -184h5
c55 0 82 19 90 25c20 16 34 43 34 78c0 32 -14 51 -28 62c-24 18 -64 19 -73 19h-5zM394 464h-6c-18 0 -60 -2 -87 -22c-21 -16 -36 -45 -36 -78c0 -30 13 -52 27 -64c21 -18 53 -20 73 -20h6z" />
    <glyph glyph-name="afii10039" unicode="&#x425;" horiz-adv-x="740" 
d="M765 667l-253 -321l200 -346h-261l-51 109c-12 25 -18 41 -27 76h-8c-8 -26 -12 -35 -22 -52l-14 -24l-64 -109h-293l278 356l-181 311h273l32 -84c11 -29 17 -47 20 -68h6c7 21 22 54 32 73l41 79h292z" />
    <glyph glyph-name="afii10040" unicode="&#x426;" horiz-adv-x="808" 
d="M39 0l82 667h242l-58 -471h142l58 471h243l-58 -471h105l-39 -329h-206l16 133h-527z" />
    <glyph glyph-name="afii10041" unicode="&#x427;" horiz-adv-x="724" 
d="M387 0l29 233c-41 -10 -76 -12 -116 -12c-96 0 -144 19 -170 36c-32 21 -70 62 -70 137c0 11 3 39 4 51l27 222h240l-21 -172c-3 -22 -10 -51 14 -69c16 -12 44 -13 53 -13c19 0 46 3 62 6l30 248h242l-82 -667h-242z" />
    <glyph glyph-name="afii10042" unicode="&#x428;" horiz-adv-x="1088" 
d="M39 0l82 667h238l-58 -471h120l58 471h238l-58 -471h120l58 471h238l-82 -667h-954z" />
    <glyph glyph-name="afii10043" unicode="&#x429;" horiz-adv-x="1144" 
d="M121 667h238l-58 -471h120l58 471h238l-58 -471h120l58 471h238l-59 -471h115l-39 -329h-206l16 133h-863z" />
    <glyph glyph-name="afii10044" unicode="&#x42a;" horiz-adv-x="762" 
d="M109 0l57 464l-121 -7l26 210h363l-31 -254h84c72 0 149 -11 195 -56c25 -25 50 -68 50 -132c0 -94 -43 -147 -83 -176c-64 -45 -152 -49 -208 -49h-332zM371 156h23c36 0 56 3 71 10c22 11 29 28 29 50c0 12 -2 27 -19 37c-10 6 -25 10 -62 10h-29z" />
    <glyph glyph-name="afii10045" unicode="&#x42b;" horiz-adv-x="1007" 
d="M912 0h-242l82 667h242zM39 0l83 667h242l-31 -254h78c72 0 149 -11 195 -56c25 -24 50 -68 50 -134c0 -90 -42 -146 -83 -175c-62 -44 -155 -48 -208 -48h-326zM301 156h23c36 0 56 3 71 10c22 11 29 28 29 50c0 12 -2 27 -19 37c-10 6 -25 10 -62 10h-29z" />
    <glyph glyph-name="afii10046" unicode="&#x42c;" horiz-adv-x="692" 
d="M39 0l83 667h242l-31 -254h84c72 0 149 -11 195 -56c25 -25 50 -68 50 -132c0 -94 -43 -147 -83 -176c-64 -45 -152 -49 -208 -49h-332zM301 156h23c36 0 56 3 71 10c22 11 29 28 29 50c0 12 -2 27 -19 37c-10 6 -25 10 -62 10h-29z" />
    <glyph glyph-name="afii10047" unicode="&#x42d;" horiz-adv-x="670" 
d="M30 38l26 211c11 -12 36 -35 72 -53s66 -23 103 -23c30 0 66 3 96 19c21 11 47 33 60 72h-219l18 146h217c-5 15 -17 43 -51 62c-26 15 -62 21 -93 21c-37 0 -71 -6 -108 -26c-25 -13 -51 -32 -75 -56l28 222c75 38 145 50 205 50c110 0 198 -37 251 -89
c42 -41 88 -117 88 -235c0 -122 -46 -219 -110 -280c-85 -82 -189 -96 -271 -96c-86 0 -164 17 -237 55z" />
    <glyph glyph-name="afii10048" unicode="&#x42e;" horiz-adv-x="1143" 
d="M335 439h81c23 81 68 134 107 166c59 48 139 78 230 78c110 0 213 -43 279 -111c45 -47 89 -122 89 -233c0 -104 -43 -192 -103 -252c-59 -59 -147 -104 -275 -104c-94 0 -167 26 -220 62s-108 97 -123 198h-90l-29 -243h-242l82 667h242zM745 193c34 0 70 15 90 35
c27 26 42 72 42 107c0 30 -12 69 -37 94c-20 20 -49 33 -81 33s-68 -15 -92 -40c-23 -23 -40 -61 -40 -100c0 -34 14 -76 41 -100c21 -19 52 -29 77 -29z" />
    <glyph glyph-name="afii10049" unicode="&#x42f;" horiz-adv-x="707" 
d="M25 0l181 251c-22 4 -51 14 -79 43c-34 35 -47 77 -47 124c0 71 28 136 66 174c71 71 181 75 240 75h308l-82 -667h-242l17 141c1 7 4 32 21 104l-7 1c-7 -38 -25 -81 -35 -99l-83 -147h-258zM417 376l14 117h-41c-15 0 -40 -1 -58 -18c-11 -11 -19 -28 -19 -51
c0 -16 6 -28 20 -37c13 -8 33 -11 50 -11h34z" />
    <glyph glyph-name="afii10065" unicode="&#x430;" horiz-adv-x="652" 
d="M403 467h230l-58 -467h-229c7 32 10 40 25 83l-7 3c-40 -70 -82 -99 -144 -99c-105 0 -195 100 -195 218c0 148 110 278 234 278c74 0 114 -28 141 -100l8 3c-4 33 -5 45 -5 71v10zM316 164c37 0 65 32 65 74c0 35 -23 61 -55 61c-36 0 -67 -35 -67 -76
c0 -34 24 -59 57 -59z" />
    <glyph glyph-name="afii10066" unicode="&#x431;" horiz-adv-x="650" 
d="M208 375l8 -1c21 38 49 58 62 65c37 22 80 26 108 26c80 0 142 -26 181 -66c29 -29 59 -80 59 -155c0 -69 -25 -131 -69 -176c-67 -68 -153 -81 -226 -81c-64 0 -147 9 -212 75c-37 38 -79 109 -79 227c0 93 30 222 104 297c55 56 127 77 221 95c53 10 82 15 101 32
c9 8 13 16 14 27h180c-11 -70 -49 -110 -60 -121c-37 -37 -94 -60 -142 -73l-67 -18c-42 -11 -101 -23 -138 -59c-25 -24 -40 -62 -45 -94zM332 169c17 0 30 5 41 16c14 14 23 36 23 59c0 22 -9 41 -20 51c-10 9 -23 15 -38 15s-31 -5 -43 -17c-14 -14 -23 -36 -23 -58
c0 -19 9 -39 21 -51c10 -9 23 -15 39 -15z" />
    <glyph glyph-name="afii10067" unicode="&#x432;" horiz-adv-x="597" 
d="M77 467h329c36 0 89 -4 123 -35c19 -17 35 -46 35 -86c0 -33 -10 -57 -26 -74c-13 -14 -34 -28 -62 -32v-4c24 -4 47 -15 63 -30c22 -21 28 -48 28 -72c0 -56 -29 -88 -49 -103c-38 -28 -90 -31 -126 -31h-372zM276 279h33c9 0 27 1 39 11c8 7 13 18 13 32
c0 18 -9 26 -14 29c-8 5 -20 6 -32 6h-30zM255 110h37c10 0 28 1 40 10c7 5 16 15 16 35c0 6 -1 20 -12 28c-8 6 -24 8 -34 8h-37z" />
    <glyph glyph-name="afii10068" unicode="&#x433;" horiz-adv-x="470" 
d="M20 0l57 467h393l-21 -174h-161l-36 -293h-232z" />
    <glyph glyph-name="afii10069" unicode="&#x434;" horiz-adv-x="700" 
d="M152 467h495l-39 -317h67l-34 -281h-174l16 131h-322l-17 -131h-174l35 281h5c25 0 51 9 68 22c41 30 49 88 55 137zM392 150l21 167h-78l-8 -70c-2 -19 -6 -40 -17 -59c-13 -23 -31 -33 -44 -38h126z" />
    <glyph glyph-name="afii10070" unicode="&#x435;" horiz-adv-x="618" 
d="M587 202h-331c-1 -6 -1 -12 -1 -17c0 -38 20 -63 51 -63c24 0 39 12 50 40h222c-18 -53 -31 -74 -65 -104c-54 -47 -124 -71 -205 -71c-166 0 -280 98 -280 242c0 151 124 265 288 265c154 0 275 -107 275 -244c0 -11 -2 -27 -4 -48zM322 360c-32 0 -50 -19 -57 -62h108
c-1 42 -17 62 -51 62z" />
    <glyph glyph-name="afii10072" unicode="&#x436;" horiz-adv-x="970" 
d="M336 0l13 108c3 26 15 76 25 96l-9 1c-16 -33 -34 -66 -68 -114l-64 -91h-248l191 247l-130 220h253l37 -84c12 -27 18 -31 35 -109l7 1c3 66 2 90 8 136l7 56h220l-6 -56c-3 -26 -12 -86 -24 -136l7 -1c19 48 40 78 61 109l57 84h267l-201 -241l134 -226h-248l-42 91
c-20 43 -32 74 -40 114l-9 -1c4 -23 4 -71 1 -96l-14 -108h-220z" />
    <glyph glyph-name="afii10073" unicode="&#x437;" horiz-adv-x="543" 
d="M94 303l-40 142c87 41 158 48 216 48c96 0 143 -20 166 -34c58 -35 67 -85 67 -115c0 -26 -7 -48 -26 -68c-13 -14 -31 -25 -53 -31l1 -9c20 -4 40 -15 52 -27c14 -14 24 -36 24 -62c0 -32 -12 -70 -43 -100c-53 -52 -135 -60 -208 -60c-69 0 -149 9 -240 55l56 144
c18 -16 36 -27 60 -37c26 -11 49 -16 78 -16c19 0 45 3 58 12c8 6 11 14 11 22c0 12 -6 20 -20 24c-3 1 -14 4 -53 4h-46l14 100h50c34 0 47 3 51 4c20 5 23 18 23 26c0 12 -9 18 -18 22c-8 3 -21 6 -48 6c-25 0 -47 -4 -72 -14c-19 -8 -41 -21 -60 -36z" />
    <glyph glyph-name="afii10074" unicode="&#x438;" horiz-adv-x="673" 
d="M77 467h228l-20 -146c-4 -33 -11 -60 -25 -91l11 -4c10 23 19 38 33 59l124 182h227l-57 -467h-228l19 140c4 30 9 57 19 92l-10 4c-18 -37 -29 -51 -42 -70l-109 -166h-227z" />
    <glyph glyph-name="afii10075" unicode="&#x439;" horiz-adv-x="673" 
d="M77 467h228l-20 -146c-4 -33 -11 -60 -25 -91l11 -4c10 23 19 38 33 59l124 182h227l-57 -467h-228l19 140c4 30 9 57 19 92l-10 4c-18 -37 -29 -51 -42 -70l-109 -166h-227zM482 683l134 -51c-20 -51 -54 -78 -80 -93c-42 -24 -90 -28 -128 -28c-32 0 -93 3 -139 29
c-26 15 -58 43 -73 92l145 51c2 -14 8 -35 19 -46c14 -14 35 -16 46 -16c16 0 34 1 50 16c12 11 22 30 26 46z" />
    <glyph glyph-name="afii10076" unicode="&#x43a;" horiz-adv-x="650" 
d="M78 467h231l-7 -56c-2 -19 -10 -78 -24 -136l7 -1c19 48 40 78 61 109l57 84h267l-201 -241l134 -226h-248l-42 91c-20 43 -32 74 -40 114l-9 -1c4 -23 4 -71 1 -96l-14 -108h-231z" />
    <glyph glyph-name="afii10077" unicode="&#x43b;" horiz-adv-x="663" 
d="M643 467l-57 -467h-232l37 299h-74l-18 -130c-6 -46 -25 -85 -62 -118c-59 -53 -122 -57 -175 -57c-28 0 -53 2 -82 6l21 170c30 -6 60 0 77 15c24 20 30 61 33 90l22 192h510z" />
    <glyph glyph-name="afii10078" unicode="&#x43c;" horiz-adv-x="857" 
d="M10 0l132 467h255l32 -186c3 -15 6 -41 3 -74h10c5 27 12 47 22 73l75 187h255l18 -467h-218l-6 175c-1 18 3 50 6 66h-10c-17 -63 -25 -86 -30 -96l-66 -145h-150l-29 143c-5 25 -6 74 -6 99h-10c-4 -28 -9 -48 -17 -76l-48 -166h-218z" />
    <glyph glyph-name="afii10079" unicode="&#x43d;" horiz-adv-x="633" 
d="M20 0l57 467h232l-18 -144h74l18 144h232l-57 -467h-232l19 155h-74l-19 -155h-232z" />
    <glyph glyph-name="afii10080" unicode="&#x43e;" horiz-adv-x="637" 
d="M329 493c93 0 167 -32 213 -78c41 -40 69 -99 69 -171c0 -44 -11 -113 -71 -174c-51 -52 -122 -83 -216 -83c-109 0 -181 39 -223 80c-53 51 -72 114 -72 169c0 68 28 130 69 172c53 54 139 85 231 85zM318 169c17 0 30 5 41 16c14 14 23 36 23 59c0 22 -9 41 -20 51
c-10 9 -23 15 -38 15s-31 -5 -43 -17c-14 -14 -23 -36 -23 -58c0 -19 9 -39 21 -51c10 -9 23 -15 39 -15z" />
    <glyph glyph-name="afii10081" unicode="&#x43f;" horiz-adv-x="633" 
d="M20 0l57 467h538l-57 -467h-232l37 299h-74l-37 -299h-232z" />
    <glyph glyph-name="afii10082" unicode="&#x440;" horiz-adv-x="645" 
d="M82 467h232c-6 -30 -8 -39 -19 -71l9 -4c37 67 71 92 131 92c103 0 185 -104 185 -233c0 -142 -99 -264 -214 -264c-73 0 -125 34 -146 96l-8 -3c2 -27 3 -40 3 -57c0 -24 -2 -49 -5 -77l-22 -175h-232zM331 163c36 0 61 31 61 75c0 37 -23 64 -54 64
c-34 0 -62 -35 -62 -77c0 -37 22 -62 55 -62z" />
    <glyph glyph-name="afii10083" unicode="&#x441;" horiz-adv-x="437" 
d="M300 493c46 0 74 -5 139 -26l-29 -196c-25 29 -49 42 -82 42c-44 0 -73 -32 -73 -80c0 -43 26 -69 68 -69c29 0 52 10 78 33l-34 -192c-50 -15 -70 -18 -105 -18c-138 0 -235 96 -235 233c0 163 110 273 273 273z" />
    <glyph glyph-name="afii10084" unicode="&#x442;" horiz-adv-x="469" 
d="M95 0l36 293l-106 -6l22 180h442l-22 -180l-104 6l-36 -293h-232z" />
    <glyph glyph-name="afii10085" unicode="&#x443;" horiz-adv-x="591" 
d="M381 467h249l-363 -696h-248l88 169c30 52 37 63 65 96l-141 431h238l20 -130c6 -37 7 -53 7 -75c0 -14 0 -24 -2 -48l10 -1c11 58 18 87 34 131z" />
    <glyph glyph-name="afii10086" unicode="&#x444;" horiz-adv-x="808" 
d="M238 -229l27 222h-4c-13 0 -103 1 -166 52c-37 30 -71 79 -71 163c0 81 29 149 75 192c50 46 133 74 223 74h2l25 203h221l-25 -203c63 -1 134 -24 179 -67c51 -48 62 -107 62 -154c0 -85 -29 -146 -67 -184c-73 -73 -183 -76 -229 -76h-4l-27 -222h-221zM504 310
l-19 -153h3c25 0 52 7 68 20s27 38 27 66c0 25 -11 40 -21 49c-15 13 -38 18 -55 18h-3zM325 310h-3c-8 0 -42 -1 -65 -19c-18 -15 -30 -40 -30 -67c0 -19 7 -39 19 -50c13 -12 35 -17 57 -17h3z" />
    <glyph glyph-name="afii10087" unicode="&#x445;" horiz-adv-x="633" 
d="M374 467h282l-211 -234l162 -233h-255l-20 43c-11 24 -15 37 -17 59l-7 1c-5 -15 -8 -20 -25 -48l-35 -55h-278l217 246l-155 221h263l16 -49c5 -15 7 -23 9 -44l9 1c4 14 10 29 18 43z" />
    <glyph glyph-name="afii10088" unicode="&#x446;" horiz-adv-x="675" 
d="M20 0l57 467h232l-37 -299h72l37 299h232l-37 -299h79l-36 -299h-174l16 131h-441z" />
    <glyph glyph-name="afii10089" unicode="&#x447;" horiz-adv-x="616" 
d="M307 0l17 141c-32 -7 -62 -10 -94 -10c-35 0 -96 3 -138 32c-56 39 -54 99 -50 134l21 170h227l-15 -126c-2 -17 -2 -33 9 -42c7 -6 21 -8 30 -8c12 0 22 3 29 6l21 170h232l-57 -467h-232z" />
    <glyph glyph-name="afii10090" unicode="&#x448;" horiz-adv-x="899" 
d="M20 0l57 467h218l-37 -299h74l37 299h218l-37 -299h74l37 299h218l-57 -467h-802z" />
    <glyph glyph-name="afii10091" unicode="&#x449;" horiz-adv-x="949" 
d="M20 0l57 467h218l-37 -299h74l37 299h218l-37 -299h74l37 299h218l-37 -299h87l-37 -299h-174l17 131h-715z" />
    <glyph glyph-name="afii10092" unicode="&#x44a;" horiz-adv-x="670" 
d="M359 311h115c63 0 108 -15 134 -39c22 -19 42 -54 42 -105c0 -47 -16 -87 -43 -114c-39 -39 -100 -53 -174 -53h-343l35 293l-100 -6l22 180h331zM335 116h36c16 0 33 3 43 11c8 6 16 17 16 37c0 5 -1 19 -12 27c-9 6 -26 8 -36 8h-37z" />
    <glyph glyph-name="afii10093" unicode="&#x44b;" horiz-adv-x="884" 
d="M579 0l57 467h228l-57 -467h-228zM289 311h99c63 0 108 -15 134 -39c21 -19 42 -54 42 -107c0 -52 -21 -89 -43 -112c-39 -39 -100 -53 -174 -53h-327l56 467h232zM265 116h36c16 0 33 3 43 11c8 6 16 17 16 37c0 5 -1 19 -12 27c-9 6 -26 8 -36 8h-37z" />
    <glyph glyph-name="afii10094" unicode="&#x44c;" horiz-adv-x="600" 
d="M289 311h115c63 0 108 -15 134 -39c22 -19 42 -54 42 -105c0 -47 -16 -87 -43 -114c-39 -39 -100 -53 -174 -53h-343l56 467h232zM265 116h36c16 0 33 3 43 11c8 6 16 17 16 37c0 5 -1 19 -12 27c-9 6 -26 8 -36 8h-37z" />
    <glyph glyph-name="afii10095" unicode="&#x44d;" horiz-adv-x="537" 
d="M30 29l19 158c15 -17 36 -34 58 -44c19 -9 44 -16 74 -16c17 0 48 2 73 17c19 12 29 27 34 43h-167l13 110h161c-13 25 -32 37 -41 42c-4 2 -26 13 -60 13c-24 0 -50 -5 -75 -17c-28 -13 -49 -31 -56 -38l20 165c61 22 111 30 160 30c118 0 179 -45 203 -69
c28 -28 65 -80 65 -173c0 -97 -38 -157 -74 -192c-65 -63 -148 -70 -212 -70c-69 0 -130 8 -195 41z" />
    <glyph glyph-name="afii10096" unicode="&#x44e;" horiz-adv-x="912" 
d="M276 318h63c14 41 40 89 96 127c55 37 113 48 169 48c111 0 178 -41 215 -78c33 -33 67 -86 67 -163c0 -64 -22 -134 -73 -186c-70 -71 -160 -79 -227 -79c-54 0 -121 7 -175 46c-31 23 -68 63 -83 127h-70l-20 -160h-218l57 467h218zM593 169c17 0 30 5 41 16
c15 14 23 36 23 58s-9 41 -20 52c-10 9 -23 15 -38 15s-31 -5 -43 -17c-14 -14 -23 -36 -23 -58c0 -19 9 -39 21 -51c10 -9 23 -15 39 -15z" />
    <glyph glyph-name="afii10097" unicode="&#x44f;" horiz-adv-x="627" 
d="M10 0l130 158c-27 5 -47 18 -61 32c-27 28 -33 62 -33 91c0 66 26 107 50 131c52 51 125 55 179 55h332l-57 -467h-230l17 138h-6l-92 -138h-229zM351 250l11 95h-31c-17 0 -38 -4 -50 -15c-9 -8 -15 -22 -15 -39c0 -16 7 -25 13 -30c10 -8 28 -11 38 -11h34z" />
    <glyph glyph-name="afii10071" unicode="&#x451;" horiz-adv-x="618" 
d="M587 202h-331c-1 -6 -1 -12 -1 -17c0 -38 20 -63 51 -63c24 0 39 12 50 40h222c-18 -53 -31 -74 -65 -104c-54 -47 -124 -71 -205 -71c-166 0 -280 98 -280 242c0 151 124 265 288 265c154 0 275 -107 275 -244c0 -11 -2 -27 -4 -48zM322 360c-32 0 -50 -19 -57 -62h108
c-1 42 -17 62 -51 62zM100 642c0 57 46 103 102 103c57 0 103 -46 103 -103c0 -56 -46 -102 -103 -102c-56 0 -102 46 -102 102zM347 642c0 57 46 103 102 103c57 0 103 -46 103 -103c0 -56 -46 -102 -103 -102c-56 0 -102 46 -102 102z" />
    <glyph glyph-name="afii10099" unicode="&#x452;" horiz-adv-x="656" 
d="M277 0h-232l59 482h-80l15 120h80l16 127h232l-16 -127h165l-15 -120h-165l-7 -51c-3 -25 -13 -65 -21 -90l9 -3c13 24 33 49 58 66c24 16 55 27 92 27c39 0 78 -15 105 -41c34 -33 42 -76 42 -113c0 -19 -2 -37 -4 -51l-29 -234c-8 -63 -20 -126 -78 -174
c-53 -43 -118 -48 -168 -48c-37 0 -68 3 -101 10l21 174c10 -9 21 -14 39 -14c17 0 31 5 39 13c13 12 15 29 17 44l23 186c1 7 3 16 3 24c0 9 -2 18 -10 25c-6 5 -15 8 -24 8c-13 0 -21 -5 -27 -12c-10 -12 -13 -31 -17 -61z" />
    <glyph glyph-name="afii10100" unicode="&#x453;" horiz-adv-x="470" 
d="M20 0l57 467h393l-21 -174h-161l-36 -293h-232zM196 596l116 146l117 -73l-146 -128z" />
    <glyph glyph-name="afii10101" unicode="&#x454;" horiz-adv-x="518" 
d="M474 176l-19 -153c-62 -30 -117 -36 -174 -36c-56 0 -134 7 -192 68c-33 35 -62 92 -62 169c0 78 27 144 72 189c61 61 147 79 233 79c52 0 107 -6 176 -36l-19 -158c-5 6 -22 27 -49 40c-22 11 -48 16 -71 16c-25 0 -52 -6 -71 -16c-14 -8 -29 -21 -40 -41h165l-13 -110
h-165c6 -18 17 -33 37 -45c24 -13 49 -15 72 -15c24 0 45 2 71 13c21 10 37 22 49 36z" />
    <glyph glyph-name="afii10102" unicode="&#x455;" horiz-adv-x="476" 
d="M271 493c63 0 124 -13 198 -42l-57 -141c-34 25 -72 39 -108 39c-26 0 -40 -8 -40 -24c0 -15 8 -22 27 -26l42 -10c70 -15 112 -64 112 -128c0 -102 -95 -174 -230 -174c-55 0 -104 10 -167 34c-11 5 -27 11 -48 20l56 141c50 -33 96 -49 137 -49c23 0 37 9 37 25
c0 17 -13 27 -52 36c-94 22 -127 55 -127 122c0 102 93 177 220 177z" />
    <glyph glyph-name="afii10103" unicode="&#x456;" horiz-adv-x="332" 
d="M217 747c70 0 129 -51 129 -109c0 -63 -58 -113 -134 -113c-71 0 -127 47 -127 107c0 61 61 115 132 115zM81 467h231l-57 -467h-231z" />
    <glyph glyph-name="afii10104" unicode="&#x457;" horiz-adv-x="400" 
d="M286 0h-227l57 467h227zM357 723c29 0 47 -12 57 -22c10 -11 22 -29 22 -60c0 -33 -12 -60 -30 -77c-12 -11 -32 -23 -61 -23s-47 12 -57 22c-10 11 -22 29 -22 60c0 33 12 60 30 77c12 11 32 23 61 23zM159 723c29 0 47 -12 57 -22c10 -11 22 -29 22 -60
c0 -33 -12 -60 -30 -77c-12 -11 -32 -23 -61 -23s-47 12 -57 22c-10 11 -22 29 -22 60c0 33 12 60 30 77c12 11 32 23 61 23z" />
    <glyph glyph-name="afii10105" unicode="&#x458;" horiz-adv-x="341" 
d="M90 467h231l-89 -696h-231zM225 747c70 0 130 -51 130 -109c0 -63 -59 -113 -135 -113c-71 0 -127 47 -127 107c0 61 61 115 132 115z" />
    <glyph glyph-name="afii10106" unicode="&#x459;" horiz-adv-x="927" 
d="M617 311h114c63 0 108 -15 134 -39c22 -19 42 -54 42 -105c0 -47 -16 -87 -43 -114c-39 -39 -100 -53 -174 -53h-336l37 299h-74l-18 -130c-6 -46 -25 -85 -62 -118c-59 -53 -122 -57 -175 -57c-28 0 -53 2 -82 6l21 170c30 -6 60 0 77 15c24 20 30 61 33 90l22 192h502z
M592 116h36c16 0 33 3 43 11c8 6 16 17 16 37c0 5 -1 19 -12 27c-9 6 -26 8 -36 8h-37z" />
    <glyph glyph-name="afii10107" unicode="&#x45a;" horiz-adv-x="905" 
d="M594 311h115c63 0 108 -15 134 -39c22 -19 42 -54 42 -105c0 -47 -16 -87 -43 -114c-39 -39 -100 -53 -174 -53h-343l24 192h-74l-23 -192h-232l57 467h232l-19 -156h73l18 156h232zM570 116h36c16 0 33 3 43 11c8 6 16 17 16 37c0 5 -1 19 -12 27c-9 6 -26 8 -36 8h-37z
" />
    <glyph glyph-name="afii10108" unicode="&#x45b;" horiz-adv-x="656" 
d="M277 0h-232l59 482h-80l15 120h80l16 127h232l-16 -127h165l-15 -120h-165l-7 -51c-3 -25 -13 -65 -21 -90l9 -3c13 24 33 49 58 66c24 16 55 27 92 27c39 0 78 -15 105 -41c34 -33 42 -76 42 -113c0 -19 -2 -37 -4 -51l-28 -226h-232l23 183c1 7 3 16 3 24
c0 9 -2 18 -10 25c-6 5 -15 8 -24 8c-13 0 -21 -5 -27 -12c-10 -12 -13 -31 -17 -61z" />
    <glyph glyph-name="afii10109" unicode="&#x45c;" horiz-adv-x="650" 
d="M78 467h231l-7 -56c-2 -19 -10 -78 -24 -136l7 -1c19 48 40 78 61 109l57 84h267l-201 -241l134 -226h-248l-42 91c-20 43 -32 74 -40 114l-9 -1c4 -23 4 -71 1 -96l-14 -108h-231zM281 596l116 146l117 -73l-146 -128z" />
    <glyph glyph-name="afii10110" unicode="&#x45e;" horiz-adv-x="591" 
d="M381 467h249l-363 -696h-248l88 169c30 52 37 63 65 96l-141 431h238l20 -130c6 -37 7 -53 7 -75c0 -14 0 -24 -2 -48l10 -1c11 58 18 87 34 131zM422 695l134 -51c-20 -51 -54 -78 -80 -93c-42 -24 -90 -28 -128 -28c-32 0 -93 3 -139 29c-26 15 -58 43 -73 92l145 51
c2 -14 8 -35 19 -46c14 -14 35 -16 46 -16c16 0 34 1 50 16c12 11 22 30 26 46z" />
    <glyph glyph-name="afii10193" unicode="&#x45f;" horiz-adv-x="635" 
d="M20 0l57 467h232l-37 -299h74l37 299h232l-57 -467h-187l-17 -140h-166l18 140h-186z" />
    <glyph glyph-name="afii10146" unicode="&#x462;" horiz-adv-x="743" 
d="M428 744l-15 -118h169l-18 -149l-169 6l-9 -82h82c70 0 147 -8 195 -56c25 -25 50 -69 50 -137c0 -74 -32 -125 -80 -159c-64 -45 -152 -49 -208 -49h-332l61 483l-114 -6l19 149h113l14 118h242zM355 156h23c36 0 56 3 71 10c21 11 30 29 30 50c0 12 -2 27 -19 37
c-10 6 -25 10 -62 10h-29z" />
    <glyph glyph-name="afii10194" unicode="&#x463;" horiz-adv-x="639" 
d="M332 291h113c37 0 92 -5 132 -39c35 -30 42 -68 42 -98c0 -59 -26 -95 -56 -117c-35 -25 -94 -37 -143 -37h-354l44 347h-85l15 120h85l23 200h231l-25 -200h165l-14 -120h-166zM311 116h33c16 0 33 3 43 11c9 6 16 19 16 31c0 11 -5 21 -12 26c-9 6 -27 8 -36 8h-34z
" />
    <glyph glyph-name="afii10147" unicode="&#x472;" horiz-adv-x="808" 
d="M315 395h218c-7 30 -24 49 -38 59c-23 17 -47 21 -69 21c-28 0 -50 -6 -70 -21c-14 -10 -32 -29 -41 -59zM531 287h-229c3 -28 17 -55 34 -70s44 -25 74 -25c29 0 59 8 80 25c20 17 35 45 41 70zM416 683c111 0 216 -46 281 -112c45 -47 89 -122 89 -232
c0 -104 -43 -192 -103 -252c-48 -48 -133 -104 -262 -104c-122 0 -215 47 -275 107c-43 43 -98 119 -98 234c0 93 35 183 105 253c86 86 190 106 263 106z" />
    <glyph glyph-name="afii10195" unicode="&#x473;" horiz-adv-x="637" 
d="M250 281h150c-2 21 -12 35 -21 43c-16 14 -35 16 -50 16c-14 0 -37 -3 -55 -19c-11 -10 -20 -26 -24 -40zM390 203h-148c0 -20 7 -36 17 -45c15 -15 37 -18 53 -18c18 0 36 3 52 16c12 9 23 25 26 47zM329 493c93 0 167 -32 213 -78c32 -32 69 -88 69 -171
c0 -80 -35 -137 -71 -174c-67 -69 -144 -83 -216 -83c-79 0 -158 16 -223 80c-37 36 -72 91 -72 169c0 68 28 130 69 172c53 54 139 85 231 85z" />
    <glyph glyph-name="afii10148" unicode="&#x474;" horiz-adv-x="694" 
d="M474 667h274l-334 -667h-210l-150 667h253l26 -210c4 -31 6 -64 6 -99c0 -29 -1 -50 -4 -89l10 -1c10 84 26 148 52 211z" />
    <glyph glyph-name="afii10196" unicode="&#x475;" horiz-adv-x="565" 
d="M344 467h260l-271 -467h-195l-119 467h232l11 -138c1 -18 2 -34 2 -51c0 -18 -1 -32 -3 -65h9c7 49 18 95 30 130z" />
    <glyph glyph-name="afii10050" unicode="&#x490;" horiz-adv-x="595" 
d="M121 667l295 1l21 158h198l-39 -337h-255l-60 -489h-242z" />
    <glyph glyph-name="afii10098" unicode="&#x491;" horiz-adv-x="540" 
d="M20 0l57 467h285l18 145h170l-39 -319h-223l-36 -293h-232z" />
    <glyph glyph-name="uni0492" unicode="&#x492;" horiz-adv-x="609" 
d="M355 217l-27 -217h-242l26 217h-92l21 175h92l35 275h465l-22 -178h-223l-12 -97h160l-21 -175h-160z" />
    <glyph glyph-name="uni0493" unicode="&#x493;" horiz-adv-x="525" 
d="M75 0l14 118h-84l16 124h84l27 225h393l-21 -174h-161l-6 -51h111l-16 -124h-111l-14 -118h-232z" />
    <glyph glyph-name="uni0494" unicode="&#x494;" horiz-adv-x="720" 
d="M121 667h475l-23 -190h-233l-13 -101c44 16 87 23 131 23c27 0 117 -3 175 -56c29 -26 57 -70 57 -142c0 -84 -36 -134 -61 -158c-56 -54 -132 -59 -185 -59c-41 0 -74 3 -115 16l49 143c8 -8 17 -12 30 -12c9 0 24 1 35 13c12 13 13 31 13 43c0 11 -1 24 -15 36
c-16 14 -38 16 -53 16c-20 0 -45 -3 -79 -14l-28 -225h-242z" />
    <glyph glyph-name="uni0495" unicode="&#x495;" horiz-adv-x="577" 
d="M20 0l57 467h393l-21 -174h-161l-6 -51h25c56 0 135 -5 190 -60c42 -42 50 -94 50 -133c0 -74 -26 -138 -69 -181c-58 -58 -145 -76 -241 -76h-13l16 124h3c17 0 36 3 54 18c27 24 37 68 37 100c0 23 -6 44 -19 55c-16 15 -44 15 -48 15h-2l-13 -104h-232z" />
    <glyph glyph-name="uni0496" unicode="&#x496;" horiz-adv-x="1063" 
d="M388 0l23 192c0 3 3 23 17 97l-8 1c-14 -31 -33 -66 -55 -98l-133 -192h-247l248 356l-150 311h250l75 -197c15 -39 21 -91 21 -94l10 2c3 47 2 39 3 57c1 28 3 36 6 59l22 173h230l-23 -173c-4 -31 -6 -59 -21 -116l10 -2c12 38 31 72 39 85l129 206h259l-242 -320
l70 -151h117l-39 -329h-200l16 133h-44l-85 192c-10 23 -23 52 -31 98l-10 -1c0 -25 -3 -76 -5 -97l-22 -192h-230z" />
    <glyph glyph-name="uni0497" unicode="&#x497;" horiz-adv-x="959" 
d="M336 0l13 108c4 32 14 67 25 96l-9 1c-16 -33 -34 -66 -68 -114l-64 -91h-248l191 247l-130 220h253l37 -84c12 -27 18 -31 35 -109l7 1c3 66 2 90 8 136l7 56h220l-6 -56c-3 -26 -12 -86 -24 -136l7 -1c19 48 40 78 61 109l57 84h256l-190 -234l38 -65h107l-35 -299
h-166l15 131h-65l-50 91c-17 31 -32 80 -40 114l-9 -1c4 -23 4 -71 1 -96l-14 -108h-220z" />
    <glyph glyph-name="uni0498" unicode="&#x498;" horiz-adv-x="653" 
d="M144 437l-56 178c124 60 215 68 265 68c66 0 135 -15 183 -49c55 -38 77 -93 77 -144c0 -44 -19 -82 -42 -105c-15 -15 -40 -29 -64 -37l-1 -6c23 -6 48 -19 66 -37c17 -17 37 -47 37 -99c0 -36 -8 -93 -58 -144c-32 -33 -86 -67 -161 -73l-17 -138h-206l19 146
c-39 7 -96 23 -170 68l85 180c22 -25 46 -44 76 -58c28 -14 57 -22 91 -22c14 0 42 1 59 9c18 8 28 24 28 39c0 9 -4 24 -25 32c-13 5 -39 7 -56 7h-85l20 162h67c44 0 62 7 67 9c24 10 27 27 27 35c0 7 -4 21 -22 30c-13 6 -31 9 -49 9c-31 0 -61 -9 -87 -20
c-23 -10 -47 -25 -68 -40z" />
    <glyph glyph-name="uni0499" unicode="&#x499;" horiz-adv-x="543" 
d="M94 303l-40 142c86 39 161 48 219 48c41 0 112 -4 163 -35s67 -75 67 -112c0 -24 -9 -53 -26 -72c-12 -13 -32 -24 -53 -29l1 -9c17 -4 37 -13 50 -25s26 -33 26 -66c0 -34 -13 -71 -42 -101c-27 -28 -71 -50 -125 -52l-17 -131h-166l19 132c-53 4 -108 19 -160 49
l56 147c19 -18 39 -30 61 -39c25 -11 48 -16 77 -16c16 0 39 2 49 7c11 5 16 14 16 22c0 7 -3 17 -20 23c-14 5 -39 5 -49 5h-50l14 108h50c36 0 49 2 54 4c15 5 20 15 20 23c0 5 -3 15 -19 21c-13 5 -27 6 -43 6c-26 0 -45 -3 -69 -13c-13 -5 -38 -16 -63 -37z" />
    <glyph glyph-name="uni049A" unicode="&#x49a;" horiz-adv-x="726" 
d="M121 667h242l-21 -171c-4 -32 -13 -82 -22 -118l7 -2c11 31 24 57 42 85l129 206h268l-242 -336l74 -135h117l-39 -329h-200l16 133h-49l-88 182c-11 23 -27 60 -39 108l-7 -1c0 -28 -3 -83 -6 -110l-22 -179h-242z" />
    <glyph glyph-name="uni049B" unicode="&#x49b;" horiz-adv-x="636" 
d="M78 467h231l-7 -56c-2 -19 -10 -78 -24 -136l7 -1c19 48 40 78 61 109l57 84h253l-185 -236l38 -63h103l-36 -299h-166l16 131h-60l-53 91c-14 24 -33 69 -40 114l-9 -1c4 -23 4 -71 1 -96l-14 -108h-231z" />
    <glyph glyph-name="uni049C" unicode="&#x49c;" horiz-adv-x="901" 
d="M312 254l-31 -254h-242l82 667h242l-33 -265h50l18 141h121l-10 -84c-3 -28 -8 -54 -15 -83h5c9 23 23 53 58 110l112 181h282l-260 -338l170 -329h-255l-78 177c-14 32 -28 62 -40 107h-5c-1 -24 -2 -48 -5 -72l-6 -53h-121l11 95h-50z" />
    <glyph glyph-name="uni049D" unicode="&#x49d;" horiz-adv-x="795" 
d="M297 174l-21 -174h-228l57 467h228l-22 -183h37l11 92h108l-12 -102h5c10 28 27 64 57 109l57 84h241l-186 -241l125 -226h-228l-42 91c-20 43 -28 62 -35 94h-5l-13 -107h-108l11 96h-37z" />
    <glyph glyph-name="uni04A0" unicode="&#x4a0;" horiz-adv-x="807" 
d="M114 0l61 489h-140l22 178h381l-22 -173c-4 -32 -11 -75 -21 -116l7 -2c14 36 27 62 42 85l23 37l106 169h282l-260 -338l170 -329h-255l-85 192c-18 41 -25 61 -34 98l-7 -1v-20c0 -21 -2 -54 -5 -77l-23 -192h-242z" />
    <glyph glyph-name="uni04A1" unicode="&#x4a1;" horiz-adv-x="750" 
d="M46 467h363l-7 -56c-2 -19 -10 -78 -24 -136l7 -1c19 48 40 78 61 109l57 84h267l-201 -241l134 -226h-248l-42 91c-20 43 -32 74 -40 114l-9 -1c4 -23 4 -71 1 -96l-14 -108h-231l37 293h-132z" />
    <glyph glyph-name="uni04A2" unicode="&#x4a2;" horiz-adv-x="808" 
d="M505 667h242l-57 -471h105l-39 -329h-200l16 133h-149l30 243h-143l-29 -243h-242l82 667h242l-28 -228h142z" />
    <glyph glyph-name="uni04A3" unicode="&#x4a3;" horiz-adv-x="678" 
d="M20 0l57 467h232l-18 -144h74l18 144h232l-36 -299h79l-36 -299h-166l16 131h-146l19 155h-74l-19 -155h-232z" />
    <glyph glyph-name="uni04A4" unicode="&#x4a4;" horiz-adv-x="893" 
d="M121 667h242l-28 -228h142l28 228h418l-22 -178h-176l-60 -489h-242l30 243h-143l-29 -243h-242z" />
    <glyph glyph-name="uni04A5" unicode="&#x4a5;" horiz-adv-x="749" 
d="M20 0l57 467h232l-18 -144h74l18 144h371l-21 -174h-139l-36 -293h-232l19 155h-74l-19 -155h-232z" />
    <glyph glyph-name="uni04AA" unicode="&#x4aa;" horiz-adv-x="582" 
d="M231 -149l19 153c-55 20 -101 53 -140 107c-46 63 -63 129 -63 203c0 122 49 209 105 265c55 55 140 104 270 104c63 0 116 -11 166 -31l-20 -237c-16 14 -65 52 -133 52c-37 0 -70 -11 -100 -40s-47 -69 -47 -108c0 -30 11 -58 30 -79c21 -23 58 -41 99 -41
c46 0 94 20 131 57l-29 -243c-21 -11 -43 -17 -65 -19l-17 -143h-206z" />
    <glyph glyph-name="uni04AB" unicode="&#x4ab;" horiz-adv-x="437" 
d="M439 467l-29 -196c-7 9 -35 42 -82 42c-44 0 -73 -31 -73 -80c0 -44 26 -69 68 -69c32 0 59 14 78 33l-34 -192c-12 -4 -23 -7 -33 -9l-17 -136h-166l20 143c-21 7 -38 17 -57 31c-51 40 -87 99 -87 186c0 84 32 157 82 204c38 35 98 69 191 69c44 0 85 -7 139 -26z" />
    <glyph glyph-name="uni04AE" unicode="&#x4ae;" horiz-adv-x="684" 
d="M745 667l-281 -384l-35 -283h-240l36 289l-178 378h265l34 -109c8 -25 11 -42 13 -76h9c6 22 13 40 24 63l62 122h291z" />
    <glyph glyph-name="uni04AF" unicode="&#x4af;" horiz-adv-x="616" 
d="M24 467h243l19 -119c5 -34 15 -93 11 -154h10c4 22 9 48 15 68c6 23 18 55 25 74l50 131h253l-251 -454l-30 -242h-232l30 242z" />
    <glyph glyph-name="uni04B0" unicode="&#x4b0;" horiz-adv-x="694" 
d="M755 667l-275 -353l-3 -19h180l-20 -168h-180l-18 -127h-240l16 127h-180l20 168h180l3 19l-181 353h265l34 -109c8 -25 11 -42 13 -76h9c6 22 13 40 24 63l62 122h291z" />
    <glyph glyph-name="uni04B1" unicode="&#x4b1;" horiz-adv-x="624" 
d="M180 63l-148 404h243l19 -109c4 -23 9 -47 11 -74c0 -5 2 -29 0 -60h10c3 16 9 40 13 55c9 32 17 50 27 72l50 116h253l-246 -404l-2 -25h137l-17 -138h-137l-15 -129h-232l15 129h-137l17 138h136z" />
    <glyph glyph-name="uni04B2" unicode="&#x4b2;" horiz-adv-x="740" 
d="M765 667l-253 -321l100 -150h117l-39 -329h-200l16 133h-40l-58 99c-3 5 -22 38 -35 86h-8c-5 -16 -12 -35 -22 -52l-78 -133h-293l278 356l-181 311h273l32 -84c9 -23 15 -37 20 -68h6c10 30 20 50 32 73l41 79h292z" />
    <glyph glyph-name="uni04B3" unicode="&#x4b3;" horiz-adv-x="633" 
d="M374 467h272l-192 -228l51 -71h105l-36 -299h-166l16 131h-65l-25 43c-4 7 -10 20 -12 27c-3 10 -6 23 -7 32l-7 1c-3 -8 -5 -14 -9 -21c-5 -9 -11 -20 -16 -28l-35 -54h-278l217 246l-155 221h263l15 -46c2 -7 5 -12 7 -24c1 -7 3 -15 3 -23l9 1c2 9 4 15 7 21
c5 12 6 14 11 22z" />
    <glyph glyph-name="uni04B6" unicode="&#x4b6;" horiz-adv-x="770" 
d="M534 0h-147l29 233c-41 -10 -76 -12 -116 -12c-96 0 -144 19 -170 36c-32 21 -70 62 -70 137c0 11 3 39 4 51l27 222h240l-21 -172c-3 -22 -10 -51 14 -69c16 -12 44 -13 53 -13c19 0 46 3 62 6l30 248h242l-59 -471h105l-39 -329h-200z" />
    <glyph glyph-name="uni04B7" unicode="&#x4b7;" horiz-adv-x="659" 
d="M453 0h-146l17 141c-32 -7 -62 -10 -94 -10c-35 0 -96 3 -138 32c-56 39 -54 99 -50 134l21 170h227l-15 -126c-2 -17 -2 -33 9 -42c7 -6 21 -8 30 -8c12 0 22 3 29 6l21 170h232l-36 -299h79l-36 -299h-166z" />
    <glyph glyph-name="uni04B8" unicode="&#x4b8;" horiz-adv-x="814" 
d="M527 407l32 260h242l-82 -667h-242l30 246c-18 -5 -35 -9 -51 -12l-14 -108h-122l12 97c-71 -7 -170 5 -223 52c-57 50 -51 114 -45 165l28 227h228l-21 -171c-2 -13 -4 -27 -4 -44c0 -12 1 -30 17 -42c11 -8 29 -11 42 -10l18 143h122l-18 -146c18 1 35 4 51 10z" />
    <glyph glyph-name="uni04B9" unicode="&#x4b9;" horiz-adv-x="713" 
d="M413 376l-12 -98c13 0 25 3 38 8l22 181h232l-57 -467h-232l18 152c-13 -4 -25 -7 -37 -8l-10 -76h-104l8 63c-65 -4 -160 0 -206 48c-39 40 -35 94 -30 132l19 156h210l-16 -130c-2 -18 -5 -39 10 -52c7 -6 20 -10 31 -9l12 100h104z" />
    <glyph glyph-name="uni04BA" unicode="&#x4ba;" horiz-adv-x="725" 
d="M363 667l-29 -233c40 9 73 12 115 12c86 0 137 -15 170 -36c34 -22 71 -63 71 -135c0 -13 -3 -41 -4 -53l-27 -222h-240l21 172c1 9 3 20 3 31c0 14 -3 28 -17 38c-14 11 -38 13 -53 13c-18 0 -43 -2 -63 -6l-29 -248h-242l82 667h242z" />
    <glyph glyph-name="uni04BB" unicode="&#x4bb;" horiz-adv-x="632" 
d="M110 729h231l-26 -211c-7 -58 -14 -89 -25 -125l9 -3c35 61 86 93 148 93c83 0 147 -65 147 -149c0 -16 -1 -33 -4 -53l-34 -281h-232l28 226c2 13 3 25 3 31c0 23 -10 35 -30 35c-30 0 -41 -17 -48 -74l-26 -218h-231z" />
    <glyph glyph-name="uni04C0" unicode="&#x4c0;" horiz-adv-x="379" 
d="M121 667h245l-82 -667h-245z" />
    <glyph glyph-name="uni04C1" unicode="&#x4c1;" horiz-adv-x="1063" 
d="M388 0l23 192c0 3 3 23 17 97l-8 1c-14 -31 -33 -66 -55 -98l-133 -192h-247l248 356l-150 311h250l75 -197c15 -39 21 -91 21 -94l10 2c3 47 2 39 3 57c1 28 3 36 6 59l22 173h230l-23 -173c-4 -31 -6 -59 -21 -116l10 -2c12 38 31 72 39 85l129 206h259l-242 -320
l163 -347h-243l-85 192c-10 23 -23 52 -31 98l-10 -1c0 -25 -3 -76 -5 -97l-22 -192h-230zM671 904l138 -50c-18 -44 -50 -80 -83 -99c-49 -28 -121 -30 -142 -30c-79 0 -121 21 -137 30c-13 8 -57 36 -80 99l144 50c2 -17 10 -37 23 -48c12 -10 32 -15 51 -15
c6 0 33 0 53 13c15 10 28 30 33 50z" />
    <glyph glyph-name="uni04C2" unicode="&#x4c2;" horiz-adv-x="970" 
d="M336 0l13 108c3 26 15 76 25 96l-9 1c-16 -33 -34 -66 -68 -114l-64 -91h-248l191 247l-130 220h253l37 -84c12 -27 18 -31 35 -109l7 1c3 66 2 90 8 136l7 56h220l-6 -56c-3 -26 -12 -86 -24 -136l7 -1c19 48 40 78 61 109l57 84h267l-201 -241l134 -226h-248l-42 91
c-20 43 -32 74 -40 114l-9 -1c4 -23 4 -71 1 -96l-14 -108h-220zM607 695l134 -51c-20 -51 -54 -78 -80 -93c-42 -24 -90 -28 -128 -28c-32 0 -93 3 -139 29c-26 15 -58 43 -73 92l145 51c2 -14 8 -35 19 -46c14 -14 35 -16 46 -16c16 0 34 1 50 16c12 11 22 30 26 46z" />
    <glyph glyph-name="uni04C3" unicode="&#x4c3;" horiz-adv-x="705" 
d="M121 667h242l-21 -171c-4 -32 -13 -82 -22 -118l7 -2c22 48 30 62 44 85l127 206h237l-197 -279c40 -5 86 -23 117 -54c37 -37 44 -81 44 -117c0 -73 -26 -134 -62 -171c-52 -54 -119 -62 -174 -62c-52 0 -90 5 -136 25l50 140c9 -12 22 -20 38 -20c15 0 25 8 33 19
c7 11 11 25 11 38c0 10 -1 28 -17 42c-12 10 -30 16 -51 16c-15 0 -29 -3 -44 -10c-12 -5 -29 -16 -40 -23l-26 -211h-242z" />
    <glyph glyph-name="uni04C4" unicode="&#x4c4;" horiz-adv-x="620" 
d="M78 467h231l-7 -56c-8 -67 -20 -117 -28 -147l7 -1c10 25 29 67 65 120l57 84h232l-187 -236v-6c34 -8 62 -25 82 -44c37 -35 49 -76 49 -123c0 -77 -26 -143 -69 -186c-63 -63 -164 -80 -259 -80h-13l16 124h3c18 0 41 2 61 19c29 25 37 74 37 105c0 23 -5 52 -17 67
c-14 18 -42 26 -72 18l-15 -125h-231z" />
    <glyph glyph-name="uni04C7" unicode="&#x4c7;" horiz-adv-x="760" 
d="M505 667h242l-87 -711c-6 -48 -14 -102 -56 -141c-49 -45 -123 -45 -165 -45c-43 0 -76 2 -116 9l18 146c10 -7 18 -8 28 -8s24 1 34 11c12 12 16 38 17 48l33 267h-143l-29 -243h-242l82 667h242l-28 -228h142z" />
    <glyph glyph-name="uni04C8" unicode="&#x4c8;" horiz-adv-x="633" 
d="M20 0l57 467h232l-18 -144h74l18 144h232l-59 -497c-5 -42 -14 -110 -56 -152c-44 -44 -110 -48 -151 -48c-44 0 -86 5 -124 12l18 148c9 -7 19 -10 33 -10c19 0 29 7 35 14c6 8 10 21 13 45l21 176h-74l-19 -155h-232z" />
    <glyph glyph-name="uni04D0" unicode="&#x4d0;" horiz-adv-x="708" 
d="M428 89h-164l-32 -89h-260l308 667h276l124 -667h-247zM365 362l-45 -121h92l-10 121c-1 11 -2 28 -2 47c0 24 1 31 3 53h-8c-9 -39 -15 -61 -30 -100zM518 904l138 -50c-18 -44 -50 -80 -83 -99c-49 -28 -121 -30 -142 -30c-79 0 -121 21 -137 30c-13 8 -57 36 -80 99
l144 50c2 -17 10 -37 23 -48c12 -10 32 -15 51 -15c6 0 33 0 53 13c15 10 28 30 33 50z" />
    <glyph glyph-name="uni04D1" unicode="&#x4d1;" horiz-adv-x="652" 
d="M403 467h230l-58 -467h-229c7 32 10 40 25 83l-7 3c-40 -70 -82 -99 -144 -99c-105 0 -195 100 -195 218c0 148 110 278 234 278c74 0 114 -28 141 -100l8 3c-4 33 -5 45 -5 71v10zM316 164c37 0 65 32 65 74c0 35 -23 61 -55 61c-36 0 -67 -35 -67 -76
c0 -34 24 -59 57 -59zM447 695l134 -51c-20 -51 -54 -78 -80 -93c-42 -24 -90 -28 -128 -28c-32 0 -93 3 -139 29c-26 15 -58 43 -73 92l145 51c2 -14 8 -35 19 -46c14 -14 35 -16 46 -16c16 0 34 1 50 16c12 11 22 30 26 46z" />
    <glyph glyph-name="uni04D2" unicode="&#x4d2;" horiz-adv-x="708" 
d="M428 89h-164l-32 -89h-260l308 667h276l124 -667h-247zM365 362l-45 -121h92l-10 121c-1 11 -2 28 -2 47c0 24 1 31 3 53h-8c-9 -39 -15 -61 -30 -100zM208 833c0 56 44 100 100 100s100 -44 100 -100s-44 -100 -100 -100s-100 44 -100 100zM455 833c0 56 44 100 100 100
s100 -44 100 -100s-44 -100 -100 -100s-100 44 -100 100z" />
    <glyph glyph-name="uni04D3" unicode="&#x4d3;" horiz-adv-x="652" 
d="M403 467h230l-58 -467h-229c7 32 10 40 25 83l-7 3c-40 -70 -82 -99 -144 -99c-105 0 -195 100 -195 218c0 148 110 278 234 278c74 0 114 -28 141 -100l8 3c-4 33 -5 45 -5 71v10zM316 164c37 0 65 32 65 74c0 35 -23 61 -55 61c-36 0 -67 -35 -67 -76
c0 -34 24 -59 57 -59zM145 642c0 57 46 103 102 103c57 0 103 -46 103 -103c0 -56 -46 -102 -103 -102c-56 0 -102 46 -102 102zM392 642c0 57 46 103 102 103c57 0 103 -46 103 -103c0 -56 -46 -102 -103 -102c-56 0 -102 46 -102 102z" />
    <glyph glyph-name="uni04D4" unicode="&#x4d4;" horiz-adv-x="920" 
d="M289 667h478l31 -175h-203l12 -71h204l29 -170h-203l13 -70h203l32 -181h-446l-4 88h-165l-32 -88h-259zM375 370l-48 -131h93l-12 131c-1 9 -1 20 -1 32c0 22 1 33 4 57l-11 2c-7 -39 -11 -53 -25 -91z" />
    <glyph glyph-name="uni04D5" unicode="&#x4d5;" horiz-adv-x="945" 
d="M913 203h-331c-1 -5 -1 -11 -1 -16c0 -37 21 -62 52 -62c11 0 26 4 34 11c5 5 13 19 16 27h222c-14 -45 -40 -90 -95 -127c-53 -36 -111 -49 -172 -49c-76 0 -150 17 -208 73c-23 -24 -53 -46 -83 -57c-19 -7 -53 -16 -110 -16c-48 0 -110 6 -158 43
c-44 34 -60 81 -60 124c0 50 23 84 44 104c26 25 72 51 153 51c28 0 54 -2 85 -14c25 -10 45 -22 63 -41c2 10 3 22 3 31c0 33 -13 51 -38 66c-28 17 -62 19 -89 19c-66 0 -129 -21 -178 -46l17 133c21 9 90 36 180 36c107 0 158 -31 191 -67c26 25 80 67 194 67
c99 0 163 -37 203 -78c44 -46 70 -108 70 -171c0 -14 -1 -27 -4 -41zM295 97c18 0 40 4 55 14c18 12 23 28 23 40c0 18 -10 31 -20 38c-16 11 -42 14 -60 14c-11 0 -39 -1 -56 -13c-11 -8 -20 -23 -20 -40c0 -12 4 -27 21 -39c18 -13 41 -14 57 -14zM592 299h108
c0 30 -15 62 -50 62c-33 0 -55 -26 -58 -62z" />
    <glyph glyph-name="uni04D6" unicode="&#x4d6;" horiz-adv-x="549" 
d="M121 667h438l-21 -174h-197l-9 -73h180l-20 -165h-180l-9 -76h204l-22 -179h-446zM439 904l138 -50c-18 -44 -50 -80 -83 -99c-49 -28 -121 -30 -142 -30c-79 0 -121 21 -137 30c-13 8 -57 36 -80 99l144 50c2 -17 10 -37 23 -48c12 -10 32 -15 51 -15c6 0 33 0 53 13
c15 10 28 30 33 50z" />
    <glyph glyph-name="uni04D7" unicode="&#x4d7;" horiz-adv-x="618" 
d="M587 202h-331c-1 -6 -1 -12 -1 -17c0 -38 20 -63 51 -63c24 0 39 12 50 40h222c-18 -53 -31 -74 -65 -104c-54 -47 -124 -71 -205 -71c-166 0 -280 98 -280 242c0 151 124 265 288 265c154 0 275 -107 275 -244c0 -11 -2 -27 -4 -48zM322 360c-32 0 -50 -19 -57 -62h108
c-1 42 -17 62 -51 62zM407 695l134 -51c-20 -51 -54 -78 -80 -93c-42 -24 -90 -28 -128 -28c-32 0 -93 3 -139 29c-26 15 -58 43 -73 92l145 51c2 -14 8 -35 19 -46c14 -14 35 -16 46 -16c16 0 34 1 50 16c12 11 22 30 26 46z" />
    <glyph glyph-name="uni04D8" unicode="&#x4d8;" horiz-adv-x="782" 
d="M287 431l-220 37c37 79 92 131 141 161c70 43 146 54 209 54c129 0 207 -47 252 -93c57 -58 91 -145 91 -238c0 -106 -37 -206 -103 -273c-83 -84 -183 -96 -266 -96c-86 0 -176 15 -250 92c-96 99 -98 237 -90 311h466c-1 27 -12 65 -35 88c-15 15 -42 29 -80 29
c-23 0 -53 -6 -74 -21c-18 -12 -33 -32 -41 -51zM502 258h-245c2 -29 15 -54 31 -69c18 -16 46 -26 81 -26c25 0 61 6 85 23c20 14 40 40 48 72z" />
    <glyph glyph-name="afii10846" unicode="&#x4d9;" horiz-adv-x="612" 
d="M31 275h331c4 22 4 59 -12 77c-6 7 -18 14 -38 14c-15 0 -28 -4 -39 -14c-8 -8 -17 -21 -21 -32l-196 38c28 48 65 79 101 99c39 22 92 37 159 37c102 0 164 -37 201 -73c33 -32 69 -86 69 -171c0 -78 -30 -146 -78 -193c-60 -59 -130 -71 -201 -71
c-66 0 -149 12 -208 69c-48 46 -79 126 -68 220zM348 174h-107c-1 -16 4 -36 15 -47c6 -6 17 -13 34 -13c19 0 31 7 37 13c11 10 19 30 21 47z" />
    <glyph glyph-name="uni04DA" unicode="&#x4da;" horiz-adv-x="782" 
d="M287 431l-220 37c37 79 92 131 141 161c70 43 146 54 209 54c129 0 207 -47 252 -93c57 -58 91 -145 91 -238c0 -106 -37 -206 -103 -273c-83 -84 -183 -96 -266 -96c-86 0 -176 15 -250 92c-96 99 -98 237 -90 311h466c-1 27 -12 65 -35 88c-15 15 -42 29 -80 29
c-23 0 -53 -6 -74 -21c-18 -12 -33 -32 -41 -51zM502 258h-245c2 -29 15 -54 31 -69c18 -16 46 -26 81 -26c25 0 61 6 85 23c20 14 40 40 48 72zM208 833c0 56 44 100 100 100s100 -44 100 -100s-44 -100 -100 -100s-100 44 -100 100zM455 833c0 56 44 100 100 100
s100 -44 100 -100s-44 -100 -100 -100s-100 44 -100 100z" />
    <glyph glyph-name="uni04DB" unicode="&#x4db;" horiz-adv-x="612" 
d="M31 275h331c4 22 4 59 -12 77c-6 7 -18 14 -38 14c-15 0 -28 -4 -39 -14c-8 -8 -17 -21 -21 -32l-196 38c28 48 65 79 101 99c39 22 92 37 159 37c102 0 164 -37 201 -73c33 -32 69 -86 69 -171c0 -78 -30 -146 -78 -193c-60 -59 -130 -71 -201 -71
c-66 0 -149 12 -208 69c-48 46 -79 126 -68 220zM348 174h-107c-1 -16 4 -36 15 -47c6 -6 17 -13 34 -13c19 0 31 7 37 13c11 10 19 30 21 47zM95 642c0 57 46 103 102 103c57 0 103 -46 103 -103c0 -56 -46 -102 -103 -102c-56 0 -102 46 -102 102zM342 642
c0 57 46 103 102 103c57 0 103 -46 103 -103c0 -56 -46 -102 -103 -102c-56 0 -102 46 -102 102z" />
    <glyph glyph-name="uni04DC" unicode="&#x4dc;" horiz-adv-x="1063" 
d="M388 0l23 192c0 3 3 23 17 97l-8 1c-14 -31 -33 -66 -55 -98l-133 -192h-247l248 356l-150 311h250l75 -197c15 -39 21 -91 21 -94l10 2c3 47 2 39 3 57c1 28 3 36 6 59l22 173h230l-23 -173c-4 -31 -6 -59 -21 -116l10 -2c12 38 31 72 39 85l129 206h259l-242 -320
l163 -347h-243l-85 192c-10 23 -23 52 -31 98l-10 -1c0 -25 -3 -76 -5 -97l-22 -192h-230zM378 833c0 56 44 100 100 100s100 -44 100 -100s-44 -100 -100 -100s-100 44 -100 100zM625 833c0 56 44 100 100 100s100 -44 100 -100s-44 -100 -100 -100s-100 44 -100 100z" />
    <glyph glyph-name="uni04DD" unicode="&#x4dd;" horiz-adv-x="970" 
d="M336 0l13 108c3 26 15 76 25 96l-9 1c-16 -33 -34 -66 -68 -114l-64 -91h-248l191 247l-130 220h253l37 -84c12 -27 18 -31 35 -109l7 1c3 66 2 90 8 136l7 56h220l-6 -56c-3 -26 -12 -86 -24 -136l7 -1c19 48 40 78 61 109l57 84h267l-201 -241l134 -226h-248l-42 91
c-20 43 -32 74 -40 114l-9 -1c4 -23 4 -71 1 -96l-14 -108h-220zM285 642c0 57 46 103 102 103c57 0 103 -46 103 -103c0 -56 -46 -102 -103 -102c-56 0 -102 46 -102 102zM532 642c0 57 46 103 102 103c57 0 103 -46 103 -103c0 -56 -46 -102 -103 -102
c-56 0 -102 46 -102 102z" />
    <glyph glyph-name="uni04DE" unicode="&#x4de;" horiz-adv-x="653" 
d="M144 437l-56 178c124 60 215 68 265 68c66 0 135 -15 183 -49c55 -38 77 -93 77 -144c0 -44 -19 -82 -42 -105c-15 -15 -40 -29 -64 -37l-1 -6c23 -6 48 -19 66 -37c30 -30 37 -67 37 -95c0 -51 -17 -127 -97 -178c-52 -33 -125 -49 -199 -49c-63 0 -126 10 -177 27
c-41 14 -87 36 -120 55l85 180c22 -25 46 -44 76 -58c29 -14 58 -22 93 -22c18 0 42 2 57 9c18 8 28 24 28 39c0 9 -4 24 -25 32c-13 5 -39 7 -56 7h-85l20 162h67c44 0 62 7 67 9c24 10 27 27 27 35c0 7 -4 21 -22 30c-13 6 -31 9 -49 9c-31 0 -61 -9 -87 -20
c-23 -10 -47 -25 -68 -40zM148 833c0 56 44 100 100 100s100 -44 100 -100s-44 -100 -100 -100s-100 44 -100 100zM395 833c0 56 44 100 100 100s100 -44 100 -100s-44 -100 -100 -100s-100 44 -100 100z" />
    <glyph glyph-name="uni04DF" unicode="&#x4df;" horiz-adv-x="543" 
d="M94 303l-40 142c87 41 158 48 216 48c96 0 143 -20 166 -34c58 -35 67 -85 67 -115c0 -26 -7 -48 -26 -68c-13 -14 -31 -25 -53 -31l1 -9c20 -4 40 -15 52 -27c14 -14 24 -36 24 -62c0 -32 -12 -70 -43 -100c-53 -52 -135 -60 -208 -60c-69 0 -149 9 -240 55l56 144
c18 -16 36 -27 60 -37c26 -11 49 -16 78 -16c19 0 45 3 58 12c8 6 11 14 11 22c0 12 -6 20 -20 24c-3 1 -14 4 -53 4h-46l14 100h50c34 0 47 3 51 4c20 5 23 18 23 26c0 12 -9 18 -18 22c-8 3 -21 6 -48 6c-25 0 -47 -4 -72 -14c-19 -8 -41 -21 -60 -36zM65 642
c0 57 46 103 102 103c57 0 103 -46 103 -103c0 -56 -46 -102 -103 -102c-56 0 -102 46 -102 102zM312 642c0 57 46 103 102 103c57 0 103 -46 103 -103c0 -56 -46 -102 -103 -102c-56 0 -102 46 -102 102z" />
    <glyph glyph-name="uni04E2" unicode="&#x4e2;" horiz-adv-x="784" 
d="M121 667h238l-26 -204c-6 -49 -15 -93 -32 -140l10 -5c22 43 50 88 73 120l166 229h221l-82 -667h-238l21 172c7 59 16 96 32 153l-10 2c-10 -20 -30 -57 -75 -117l-159 -210h-221zM633 746h-364l12 104h364z" />
    <glyph glyph-name="uni04E3" unicode="&#x4e3;" horiz-adv-x="673" 
d="M77 467h228l-20 -146c-4 -33 -11 -60 -25 -91l11 -4c10 23 19 38 33 59l124 182h227l-57 -467h-228l19 140c4 30 9 57 19 92l-10 4c-18 -37 -29 -51 -42 -70l-109 -166h-227zM544 546h-340l12 100h340z" />
    <glyph glyph-name="uni04E4" unicode="&#x4e4;" horiz-adv-x="784" 
d="M121 667h238l-26 -204c-6 -49 -15 -93 -32 -140l10 -5c22 43 50 88 73 120l166 229h221l-82 -667h-238l21 172c7 59 16 96 32 153l-10 2c-10 -20 -30 -57 -75 -117l-159 -210h-221zM236 833c0 56 44 100 100 100s100 -44 100 -100s-44 -100 -100 -100s-100 44 -100 100z
M483 833c0 56 44 100 100 100s100 -44 100 -100s-44 -100 -100 -100s-100 44 -100 100z" />
    <glyph glyph-name="uni04E5" unicode="&#x4e5;" horiz-adv-x="673" 
d="M77 467h228l-20 -146c-4 -33 -11 -60 -25 -91l11 -4c10 23 19 38 33 59l124 182h227l-57 -467h-228l19 140c4 30 9 57 19 92l-10 4c-18 -37 -29 -51 -42 -70l-109 -166h-227zM155 642c0 57 46 103 102 103c57 0 103 -46 103 -103c0 -56 -46 -102 -103 -102
c-56 0 -102 46 -102 102zM402 642c0 57 46 103 102 103c57 0 103 -46 103 -103c0 -56 -46 -102 -103 -102c-56 0 -102 46 -102 102z" />
    <glyph glyph-name="uni04E6" unicode="&#x4e6;" horiz-adv-x="808" 
d="M675 591c73 -60 111 -147 111 -252c0 -202 -157 -356 -365 -356c-211 0 -373 148 -373 341c0 202 162 359 368 359c96 0 189 -33 259 -92zM410 193c76 0 132 61 132 142c0 71 -51 127 -118 127c-73 0 -132 -63 -132 -140c0 -74 50 -129 118 -129zM208 833
c0 56 44 100 100 100s100 -44 100 -100s-44 -100 -100 -100s-100 44 -100 100zM455 833c0 56 44 100 100 100s100 -44 100 -100s-44 -100 -100 -100s-100 44 -100 100z" />
    <glyph glyph-name="uni04E7" unicode="&#x4e7;" horiz-adv-x="637" 
d="M329 493c93 0 167 -32 213 -78c41 -40 69 -99 69 -171c0 -44 -11 -113 -71 -174c-51 -52 -122 -83 -216 -83c-109 0 -181 39 -223 80c-53 51 -72 114 -72 169c0 68 28 130 69 172c53 54 139 85 231 85zM318 169c17 0 30 5 41 16c14 14 23 36 23 59c0 22 -9 41 -20 51
c-10 9 -23 15 -38 15s-31 -5 -43 -17c-14 -14 -23 -36 -23 -58c0 -19 9 -39 21 -51c10 -9 23 -15 39 -15zM125 642c0 57 46 103 102 103c57 0 103 -46 103 -103c0 -56 -46 -102 -103 -102c-56 0 -102 46 -102 102zM372 642c0 57 46 103 102 103c57 0 103 -46 103 -103
c0 -56 -46 -102 -103 -102c-56 0 -102 46 -102 102z" />
    <glyph glyph-name="uni04E8" unicode="&#x4e8;" horiz-adv-x="808" 
d="M315 395h218c-7 30 -24 49 -38 59c-23 17 -47 21 -69 21c-28 0 -50 -6 -70 -21c-14 -10 -32 -29 -41 -59zM531 287h-229c3 -28 17 -55 34 -70s44 -25 74 -25c29 0 59 8 80 25c20 17 35 45 41 70zM416 683c111 0 216 -46 281 -112c45 -47 89 -122 89 -232
c0 -104 -43 -192 -103 -252c-48 -48 -133 -104 -262 -104c-122 0 -215 47 -275 107c-43 43 -98 119 -98 234c0 93 35 183 105 253c86 86 190 106 263 106z" />
    <glyph glyph-name="uni04EA" unicode="&#x4ea;" horiz-adv-x="808" 
d="M315 395h218c-7 30 -24 49 -38 59c-23 17 -47 21 -69 21c-28 0 -50 -6 -70 -21c-14 -10 -32 -29 -41 -59zM531 287h-229c3 -28 17 -55 34 -70s44 -25 74 -25c29 0 59 8 80 25c20 17 35 45 41 70zM416 683c111 0 216 -46 281 -112c45 -47 89 -122 89 -232
c0 -104 -43 -192 -103 -252c-48 -48 -133 -104 -262 -104c-122 0 -215 47 -275 107c-43 43 -98 119 -98 234c0 93 35 183 105 253c86 86 190 106 263 106zM208 833c0 56 44 100 100 100s100 -44 100 -100s-44 -100 -100 -100s-100 44 -100 100zM455 833c0 56 44 100 100 100
s100 -44 100 -100s-44 -100 -100 -100s-100 44 -100 100z" />
    <glyph glyph-name="uni04EB" unicode="&#x4eb;" horiz-adv-x="637" 
d="M250 281h150c-2 21 -12 35 -21 43c-16 14 -35 16 -50 16c-14 0 -37 -3 -55 -19c-11 -10 -20 -26 -24 -40zM390 203h-148c0 -20 7 -36 17 -45c15 -15 37 -18 53 -18c18 0 36 3 52 16c12 9 23 25 26 47zM329 493c93 0 167 -32 213 -78c32 -32 69 -88 69 -171
c0 -80 -35 -137 -71 -174c-67 -69 -144 -83 -216 -83c-79 0 -158 16 -223 80c-37 36 -72 91 -72 169c0 68 28 130 69 172c53 54 139 85 231 85zM125 642c0 57 46 103 102 103c57 0 103 -46 103 -103c0 -56 -46 -102 -103 -102c-56 0 -102 46 -102 102zM372 642
c0 57 46 103 102 103c57 0 103 -46 103 -103c0 -56 -46 -102 -103 -102c-56 0 -102 46 -102 102z" />
    <glyph glyph-name="uni04ED" unicode="&#x4ed;" horiz-adv-x="637" 
d="M250 281h150c-2 21 -12 35 -21 43c-16 14 -35 16 -50 16c-14 0 -37 -3 -55 -19c-11 -10 -20 -26 -24 -40zM390 203h-148c0 -20 7 -36 17 -45c15 -15 37 -18 53 -18c18 0 36 3 52 16c12 9 23 25 26 47zM329 493c93 0 167 -32 213 -78c32 -32 69 -88 69 -171
c0 -80 -35 -137 -71 -174c-67 -69 -144 -83 -216 -83c-79 0 -158 16 -223 80c-37 36 -72 91 -72 169c0 68 28 130 69 172c53 54 139 85 231 85z" />
    <glyph glyph-name="uni04EE" unicode="&#x4ee;" horiz-adv-x="714" 
d="M40 667h259l72 -188c9 -24 15 -45 17 -73h8c6 24 15 52 26 75l90 186h263l-389 -667h-266l87 153c16 28 29 48 53 73zM585 746h-364l12 104h364z" />
    <glyph glyph-name="uni04EF" unicode="&#x4ef;" horiz-adv-x="591" 
d="M381 467h249l-363 -696h-248l88 169c30 52 37 63 65 96l-141 431h238l20 -130c6 -37 7 -53 7 -75c0 -14 0 -24 -2 -48l10 -1c11 58 18 87 34 131zM488 546h-340l12 100h340z" />
    <glyph glyph-name="uni04F0" unicode="&#x4f0;" horiz-adv-x="714" 
d="M40 667h259l72 -188c9 -24 15 -45 17 -73h8c6 24 15 52 26 75l90 186h263l-389 -667h-266l87 153c16 28 29 48 53 73zM198 833c0 56 44 100 100 100s100 -44 100 -100s-44 -100 -100 -100s-100 44 -100 100zM445 833c0 56 44 100 100 100s100 -44 100 -100
s-44 -100 -100 -100s-100 44 -100 100z" />
    <glyph glyph-name="uni04F1" unicode="&#x4f1;" horiz-adv-x="591" 
d="M381 467h249l-363 -696h-248l88 169c30 52 37 63 65 96l-141 431h238l20 -130c6 -37 7 -53 7 -75c0 -14 0 -24 -2 -48l10 -1c11 58 18 87 34 131zM95 642c0 57 46 103 102 103c57 0 103 -46 103 -103c0 -56 -46 -102 -103 -102c-56 0 -102 46 -102 102zM342 642
c0 57 46 103 102 103c57 0 103 -46 103 -103c0 -56 -46 -102 -103 -102c-56 0 -102 46 -102 102z" />
    <glyph glyph-name="uni04F2" unicode="&#x4f2;" horiz-adv-x="714" 
d="M40 667h259l72 -188c9 -24 15 -45 17 -73h8c6 24 15 52 26 75l90 186h263l-389 -667h-266l87 153c16 28 29 48 53 73zM400 779l111 137l111 -73l-143 -119zM182 779l111 137l111 -73l-143 -119z" />
    <glyph glyph-name="uni04F3" unicode="&#x4f3;" horiz-adv-x="591" 
d="M381 467h249l-363 -696h-248l88 169c30 52 37 63 65 96l-141 431h238l20 -130c6 -37 7 -53 7 -75c0 -14 0 -24 -2 -48l10 -1c11 58 18 87 34 131zM120 596l100 146l112 -73l-133 -128zM324 596l100 146l111 -73l-132 -128z" />
    <glyph glyph-name="uni04F4" unicode="&#x4f4;" horiz-adv-x="724" 
d="M387 0l29 233c-41 -10 -76 -12 -116 -12c-96 0 -144 19 -170 36c-32 21 -70 62 -70 137c0 11 3 39 4 51l27 222h240l-21 -172c-3 -22 -10 -51 14 -69c16 -12 44 -13 53 -13c19 0 46 3 62 6l30 248h242l-82 -667h-242zM198 833c0 56 44 100 100 100s100 -44 100 -100
s-44 -100 -100 -100s-100 44 -100 100zM445 833c0 56 44 100 100 100s100 -44 100 -100s-44 -100 -100 -100s-100 44 -100 100z" />
    <glyph glyph-name="uni04F5" unicode="&#x4f5;" horiz-adv-x="616" 
d="M307 0l17 141c-32 -7 -62 -10 -94 -10c-35 0 -96 3 -138 32c-56 39 -54 99 -50 134l21 170h227l-15 -126c-2 -17 -2 -33 9 -42c7 -6 21 -8 30 -8c12 0 22 3 29 6l21 170h232l-57 -467h-232zM115 642c0 57 46 103 102 103c57 0 103 -46 103 -103c0 -56 -46 -102 -103 -102
c-56 0 -102 46 -102 102zM362 642c0 57 46 103 102 103c57 0 103 -46 103 -103c0 -56 -46 -102 -103 -102c-56 0 -102 46 -102 102z" />
    <glyph glyph-name="uni04F8" unicode="&#x4f8;" horiz-adv-x="1007" 
d="M912 0h-242l82 667h242zM39 0l83 667h242l-31 -254h78c72 0 149 -11 195 -56c25 -24 50 -68 50 -134c0 -90 -42 -146 -83 -175c-62 -44 -155 -48 -208 -48h-326zM301 156h23c36 0 56 3 71 10c22 11 29 28 29 50c0 12 -2 27 -19 37c-10 6 -25 10 -62 10h-29zM348 833
c0 56 44 100 100 100s100 -44 100 -100s-44 -100 -100 -100s-100 44 -100 100zM595 833c0 56 44 100 100 100s100 -44 100 -100s-44 -100 -100 -100s-100 44 -100 100z" />
    <glyph glyph-name="uni04F9" unicode="&#x4f9;" horiz-adv-x="884" 
d="M579 0l57 467h228l-57 -467h-228zM289 311h99c63 0 108 -15 134 -39c21 -19 42 -54 42 -107c0 -52 -21 -89 -43 -112c-39 -39 -100 -53 -174 -53h-327l56 467h232zM265 116h36c16 0 33 3 43 11c8 6 16 17 16 37c0 5 -1 19 -12 27c-9 6 -26 8 -36 8h-37zM245 642
c0 57 46 103 102 103c57 0 103 -46 103 -103c0 -56 -46 -102 -103 -102c-56 0 -102 46 -102 102zM492 642c0 57 46 103 102 103c57 0 103 -46 103 -103c0 -56 -46 -102 -103 -102c-56 0 -102 46 -102 102z" />
    <glyph glyph-name="uni2010" unicode="&#x2010;" horiz-adv-x="415" 
d="M356 175h-315l23 180h315z" />
    <glyph glyph-name="uni2011" unicode="&#x2011;" horiz-adv-x="415" 
d="M356 175h-315l23 180h315z" />
    <glyph glyph-name="figuredash" unicode="&#x2012;" horiz-adv-x="574" 
d="M63 266l19 150h434l-19 -150h-434z" />
    <glyph glyph-name="endash" unicode="&#x2013;" horiz-adv-x="574" 
d="M63 190l19 150h434l-19 -150h-434z" />
    <glyph glyph-name="emdash" unicode="&#x2014;" horiz-adv-x="933" 
d="M856 190h-793l19 150h793z" />
    <glyph glyph-name="afii00208" unicode="&#x2015;" horiz-adv-x="933" 
d="M856 190h-793l19 150h793z" />
    <glyph glyph-name="quoteleft" unicode="&#x2018;" horiz-adv-x="488" 
d="M-13 337l198 330h178l-147 -330h-229z" />
    <glyph glyph-name="quoteright" unicode="&#x2019;" horiz-adv-x="426" 
d="M433 667l-188 -330h-178l147 330h219z" />
    <glyph glyph-name="quotesinglbase" unicode="&#x201a;" horiz-adv-x="425" 
d="M139 183h233l-187 -343h-178z" />
    <glyph glyph-name="quotedblleft" unicode="&#x201c;" horiz-adv-x="702" 
d="M337 337l188 330h178l-148 -330h-218zM60 337l188 330h178l-147 -330h-219z" />
    <glyph glyph-name="quotedblright" unicode="&#x201d;" horiz-adv-x="702" 
d="M433 667l-188 -330h-178l147 330h219zM709 667l-188 -330h-178l148 330h218z" />
    <glyph glyph-name="quotedblbase" unicode="&#x201e;" horiz-adv-x="702" 
d="M373 170l-188 -330h-178l148 330h218zM650 170l-188 -330h-178l147 330h219z" />
    <glyph glyph-name="dagger" unicode="&#x2020;" horiz-adv-x="707" 
d="M402 -193h-194l69 564h-171l21 168h171l23 190h195l-24 -190h171l-21 -168h-170z" />
    <glyph glyph-name="daggerdbl" unicode="&#x2021;" horiz-adv-x="707" 
d="M257 208l22 183h-164l21 168h164l21 170h195l-21 -170h164l-21 -168h-164l-22 -183h164l-21 -168h-164l-29 -233h-194l28 233h-164l21 168h164z" />
    <glyph glyph-name="bullet" unicode="&#x2022;" horiz-adv-x="1000" 
d="M376 340c0 77 61 140 137 140s139 -63 139 -140s-63 -140 -139 -140s-137 63 -137 140z" />
    <glyph glyph-name="ellipsis" unicode="&#x2026;" horiz-adv-x="1065" 
d="M164 211c72 0 129 -49 129 -111c0 -63 -59 -113 -135 -113c-73 0 -128 46 -128 106c0 64 62 118 134 118zM519 211c72 0 129 -49 129 -111c0 -63 -59 -113 -135 -113c-73 0 -128 46 -128 106c0 64 62 118 134 118zM874 211c72 0 129 -49 129 -111
c0 -63 -59 -113 -135 -113c-73 0 -128 46 -128 106c0 64 62 118 134 118z" />
    <glyph glyph-name="perthousand" unicode="&#x2030;" horiz-adv-x="1538" 
d="M267 683c107 0 218 -63 218 -182c0 -108 -96 -191 -219 -191c-124 0 -210 75 -210 184c0 111 87 189 211 189zM312 507c0 24 -17 40 -35 40c-24 0 -44 -24 -44 -51c0 -23 16 -41 35 -41c25 0 44 23 44 52zM720 667h120l-470 -667h-121zM812 357c101 0 218 -60 218 -183
c0 -108 -95 -191 -219 -191s-210 76 -210 184c0 111 87 190 211 190zM857 180c0 25 -16 40 -35 40c-24 0 -44 -23 -44 -51c0 -22 16 -40 35 -40c25 0 44 22 44 51zM1291 357c101 0 218 -60 218 -183c0 -108 -95 -191 -219 -191s-210 76 -210 184c0 111 87 190 211 190z
M1336 180c0 25 -16 40 -35 40c-24 0 -44 -23 -44 -51c0 -22 16 -40 35 -40c25 0 44 22 44 51z" />
    <glyph glyph-name="guilsinglleft" unicode="&#x2039;" horiz-adv-x="332" 
d="M275 67l-96 -62l-144 222l192 230l85 -71l-142 -161z" />
    <glyph glyph-name="guilsinglright" unicode="&#x203a;" horiz-adv-x="332" 
d="M65 395l96 62l141 -222l-192 -230l-84 71l141 159z" />
    <glyph glyph-name="fraction" unicode="&#x2044;" horiz-adv-x="301" 
d="M321 667h130l-470 -667h-131z" />
    <glyph glyph-name="Euro" unicode="&#x20ac;" horiz-adv-x="707" 
d="M650 228l-25 -203c-75 -35 -156 -42 -208 -42c-79 0 -159 16 -226 73s-88 126 -95 161h-95l47 90h41l3 43h-76l47 90h51c30 90 85 145 130 176c73 51 157 67 241 67c75 0 153 -15 230 -56l-84 -157c-33 24 -76 42 -141 42c-31 0 -60 -4 -88 -20c-16 -9 -36 -25 -52 -52
h268l-47 -90h-244l-4 -43h239l-47 -90h-176c8 -19 21 -37 48 -49c17 -8 43 -15 81 -15c39 0 69 5 102 19c34 15 60 34 80 56z" />
    <glyph glyph-name="uni20B4" unicode="&#x20b4;" horiz-adv-x="707" 
d="M204 513l-47 123c85 35 166 46 249 46s134 -11 170 -33c44 -27 56 -65 56 -95c0 -25 -7 -59 -38 -87h72l-12 -102h-151l-85 -71h227l-12 -102h-296c-13 -12 -19 -27 -19 -40c0 -11 4 -22 14 -29c15 -11 47 -12 63 -12c56 0 112 17 152 33l46 -121
c-94 -35 -197 -44 -259 -44c-70 0 -142 7 -185 33c-47 29 -56 69 -56 95c0 14 2 51 33 85h-56l12 102h135l85 71h-211l12 102h284c10 9 18 24 18 37c0 10 -8 23 -15 29c-14 12 -35 13 -50 13c-33 0 -77 -6 -136 -33z" />
    <glyph glyph-name="uni20B6" unicode="&#x20b6;" horiz-adv-x="707" 
d="M167 667h268c53 0 135 -6 195 -48s81 -106 81 -155c0 -38 -11 -107 -70 -162c-57 -53 -123 -63 -207 -63h-87l-8 -62h180l-12 -102h-180l-10 -75h-232l10 75h-82l12 102h82l8 62h-82l16 130h82zM402 493h-25l-15 -124h22c22 0 54 2 74 23c11 12 18 29 18 48
c0 14 -3 28 -17 39c-16 13 -38 14 -57 14z" />
    <glyph glyph-name="uni20B7" unicode="&#x20b7;" horiz-adv-x="707" 
d="M167 667h268c53 0 135 -6 195 -48s81 -106 81 -155c0 -38 -11 -107 -70 -162c-57 -53 -123 -63 -207 -63h-87l-8 -62h180l-12 -102h-180l-10 -75h-232l10 75h-82l12 102h82l8 62h-82l16 130h82zM402 493h-25l-15 -124h22c22 0 54 2 74 23c11 12 18 29 18 48
c0 14 -3 28 -17 39c-16 13 -38 14 -57 14z" />
    <glyph glyph-name="uni20B8" unicode="&#x20b8;" horiz-adv-x="707" 
d="M167 667h268c53 0 135 -6 195 -48s81 -106 81 -155c0 -38 -11 -107 -70 -162c-57 -53 -123 -63 -207 -63h-87l-8 -62h180l-12 -102h-180l-10 -75h-232l10 75h-82l12 102h82l8 62h-82l16 130h82zM402 493h-25l-15 -124h22c22 0 54 2 74 23c11 12 18 29 18 48
c0 14 -3 28 -17 39c-16 13 -38 14 -57 14z" />
    <glyph glyph-name="uni20B9" unicode="&#x20b9;" horiz-adv-x="707" 
d="M167 667h268c53 0 135 -6 195 -48s81 -106 81 -155c0 -38 -11 -107 -70 -162c-57 -53 -123 -63 -207 -63h-87l-8 -62h180l-12 -102h-180l-10 -75h-232l10 75h-82l12 102h82l8 62h-82l16 130h82zM402 493h-25l-15 -124h22c22 0 54 2 74 23c11 12 18 29 18 48
c0 14 -3 28 -17 39c-16 13 -38 14 -57 14z" />
    <glyph glyph-name="uni20BA" unicode="&#x20ba;" horiz-adv-x="707" 
d="M167 667h268c53 0 135 -6 195 -48s81 -106 81 -155c0 -38 -11 -107 -70 -162c-57 -53 -123 -63 -207 -63h-87l-8 -62h180l-12 -102h-180l-10 -75h-232l10 75h-82l12 102h82l8 62h-82l16 130h82zM402 493h-25l-15 -124h22c22 0 54 2 74 23c11 12 18 29 18 48
c0 14 -3 28 -17 39c-16 13 -38 14 -57 14z" />
    <glyph glyph-name="uni20BB" unicode="&#x20bb;" horiz-adv-x="707" 
d="M167 667h268c53 0 135 -6 195 -48s81 -106 81 -155c0 -38 -11 -107 -70 -162c-57 -53 -123 -63 -207 -63h-87l-8 -62h180l-12 -102h-180l-10 -75h-232l10 75h-82l12 102h82l8 62h-82l16 130h82zM402 493h-25l-15 -124h22c22 0 54 2 74 23c11 12 18 29 18 48
c0 14 -3 28 -17 39c-16 13 -38 14 -57 14z" />
    <glyph glyph-name="uni20BC" unicode="&#x20bc;" horiz-adv-x="707" 
d="M167 667h268c53 0 135 -6 195 -48s81 -106 81 -155c0 -38 -11 -107 -70 -162c-57 -53 -123 -63 -207 -63h-87l-8 -62h180l-12 -102h-180l-10 -75h-232l10 75h-82l12 102h82l8 62h-82l16 130h82zM402 493h-25l-15 -124h22c22 0 54 2 74 23c11 12 18 29 18 48
c0 14 -3 28 -17 39c-16 13 -38 14 -57 14z" />
    <glyph glyph-name="uni20BD" unicode="&#x20bd;" horiz-adv-x="707" 
d="M167 667h268c53 0 135 -6 195 -48s81 -106 81 -155c0 -38 -11 -107 -70 -162c-57 -53 -123 -63 -207 -63h-87l-8 -62h180l-12 -102h-180l-10 -75h-232l10 75h-82l12 102h82l8 62h-82l16 130h82zM402 493h-25l-15 -124h22c22 0 54 2 74 23c11 12 18 29 18 48
c0 14 -3 28 -17 39c-16 13 -38 14 -57 14z" />
    <glyph glyph-name="uni20BE" unicode="&#x20be;" horiz-adv-x="707" 
d="M167 667h268c53 0 135 -6 195 -48s81 -106 81 -155c0 -38 -11 -107 -70 -162c-57 -53 -123 -63 -207 -63h-87l-8 -62h180l-12 -102h-180l-10 -75h-232l10 75h-82l12 102h82l8 62h-82l16 130h82zM402 493h-25l-15 -124h22c22 0 54 2 74 23c11 12 18 29 18 48
c0 14 -3 28 -17 39c-16 13 -38 14 -57 14z" />
    <glyph glyph-name="uni20BF" unicode="&#x20bf;" horiz-adv-x="707" 
d="M167 667h268c53 0 135 -6 195 -48s81 -106 81 -155c0 -38 -11 -107 -70 -162c-57 -53 -123 -63 -207 -63h-87l-8 -62h180l-12 -102h-180l-10 -75h-232l10 75h-82l12 102h82l8 62h-82l16 130h82zM402 493h-25l-15 -124h22c22 0 54 2 74 23c11 12 18 29 18 48
c0 14 -3 28 -17 39c-16 13 -38 14 -57 14z" />
    <glyph glyph-name="uni20C0" unicode="&#x20c0;" horiz-adv-x="707" 
d="M167 667h268c53 0 135 -6 195 -48s81 -106 81 -155c0 -38 -11 -107 -70 -162c-57 -53 -123 -63 -207 -63h-87l-8 -62h180l-12 -102h-180l-10 -75h-232l10 75h-82l12 102h82l8 62h-82l16 130h82zM402 493h-25l-15 -124h22c22 0 54 2 74 23c11 12 18 29 18 48
c0 14 -3 28 -17 39c-16 13 -38 14 -57 14z" />
    <glyph glyph-name="uni20C1" unicode="&#x20c1;" horiz-adv-x="707" 
d="M167 667h268c53 0 135 -6 195 -48s81 -106 81 -155c0 -38 -11 -107 -70 -162c-57 -53 -123 -63 -207 -63h-87l-8 -62h180l-12 -102h-180l-10 -75h-232l10 75h-82l12 102h82l8 62h-82l16 130h82zM402 493h-25l-15 -124h22c22 0 54 2 74 23c11 12 18 29 18 48
c0 14 -3 28 -17 39c-16 13 -38 14 -57 14z" />
    <glyph glyph-name="uni20C2" unicode="&#x20c2;" horiz-adv-x="707" 
d="M167 667h268c53 0 135 -6 195 -48s81 -106 81 -155c0 -38 -11 -107 -70 -162c-57 -53 -123 -63 -207 -63h-87l-8 -62h180l-12 -102h-180l-10 -75h-232l10 75h-82l12 102h82l8 62h-82l16 130h82zM402 493h-25l-15 -124h22c22 0 54 2 74 23c11 12 18 29 18 48
c0 14 -3 28 -17 39c-16 13 -38 14 -57 14z" />
    <glyph glyph-name="uni20C3" unicode="&#x20c3;" horiz-adv-x="707" 
d="M167 667h268c53 0 135 -6 195 -48s81 -106 81 -155c0 -38 -11 -107 -70 -162c-57 -53 -123 -63 -207 -63h-87l-8 -62h180l-12 -102h-180l-10 -75h-232l10 75h-82l12 102h82l8 62h-82l16 130h82zM402 493h-25l-15 -124h22c22 0 54 2 74 23c11 12 18 29 18 48
c0 14 -3 28 -17 39c-16 13 -38 14 -57 14z" />
    <glyph glyph-name="uni20C4" unicode="&#x20c4;" horiz-adv-x="707" 
d="M167 667h268c53 0 135 -6 195 -48s81 -106 81 -155c0 -38 -11 -107 -70 -162c-57 -53 -123 -63 -207 -63h-87l-8 -62h180l-12 -102h-180l-10 -75h-232l10 75h-82l12 102h82l8 62h-82l16 130h82zM402 493h-25l-15 -124h22c22 0 54 2 74 23c11 12 18 29 18 48
c0 14 -3 28 -17 39c-16 13 -38 14 -57 14z" />
    <glyph glyph-name="uni20C5" unicode="&#x20c5;" horiz-adv-x="707" 
d="M167 667h268c53 0 135 -6 195 -48s81 -106 81 -155c0 -38 -11 -107 -70 -162c-57 -53 -123 -63 -207 -63h-87l-8 -62h180l-12 -102h-180l-10 -75h-232l10 75h-82l12 102h82l8 62h-82l16 130h82zM402 493h-25l-15 -124h22c22 0 54 2 74 23c11 12 18 29 18 48
c0 14 -3 28 -17 39c-16 13 -38 14 -57 14z" />
    <glyph glyph-name="uni20C6" unicode="&#x20c6;" horiz-adv-x="707" 
d="M167 667h268c53 0 135 -6 195 -48s81 -106 81 -155c0 -38 -11 -107 -70 -162c-57 -53 -123 -63 -207 -63h-87l-8 -62h180l-12 -102h-180l-10 -75h-232l10 75h-82l12 102h82l8 62h-82l16 130h82zM402 493h-25l-15 -124h22c22 0 54 2 74 23c11 12 18 29 18 48
c0 14 -3 28 -17 39c-16 13 -38 14 -57 14z" />
    <glyph glyph-name="uni20C7" unicode="&#x20c7;" horiz-adv-x="707" 
d="M167 667h268c53 0 135 -6 195 -48s81 -106 81 -155c0 -38 -11 -107 -70 -162c-57 -53 -123 -63 -207 -63h-87l-8 -62h180l-12 -102h-180l-10 -75h-232l10 75h-82l12 102h82l8 62h-82l16 130h82zM402 493h-25l-15 -124h22c22 0 54 2 74 23c11 12 18 29 18 48
c0 14 -3 28 -17 39c-16 13 -38 14 -57 14z" />
    <glyph glyph-name="uni20C8" unicode="&#x20c8;" horiz-adv-x="707" 
d="M167 667h268c53 0 135 -6 195 -48s81 -106 81 -155c0 -38 -11 -107 -70 -162c-57 -53 -123 -63 -207 -63h-87l-8 -62h180l-12 -102h-180l-10 -75h-232l10 75h-82l12 102h82l8 62h-82l16 130h82zM402 493h-25l-15 -124h22c22 0 54 2 74 23c11 12 18 29 18 48
c0 14 -3 28 -17 39c-16 13 -38 14 -57 14z" />
    <glyph glyph-name="uni20C9" unicode="&#x20c9;" horiz-adv-x="707" 
d="M167 667h268c53 0 135 -6 195 -48s81 -106 81 -155c0 -38 -11 -107 -70 -162c-57 -53 -123 -63 -207 -63h-87l-8 -62h180l-12 -102h-180l-10 -75h-232l10 75h-82l12 102h82l8 62h-82l16 130h82zM402 493h-25l-15 -124h22c22 0 54 2 74 23c11 12 18 29 18 48
c0 14 -3 28 -17 39c-16 13 -38 14 -57 14z" />
    <glyph glyph-name="uni20CA" unicode="&#x20ca;" horiz-adv-x="707" 
d="M167 667h268c53 0 135 -6 195 -48s81 -106 81 -155c0 -38 -11 -107 -70 -162c-57 -53 -123 -63 -207 -63h-87l-8 -62h180l-12 -102h-180l-10 -75h-232l10 75h-82l12 102h82l8 62h-82l16 130h82zM402 493h-25l-15 -124h22c22 0 54 2 74 23c11 12 18 29 18 48
c0 14 -3 28 -17 39c-16 13 -38 14 -57 14z" />
    <glyph glyph-name="uni20CB" unicode="&#x20cb;" horiz-adv-x="707" 
d="M167 667h268c53 0 135 -6 195 -48s81 -106 81 -155c0 -38 -11 -107 -70 -162c-57 -53 -123 -63 -207 -63h-87l-8 -62h180l-12 -102h-180l-10 -75h-232l10 75h-82l12 102h82l8 62h-82l16 130h82zM402 493h-25l-15 -124h22c22 0 54 2 74 23c11 12 18 29 18 48
c0 14 -3 28 -17 39c-16 13 -38 14 -57 14z" />
    <glyph glyph-name="uni20CC" unicode="&#x20cc;" horiz-adv-x="707" 
d="M167 667h268c53 0 135 -6 195 -48s81 -106 81 -155c0 -38 -11 -107 -70 -162c-57 -53 -123 -63 -207 -63h-87l-8 -62h180l-12 -102h-180l-10 -75h-232l10 75h-82l12 102h82l8 62h-82l16 130h82zM402 493h-25l-15 -124h22c22 0 54 2 74 23c11 12 18 29 18 48
c0 14 -3 28 -17 39c-16 13 -38 14 -57 14z" />
    <glyph glyph-name="uni20CD" unicode="&#x20cd;" horiz-adv-x="707" 
d="M167 667h268c53 0 135 -6 195 -48s81 -106 81 -155c0 -38 -11 -107 -70 -162c-57 -53 -123 -63 -207 -63h-87l-8 -62h180l-12 -102h-180l-10 -75h-232l10 75h-82l12 102h82l8 62h-82l16 130h82zM402 493h-25l-15 -124h22c22 0 54 2 74 23c11 12 18 29 18 48
c0 14 -3 28 -17 39c-16 13 -38 14 -57 14z" />
    <glyph glyph-name="uni20CE" unicode="&#x20ce;" horiz-adv-x="707" 
d="M167 667h268c53 0 135 -6 195 -48s81 -106 81 -155c0 -38 -11 -107 -70 -162c-57 -53 -123 -63 -207 -63h-87l-8 -62h180l-12 -102h-180l-10 -75h-232l10 75h-82l12 102h82l8 62h-82l16 130h82zM402 493h-25l-15 -124h22c22 0 54 2 74 23c11 12 18 29 18 48
c0 14 -3 28 -17 39c-16 13 -38 14 -57 14z" />
    <glyph glyph-name="uni20CF" unicode="&#x20cf;" horiz-adv-x="707" 
d="M167 667h268c53 0 135 -6 195 -48s81 -106 81 -155c0 -38 -11 -107 -70 -162c-57 -53 -123 -63 -207 -63h-87l-8 -62h180l-12 -102h-180l-10 -75h-232l10 75h-82l12 102h82l8 62h-82l16 130h82zM402 493h-25l-15 -124h22c22 0 54 2 74 23c11 12 18 29 18 48
c0 14 -3 28 -17 39c-16 13 -38 14 -57 14z" />
    <glyph glyph-name="afii61352" unicode="&#x2116;" horiz-adv-x="1222" 
d="M554 667h245l-82 -667h-234l-116 230c-38 75 -43 105 -53 135l-4 12h-8c4 -55 4 -76 4 -84c0 -36 -3 -62 -6 -94l-18 -199h-243l82 667h243l118 -251c23 -49 37 -97 48 -140l10 1l-2 22c-2 25 -5 50 -5 88c0 39 2 54 4 83zM844 498c0 45 18 87 51 117c31 29 81 52 150 52
c56 0 100 -15 128 -39c24 -20 49 -55 49 -109c0 -56 -26 -95 -51 -118c-43 -39 -99 -49 -146 -49c-36 0 -88 4 -129 37c-33 26 -52 65 -52 109zM829 291h361l-15 -126h-361zM1033 461c17 0 29 7 36 15c9 10 13 25 13 38c0 12 -4 25 -12 33c-6 6 -16 11 -34 11
c-14 0 -26 -3 -36 -12c-7 -6 -16 -18 -16 -38c0 -19 8 -29 14 -35c7 -6 18 -12 35 -12z" />
    <glyph glyph-name="uni2117" unicode="&#x2117;" horiz-adv-x="772" 
d="M415 158h-138v353h163c33 0 88 -3 125 -38c21 -20 36 -53 36 -94c0 -55 -28 -84 -47 -97c-11 -7 -40 -22 -108 -22h-31v-102zM414 409v-52h13c9 0 19 0 27 7c5 5 7 11 7 18c0 6 -1 14 -9 20c-6 5 -16 7 -23 7h-15zM779 330c0 -101 -42 -189 -103 -249
s-155 -103 -249 -103c-95 0 -189 43 -250 103s-103 148 -103 249s42 189 103 249s155 103 250 103c94 0 188 -43 249 -103s103 -148 103 -249zM426 610c-67 0 -136 -28 -185 -75c-53 -50 -87 -125 -87 -205s34 -155 87 -205c49 -47 118 -75 185 -75c68 0 137 28 186 75
c53 50 87 125 87 205s-34 155 -87 205c-49 47 -118 75 -186 75z" />
    <glyph glyph-name="trademark" unicode="&#x2122;" horiz-adv-x="857" 
d="M51 667h293l-15 -129l-64 3l-32 -254h-160l31 254l-69 -3zM678 667h164l6 -380h-155l10 159l-69 -159h-101l-23 162l-38 -162h-161l117 380h164l17 -120c3 -15 3 -22 4 -41c9 28 11 33 24 66z" />
    <glyph glyph-name="Omega" unicode="&#x2126;" horiz-adv-x="667" 
d="M294 0h-271v117h136c-52 33 -76 56 -99 94c-24 42 -37 95 -37 155c0 183 129 317 305 317s305 -134 305 -317c0 -82 -23 -147 -68 -196c-19 -21 -33 -31 -68 -53h136v-117h-270v104c50 28 76 53 98 92c23 40 36 98 36 156c0 125 -71 214 -169 214s-169 -90 -169 -214
c0 -84 23 -153 69 -200c20 -20 32 -30 66 -48v-104z" />
    <glyph glyph-name="partialdiff" unicode="&#x2202;" horiz-adv-x="548" 
d="M82 567l17 110c103 -7 225 -41 308 -119c94 -88 115 -209 115 -283c0 -85 -26 -165 -76 -218c-49 -52 -108 -69 -175 -69s-123 17 -172 64c-50 49 -70 111 -70 169c0 78 34 129 67 161c40 39 87 57 145 57c52 0 89 -14 123 -40c-27 63 -70 100 -106 120
c-46 26 -115 44 -176 48zM276 110c25 0 48 8 68 27c19 19 34 49 34 82c0 34 -15 65 -35 82c-18 16 -44 24 -71 24c-26 0 -50 -7 -70 -25c-23 -21 -35 -51 -35 -81c0 -28 11 -58 32 -79c15 -15 39 -30 77 -30z" />
    <glyph glyph-name="Delta" unicode="&#x2206;" horiz-adv-x="667" 
d="M622 0h-634l245 667h141zM304 508l-130 -390h260z" />
    <glyph glyph-name="product" unicode="&#x220f;" horiz-adv-x="749" 
d="M43 624v126h669v-126h-82v-748h82v-126h-301v126h73v748h-212v-748h71v-126h-300v126h83v748h-83z" />
    <glyph glyph-name="summation" unicode="&#x2211;" horiz-adv-x="667" 
d="M21 750h599v-247h-117l-13 121h-307l250 -357l-250 -391h316l8 124h122v-250h-608v130l243 387l-243 353v130z" />
    <glyph glyph-name="minus" unicode="&#x2212;" 
d="M47 280v120h433v-120h-433z" />
    <glyph glyph-name="uni2215" unicode="&#x2215;" horiz-adv-x="740" 
d="M-82 -193l631 922h173l-632 -922h-172z" />
    <glyph glyph-name="uni2219" unicode="&#x2219;" horiz-adv-x="275" 
d="M153 452c76 0 136 -52 136 -117c0 -67 -63 -119 -142 -119c-77 0 -135 48 -135 112c0 67 65 124 141 124z" />
    <glyph glyph-name="radical" unicode="&#x221a;" horiz-adv-x="667" 
d="M415 827h291v-117h-178l-165 -710h-173l-56 271h-95v116h202l18 -84c1 -3 2 -8 3 -15c3 -24 5 -43 6 -58c3 -29 4 -42 4 -73h11c2 30 3 42 7 73c8 69 24 165 36 217z" />
    <glyph glyph-name="infinity" unicode="&#x221e;" horiz-adv-x="667" 
d="M502 176c-57 0 -104 25 -152 79c-51 -55 -98 -79 -156 -79c-96 0 -164 68 -164 163s68 163 163 163c56 0 98 -22 151 -78c47 52 98 78 156 78c96 0 164 -67 164 -162c0 -96 -68 -164 -162 -164zM480 386c-24 0 -45 -15 -69 -47c25 -33 44 -46 69 -46c28 0 50 20 50 47
c0 25 -23 46 -50 46zM215 293c24 0 44 14 68 46c-25 33 -44 46 -69 46c-28 0 -50 -20 -50 -46s23 -46 51 -46z" />
    <glyph glyph-name="integral" unicode="&#x222b;" 
d="M143 -250c-30 0 -53 3 -94 10l24 116c29 -9 37 -10 55 -10c41 0 58 21 58 71v18v44v476c0 152 4 176 36 216s78 59 143 59c28 0 46 -2 91 -10l-23 -116c-30 9 -38 10 -56 10c-40 0 -58 -21 -58 -71v-62v-67v-409c0 -151 -4 -176 -36 -216s-77 -59 -140 -59z" />
    <glyph glyph-name="approxequal" unicode="&#x2248;" 
d="M164 401c-33 0 -48 -12 -73 -61l-71 47c19 48 30 68 49 91c25 31 60 48 103 48c23 0 52 -8 103 -26c60 -22 65 -24 86 -24c33 0 48 12 72 52l73 -43c-34 -73 -54 -97 -94 -118c-21 -11 -42 -16 -65 -16c-21 0 -40 5 -102 28c-55 19 -65 22 -81 22zM164 198
c-33 0 -48 -13 -73 -61l-71 46c19 49 30 69 49 92c25 31 60 48 103 48c23 0 52 -8 103 -26c60 -22 65 -24 86 -24c33 0 48 12 72 51l73 -42c-34 -73 -54 -97 -94 -118c-21 -11 -42 -16 -65 -16c-21 0 -40 5 -102 27c-55 20 -65 23 -81 23z" />
    <glyph glyph-name="notequal" unicode="&#x2260;" 
d="M45 471h228l55 108h102l-54 -108h102v-116h-155l-33 -67h188v-117h-241l-49 -95h-102l47 95h-88v117h141l34 67h-175v116z" />
    <glyph glyph-name="lessequal" unicode="&#x2264;" 
d="M46 353v109l434 207l-1 -121l-296 -141l297 -141v-121zM46 0v117h434v-117h-434z" />
    <glyph glyph-name="greaterequal" unicode="&#x2265;" 
d="M480 353l-434 -208v121l297 141l-296 141l-1 121l434 -207v-109zM480 0h-434v117h434v-117z" />
    <glyph glyph-name="dotmath" unicode="&#x22c5;" horiz-adv-x="275" 
d="M153 452c76 0 136 -52 136 -117c0 -67 -63 -119 -142 -119c-77 0 -135 48 -135 112c0 67 65 124 141 124z" />
    <glyph glyph-name="lozenge" unicode="&#x25ca;" horiz-adv-x="667" 
d="M87 334l259 359l260 -359l-260 -360zM454 334l-108 148l-107 -148l107 -148z" />
    <glyph glyph-name="openbullet" unicode="&#x25e6;" horiz-adv-x="499" 
d="M286 363c-52 0 -89 23 -111 45c-21 21 -45 56 -45 108c0 30 8 70 45 106c32 31 71 45 108 45c43 0 83 -18 110 -44c26 -25 45 -63 45 -107c0 -30 -8 -71 -45 -108c-31 -31 -67 -45 -107 -45zM214 515c0 -37 31 -68 70 -68s70 31 70 68s-31 68 -70 68s-70 -31 -70 -68z
" />
    <glyph glyph-name="uniF400" unicode="&#xf400;" horiz-adv-x="2" 
d="M-141 641l-149 -108l-75 70l127 120z" />
    <glyph glyph-name="uniF401" unicode="&#xf401;" horiz-adv-x="2" 
d="M-141 824l-149 -108l-75 70l127 120z" />
    <glyph glyph-name="uniF406" unicode="&#xf406;" 
d="M382 875h102c-7 -39 -26 -76 -53 -103c-40 -39 -89 -49 -133 -49c-32 0 -75 4 -112 31c-43 31 -55 80 -56 121h102c2 -13 8 -30 19 -40c9 -9 26 -16 52 -16c14 0 34 2 51 15c12 9 23 24 28 41z" />
    <glyph glyph-name="uniF407" unicode="&#xf407;" horiz-adv-x="641" 
d="M118 -190l152 147l116 -82l-158 -143z" />
    <glyph glyph-name="uniF408" unicode="&#xf408;" 
d="M180 716l-55 101l187 101l161 -115l-66 -87l-98 70z" />
    <glyph glyph-name="uniF409" unicode="&#xf409;" 
d="M367 -62l-125 -212h-155l84 212h196z" />
    <glyph glyph-name="uniF40A" unicode="&#xf40a;" 
d="M426 667l-126 -218h-152l85 218h193z" />
    <glyph glyph-name="uniF40B" unicode="&#xf40b;" 
d="M198 825c0 57 46 103 103 103c56 0 102 -46 102 -103c0 -56 -46 -102 -102 -102c-57 0 -103 46 -103 102z" />
    <glyph glyph-name="uniF40C" unicode="&#xf40c;" 
d="M434 826c0 -33 -16 -63 -40 -81c-31 -24 -73 -28 -104 -28c-48 0 -81 10 -103 27c-25 19 -41 50 -41 82c0 29 13 59 40 80c31 24 73 28 104 28c30 0 74 -4 104 -28c24 -19 40 -50 40 -80zM290 860c-20 0 -30 -5 -35 -8c-11 -7 -15 -17 -15 -28c0 -12 5 -19 15 -25
s22 -8 35 -8c8 0 24 1 36 8c10 6 14 14 14 27c0 10 -4 19 -14 26c-10 6 -25 8 -36 8z" />
    <glyph glyph-name="uniF40D" unicode="&#xf40d;" 
d="M363 829c16 0 23 6 34 28l83 -42c-46 -69 -71 -88 -112 -88c-17 0 -28 3 -58 13l-34 12c-14 4 -21 6 -28 6c-20 0 -30 -8 -39 -31l-90 28c44 74 82 102 139 102c20 0 30 -2 70 -18c18 -7 27 -10 35 -10z" />
    <glyph glyph-name="uniF40E" unicode="&#xf40e;" 
d="M335 0c-13 -9 -29 -23 -40 -34c-8 -9 -20 -24 -20 -43c0 -12 6 -19 10 -23c8 -8 18 -9 28 -9c14 0 38 2 63 25l-33 -95c-33 -18 -67 -23 -95 -23c-12 0 -50 1 -73 22c-15 13 -24 35 -24 59c0 36 20 62 39 80c14 13 37 30 55 41h90z" />
    <glyph glyph-name="uniF43E" unicode="&#xf43e;" horiz-adv-x="480" 
d="M60 667h467l-26 -210l-106 7l-57 -464h-245l57 464l-115 -7zM38 -190l152 147l116 -82l-158 -143z" />
    <glyph glyph-name="uniF43F" unicode="&#xf43f;" horiz-adv-x="353" 
d="M362 288l-56 6l-36 -294h-231l36 294l-60 -6l23 183l57 -10l21 164h231l-20 -164l57 6zM38 -180l134 135l106 -76l-140 -129z" />
    <glyph glyph-name="uniF47E" unicode="&#xf47e;" horiz-adv-x="758" 
d="M500 667h245l-45 -369c-18 -142 -34 -183 -93 -237c-59 -53 -131 -78 -226 -78c-97 0 -178 25 -236 72c-53 43 -75 95 -75 175c0 18 1 35 3 53l48 384h245l-45 -369c-3 -24 -5 -41 -5 -49c0 -40 22 -62 60 -62c46 0 68 29 78 102zM338 825c0 57 46 103 103 103
c56 0 102 -46 102 -103c0 -56 -46 -102 -102 -102c-57 0 -103 46 -103 102z" />
    <glyph glyph-name="uniF47F" unicode="&#xf47f;" horiz-adv-x="633" 
d="M383 467h232l-32 -257c-11 -88 -29 -127 -77 -166c-50 -39 -111 -57 -191 -57c-171 0 -269 72 -269 199c0 16 1 34 3 54l28 227h232l-28 -227c-3 -23 -4 -37 -4 -41c0 -20 14 -35 34 -35c28 0 37 14 43 67zM253 642c0 57 46 103 103 103c56 0 102 -46 102 -103
c0 -56 -46 -102 -102 -102c-57 0 -103 46 -103 102z" />
    <glyph glyph-name="uniF481" unicode="&#xf481;" horiz-adv-x="708" 
d="M428 89h-164l-32 -89h-260l308 667h276l124 -667h-247zM365 362l-45 -121h92l-10 121c-1 11 -2 28 -2 47c0 24 1 31 3 53h-8c-9 -39 -15 -61 -30 -100zM196 -190l152 147l116 -82l-158 -143z" />
    <glyph glyph-name="uniF482" unicode="&#xf482;" horiz-adv-x="652" 
d="M403 467h230l-58 -467h-229c7 32 10 40 25 83l-7 3c-40 -70 -82 -99 -144 -99c-105 0 -195 100 -195 218c0 148 110 278 234 278c74 0 114 -28 141 -100l8 3c-4 33 -5 45 -5 71v10zM316 164c37 0 65 32 65 74c0 35 -23 61 -55 61c-36 0 -67 -35 -67 -76
c0 -34 24 -59 57 -59zM148 -180l134 135l106 -76l-140 -129z" />
    <glyph glyph-name="uniF483" unicode="&#xf483;" horiz-adv-x="633" 
d="M435 194l181 4l-24 -198h-607l8 60l233 328c35 48 49 64 72 78l-3 8c-29 -9 -47 -11 -87 -13l-153 -4l26 210h582l-8 -59l-247 -348c-32 -44 -41 -54 -65 -71l4 -8c33 10 40 11 88 13zM512 826c0 -33 -16 -63 -40 -81c-31 -24 -73 -28 -104 -28c-48 0 -81 10 -103 27
c-25 19 -41 50 -41 82c0 29 13 59 40 80c31 24 73 28 104 28c30 0 74 -4 104 -28c24 -19 40 -50 40 -80zM368 860c-20 0 -30 -5 -35 -8c-11 -7 -15 -17 -15 -28c0 -12 5 -19 15 -25s22 -8 35 -8c8 0 24 1 36 8c10 6 14 14 14 27c0 10 -4 19 -14 26c-10 6 -25 8 -36 8z" />
    <glyph glyph-name="uniF484" unicode="&#xf484;" horiz-adv-x="515" 
d="M62 467h461l-4 -30l-144 -204c-17 -24 -37 -42 -57 -56l4 -11c18 9 29 11 58 11h107l-22 -177h-472l4 35l139 207c26 33 35 43 58 57l-5 9c-20 -11 -38 -15 -64 -15h-84zM441 645c0 -33 -16 -63 -40 -81c-31 -24 -73 -28 -104 -28c-48 0 -81 10 -103 27
c-25 19 -41 50 -41 82c0 29 13 59 40 80c31 24 73 28 104 28c30 0 74 -4 104 -28c24 -19 40 -50 40 -80zM297 679c-20 0 -30 -5 -35 -8c-11 -7 -15 -17 -15 -28c0 -12 5 -19 15 -25s22 -8 35 -8c8 0 24 1 36 8c10 6 14 14 14 27c0 10 -4 19 -14 26c-10 6 -25 8 -36 8z" />
    <glyph glyph-name="uniF485" unicode="&#xf485;" horiz-adv-x="1178" 
d="M1127 636c10 -5 24 -12 42 -22l-89 -177c-42 38 -94 60 -146 60c-26 0 -46 -15 -46 -35c0 -21 12 -28 73 -43c46 -12 84 -27 108 -44c45 -30 73 -88 73 -149c0 -134 -130 -243 -291 -243c-62 0 -137 18 -202 48c-14 7 -35 17 -62 32l90 180c40 -49 104 -79 167 -79
c34 0 56 15 56 39c0 23 -19 37 -63 47c-46 9 -71 17 -95 30c-63 31 -96 87 -96 164c0 133 122 239 274 239c68 0 140 -16 207 -47zM556 636c10 -5 24 -12 42 -22l-89 -177c-42 38 -94 60 -146 60c-26 0 -46 -15 -46 -35c0 -21 12 -28 73 -43c46 -12 84 -27 108 -44
c45 -30 73 -88 73 -149c0 -134 -130 -243 -291 -243c-62 0 -137 18 -202 48c-14 7 -35 17 -62 32l90 180c40 -49 104 -79 167 -79c34 0 56 15 56 39c0 23 -19 37 -63 47c-46 9 -71 17 -95 30c-63 31 -96 87 -96 164c0 133 122 239 274 239c68 0 140 -16 207 -47z" />
    <glyph glyph-name="uniF4C4" unicode="&#xf4c4;" horiz-adv-x="480" 
d="M60 667h467l-26 -210l-106 7l-57 -464h-245l57 464l-115 -7zM38 -190l152 147l116 -82l-158 -143z" />
    <glyph glyph-name="uniF4C5" unicode="&#xf4c5;" horiz-adv-x="469" 
d="M95 0l36 293l-106 -6l22 180h442l-22 -180l-104 6l-36 -293h-232zM88 -180l134 135l106 -76l-140 -129z" />
    <glyph glyph-name="uniF4C6" unicode="&#xf4c6;" horiz-adv-x="724" 
d="M469 667h242l-87 -709c-6 -48 -18 -106 -58 -143c-48 -45 -123 -45 -165 -45c-43 0 -76 2 -116 9l18 146c8 -5 16 -8 28 -8c17 0 28 5 34 11c5 5 13 16 17 48l34 257c-41 -10 -76 -12 -116 -12c-96 0 -144 19 -170 36c-32 21 -70 62 -70 137c0 11 3 39 4 51l27 222h240
l-21 -172c-1 -9 -3 -20 -3 -31c0 -14 3 -28 17 -38c16 -12 44 -13 53 -13c19 0 46 3 62 6z" />
    </font>
</defs>
</svg>
